<svg width="169" height="236" viewBox="0 0 169 236" fill="none" xmlns="http://www.w3.org/2000/svg">
<path d="M161.958 235.746H6.11392C2.80475 235.746 0.121094 233.055 0.121094 229.736V6.13088C0.121094 2.81252 2.80475 0.121399 6.11392 0.121399H161.968C165.277 0.121399 167.96 2.81252 167.96 6.13088V229.736C167.95 233.055 165.267 235.746 161.958 235.746Z" fill="white"/>
<path d="M29.703 48.4734C27.2894 45.8268 24.4698 43.2482 23.2968 41.891C22.4171 40.8731 21.7854 40.104 21.5373 39.7873V39.629C21.5373 39.629 21.5148 39.6516 21.4697 39.7195C21.4245 39.6742 21.402 39.629 21.402 39.629V39.7873C21.1539 40.104 20.5222 40.8731 19.6425 41.891C18.4695 43.2482 15.6499 45.8268 13.2363 48.4734C10.8227 51.1199 10.6197 53.7664 11.0708 55.9606C11.5219 58.1547 13.8228 60.2131 17.4094 59.7607C18.5372 59.625 19.3718 59.0821 19.9583 58.4035C19.5523 61.5024 17.8831 63.131 17.8831 63.131H24.8532C23.59 61.706 23.1389 59.6928 22.9584 58.4261C23.5675 59.1047 24.3795 59.625 25.5074 59.7607C29.094 60.2131 31.3948 58.1547 31.8459 55.9606C32.3196 53.7664 32.1166 51.1199 29.703 48.4734Z" fill="black"/>
<path d="M139.777 183.658C142.191 186.304 145.011 188.883 146.184 190.24C147.063 191.258 147.695 192.027 147.943 192.344L147.943 192.502C147.943 192.502 147.966 192.479 148.011 192.412C148.056 192.457 148.078 192.502 148.078 192.502L148.078 192.344C148.327 192.027 148.958 191.258 149.838 190.24C151.011 188.883 153.831 186.304 156.244 183.658C158.658 181.011 158.861 178.365 158.41 176.17C157.959 173.976 155.658 171.918 152.071 172.37C150.943 172.506 150.109 173.049 149.522 173.728C149.928 170.629 151.597 169 151.597 169L144.627 169C145.89 170.425 146.342 172.438 146.522 173.705C145.913 173.026 145.101 172.506 143.973 172.37C140.387 171.918 138.086 173.976 137.635 176.17C137.161 178.365 137.364 181.011 139.777 183.658Z" fill="black"/>
<path d="M26.5716 87.7332V89.0292H23.0676V87.7332H26.5716ZM23.0676 91.2532V89.8772H26.5716V91.2532H23.0676ZM27.6916 92.1652V86.8212H21.8996V100.757H23.0676V92.1652H27.6916ZM27.2436 95.8772V94.1492H29.4836V95.8772H27.2436ZM32.7156 96.8852V95.8772H30.5396V94.1492H32.3636V93.1732H24.4756V94.1492H26.2036V95.8772H24.1716V96.8852H26.1716C26.0756 97.8132 25.6276 99.1412 24.2836 99.9572C24.5396 100.117 24.8916 100.453 25.0676 100.661C26.6036 99.6212 27.1156 97.9572 27.2116 96.8852H29.4836V100.453H30.5396V96.8852H32.7156ZM30.2356 91.2692V89.8772H33.8676V91.2692H30.2356ZM33.8676 87.7332V89.0292H30.2356V87.7332H33.8676ZM35.0356 86.8212H29.0996V92.1812H33.8676V99.1892C33.8676 99.4452 33.7876 99.5412 33.5316 99.5412C33.2916 99.5572 32.4276 99.5572 31.5476 99.5252C31.7236 99.8452 31.8996 100.405 31.9316 100.709C33.1316 100.725 33.9316 100.693 34.4116 100.501C34.8756 100.293 35.0356 99.9092 35.0356 99.2052V86.8212ZM39.4676 96.1652C39.5476 95.6532 39.6276 95.0772 39.7076 94.5172H43.0836V90.9652H40.6036C42.0276 90.0052 43.2596 88.7412 43.9636 87.1412L43.2276 86.7572L43.0196 86.8052H38.6836V87.7812H42.3956C41.9956 88.3892 41.4676 88.9652 40.8596 89.4772C40.3956 88.9972 39.6116 88.4372 38.9556 88.0532L38.2676 88.7092C38.8756 89.0772 39.5956 89.6372 40.0756 90.0852C39.0996 90.7412 37.9956 91.2692 36.9236 91.5892C37.1476 91.7972 37.4356 92.2132 37.5636 92.4692C38.1716 92.2772 38.7636 92.0212 39.3396 91.7172V91.9092H42.0116V93.5892H38.8436C38.6996 94.7252 38.4756 96.1492 38.2836 97.0932H41.9476C41.8036 98.6132 41.6276 99.2692 41.3876 99.4772C41.2596 99.6052 41.0996 99.6212 40.8116 99.6212C40.5076 99.6212 39.6276 99.6052 38.7636 99.5252C38.9396 99.8132 39.0996 100.229 39.1156 100.549C39.9796 100.597 40.8276 100.613 41.2276 100.581C41.6916 100.549 42.0116 100.453 42.2836 100.181C42.6676 99.8132 42.8756 98.8692 43.0676 96.6292C43.0996 96.5012 43.1156 96.1652 43.1156 96.1652H39.4676ZM49.4996 95.4612L49.3076 95.5092H43.8516V96.3732H48.7476C48.3476 97.0292 47.8196 97.5892 47.2116 98.0852C46.2676 97.5412 45.2756 96.9652 44.4276 96.5172L43.8516 97.1732C44.6356 97.6052 45.5156 98.1332 46.3796 98.6452C45.4036 99.2212 44.2676 99.6372 43.0996 99.8932C43.3076 100.101 43.5316 100.501 43.6436 100.773C44.9716 100.437 46.2196 99.9412 47.3076 99.2212C48.2356 99.7972 49.0836 100.357 49.6596 100.789L50.2516 100.021C49.7076 99.6212 48.9396 99.1412 48.0916 98.6132C48.9876 97.8612 49.7076 96.9012 50.1556 95.7332L49.4996 95.4612ZM50.4596 87.8452C49.9316 88.4052 49.0196 89.1732 48.2996 89.7012C47.8676 89.3972 47.4676 89.0772 47.1316 88.7252C47.8516 88.2132 48.7476 87.5252 49.4356 86.8692L48.5556 86.2452C48.0756 86.7892 47.2276 87.5412 46.5396 88.1012C46.0276 87.4932 45.6116 86.8532 45.2916 86.1652L44.3476 86.4532C45.1796 88.2772 46.5076 89.7972 48.1556 90.9012H44.6036V92.1492C44.6036 92.9172 44.3796 93.7812 43.1156 94.4692C43.3396 94.6132 43.7236 94.9972 43.8836 95.2052C45.2916 94.3892 45.6276 93.2052 45.6276 92.1812V91.8612H47.8036V93.4132C47.8036 94.3572 47.9956 94.7412 48.9716 94.7412H50.2836C50.6036 94.7412 50.9236 94.7412 51.0996 94.6772C51.0676 94.4372 51.0356 94.0852 51.0356 93.8292C50.8276 93.8772 50.4756 93.8932 50.2676 93.8932H49.0836C48.8436 93.8932 48.8116 93.7812 48.8116 93.4292V91.3012C49.5156 91.7012 50.2836 92.0212 51.0996 92.2772C51.2756 91.9892 51.5636 91.5732 51.8196 91.3492C50.8436 91.0932 49.9316 90.7092 49.0836 90.2132C49.8196 89.7332 50.6836 89.0772 51.3396 88.4532L50.4596 87.8452ZM57.1156 88.2772V91.8132H54.7956V88.2772H57.1156ZM54.7956 96.5492V92.8692H57.1156V96.5492H54.7956ZM58.2356 87.1892H53.6916V98.9172H54.7956V97.6372H58.2356V87.1892ZM59.5476 96.1652C60.3156 97.0292 61.1956 98.1972 61.5636 98.9652L62.6036 98.3252C62.1876 97.5892 61.2916 96.4212 60.5396 95.6052L59.5476 96.1652ZM67.6756 89.1252V88.0532H63.6756V86.1492H62.5076V88.0532H58.5236V89.1252H62.5076V91.1892H59.2276V92.2452H64.6036V93.9892H58.5876V95.0452H64.6036V99.3172C64.6036 99.5572 64.5236 99.6212 64.2676 99.6372C64.0116 99.6532 63.1156 99.6532 62.1396 99.6212C62.2996 99.9412 62.4756 100.405 62.5236 100.741C63.8196 100.741 64.6036 100.725 65.1156 100.533C65.5956 100.357 65.7716 100.021 65.7716 99.3332V95.0452H67.6276V93.9892H65.7716V92.2452H67.1636V91.1892H63.6756V89.1252H67.6756ZM74.5556 87.7492V89.0772H71.0996V87.7492H74.5556ZM71.0996 91.3652V89.9572H74.5556V91.3652H71.0996ZM75.6916 92.2772V86.8212H69.9156V100.757H71.0996V92.2772H75.6916ZM78.2676 94.4052V95.8772H74.5076V94.4052H78.2676ZM74.5076 98.3252V96.7732H78.2676V98.3252H74.5076ZM79.3716 99.2692V93.4772H73.4356V100.069H74.5076V99.2692H79.3716ZM78.2516 91.3812V89.9572H81.8356V91.3812H78.2516ZM81.8356 87.7492V89.0772H78.2516V87.7492H81.8356ZM83.0356 86.8212H77.1156V92.2932H81.8356V99.1572C81.8356 99.4452 81.7396 99.5412 81.4676 99.5412C81.1796 99.5572 80.2036 99.5732 79.2276 99.5252C79.4036 99.8452 79.5956 100.405 79.6436 100.741C80.9716 100.741 81.8196 100.725 82.3316 100.533C82.8596 100.325 83.0356 99.9252 83.0356 99.1732V86.8212ZM97.9636 91.9092H93.2916V90.3572H97.9636V91.9092ZM97.9636 94.3252H93.2916V92.7572H97.9636V94.3252ZM97.9636 96.7892H93.2916V95.2212H97.9636V96.7892ZM92.1876 89.4292V97.7172H99.0836V89.4292H95.7716C95.9156 88.9652 96.0756 88.4372 96.2196 87.9092H99.6436V86.8852H91.5796V87.9092H94.9076C94.8276 88.4052 94.7156 88.9492 94.6036 89.4292H92.1876ZM90.5556 95.5892C91.0036 94.7252 91.4836 93.3332 91.9156 92.1012L91.1796 91.9092L91.0036 91.9572H89.8356L90.2196 91.4612C89.9156 91.1412 89.4676 90.7732 88.9716 90.4212C89.8676 89.5732 90.7956 88.4212 91.4516 87.3492L90.7156 86.8372L90.4756 86.9172H85.4356V87.9732H89.7236C89.2596 88.6292 88.6836 89.3172 88.1396 89.8452C87.5956 89.5092 87.0356 89.1732 86.5236 88.9012L85.8836 89.6692C87.0196 90.2772 88.3316 91.1892 89.1636 91.9572H85.0836V93.0132H87.7076V99.3332C87.7076 99.5252 87.6436 99.5892 87.4036 99.5892C87.1956 99.6052 86.4596 99.6052 85.6436 99.5892C85.8036 99.8932 85.9636 100.389 86.0116 100.709C87.1156 100.709 87.8196 100.693 88.2676 100.501C88.7316 100.325 88.8596 99.9732 88.8596 99.3492V93.0132H90.5396C90.2676 93.8772 89.9476 94.7572 89.6756 95.3492L90.5556 95.5892ZM93.7716 98.0212C93.0836 98.7252 91.6436 99.5412 90.3956 99.9892C90.6196 100.197 91.0036 100.565 91.1796 100.789C92.4596 100.325 93.9316 99.4612 94.8116 98.6292L93.7716 98.0212ZM96.2356 98.6932C97.2116 99.3012 98.4276 100.197 99.0356 100.789L99.9636 100.101C99.3236 99.5092 98.0916 98.6452 97.1316 98.0852L96.2356 98.6932ZM104.732 86.1972C103.836 88.6292 102.348 91.0292 100.78 92.5492C101.004 92.8212 101.34 93.4292 101.452 93.7172C101.996 93.1412 102.54 92.5012 103.036 91.7812V100.725H104.172V90.0532C104.812 88.9332 105.388 87.7332 105.852 86.5492L104.732 86.1972ZM113.564 98.9332H107.724V95.1572H113.564V98.9332ZM115.74 90.7892V89.6372H111.196V86.1332H109.996V89.6372H105.644V90.7892H109.996V94.0372H106.556V100.757H107.724V100.069H113.564V100.693H114.764V94.0372H111.196V90.7892H115.74ZM131.26 88.4532V87.2692H117.596V88.4532H124.668C123.084 91.1892 120.348 93.8452 117.196 95.4292C117.436 95.7012 117.82 96.1652 117.996 96.4692C120.22 95.3012 122.172 93.6532 123.788 91.8132V100.709H125.052V90.2132C125.452 89.6212 125.836 89.0452 126.188 88.4532H131.26ZM125.372 91.8932C127.26 93.1412 129.628 95.0292 130.764 96.2452L131.708 95.3332C130.54 94.1172 128.108 92.3252 126.252 91.1252L125.372 91.8932ZM142.22 89.9732H139.324V88.7892H142.22V89.9732ZM142.22 91.9572H139.324V90.7732H142.22V91.9572ZM142.22 94.0052H139.324V92.7732H142.22V94.0052ZM138.172 95.6692H139.324V94.9812H147.132V94.0052H143.34V92.7732H146.412V91.9572H143.34V90.7732H146.364V89.9732H143.34V88.7892H146.892V87.8612H143.66C143.468 87.3812 143.148 86.7252 142.844 86.2132L141.708 86.5332C141.932 86.9332 142.172 87.4292 142.348 87.8612H139.756C140.044 87.3812 140.316 86.8852 140.556 86.3892L139.436 86.0532C138.732 87.6372 137.564 89.1892 136.284 90.1972C136.572 90.3732 137.02 90.7412 137.244 90.9492C137.564 90.6772 137.852 90.3572 138.172 90.0052V95.6692ZM134.396 95.7172C135.356 94.6932 136.428 93.4452 137.324 92.3252L136.684 91.5412C135.66 92.7412 134.412 94.0372 133.564 94.8052L134.396 95.7172ZM137.484 87.4452C136.908 87.0452 135.788 86.5332 134.908 86.2292L134.316 87.0452C135.196 87.3972 136.284 87.9572 136.86 88.3572L137.484 87.4452ZM136.252 90.0532C135.676 89.6852 134.556 89.2052 133.724 88.9332L133.116 89.7492C133.98 90.0692 135.1 90.5972 135.644 90.9652L136.252 90.0532ZM147.596 96.5492H140.988V95.3972H139.788V96.5492H133.324V97.6372H139.788V100.773H140.988V97.6372H147.596V96.5492ZM29.1796 121.365H31.5636V123.045H29.1796V121.365ZM31.5636 117.813H29.1796V116.197H31.5636V117.813ZM31.5636 120.437H29.1796V118.741H31.5636V120.437ZM25.2436 121.621H23.4676V116.949H25.2436V121.621ZM35.6276 123.045H32.6676V121.365H34.9556V120.437H32.6676V118.741H34.9556V117.813H32.6676V116.197H35.1636V115.189H32.9716C32.7796 114.645 32.3956 113.909 32.0756 113.317L31.0836 113.717C31.3076 114.165 31.5636 114.709 31.7716 115.189H29.6916C30.2036 114.453 30.6516 113.653 31.0516 112.789H34.2196V114.469H35.2916V111.765H31.4676C31.6596 111.317 31.8196 110.821 31.9636 110.341L30.8436 110.117C30.6836 110.677 30.4916 111.237 30.2836 111.765H26.8916V114.501H27.9316V112.789H29.8036C28.9396 114.533 27.7556 116.005 26.2836 117.029V115.909H23.5476C23.8836 114.805 24.1396 113.589 24.3476 112.357H26.5556V111.269H21.3076V112.357H23.1956C22.7796 114.997 22.0756 117.445 20.9236 119.077C21.1476 119.317 21.4836 119.861 21.6116 120.101C21.9156 119.701 22.1876 119.221 22.4436 118.741V123.973H23.4676V122.677H26.2836V117.093C26.5236 117.349 26.8436 117.797 26.9716 118.037C27.3396 117.749 27.7236 117.445 28.0596 117.109V124.757H29.1796V124.069H35.6436L35.6276 123.045ZM43.1156 120.517C44.7956 119.925 45.8836 118.613 45.8836 116.885C45.8836 115.765 45.4036 115.045 44.5236 115.045C43.8676 115.045 43.3076 115.445 43.3076 116.197C43.3076 116.949 43.8516 117.333 44.5076 117.333C44.6036 117.333 44.6836 117.333 44.7796 117.317C44.6996 118.405 43.9956 119.157 42.7636 119.669L43.1156 120.517ZM56.9236 112.277C56.7636 111.717 56.4116 110.837 56.0756 110.181L55.0836 110.485C55.3876 111.157 55.7396 112.069 55.8836 112.645L56.9236 112.277ZM57.1316 120.165V122.837H54.6836V120.165H57.1316ZM58.1876 119.189H53.6436V124.549H54.6836V123.813H58.1876V119.189ZM53.5796 117.941H58.2356V116.997H53.5796V117.941ZM58.2196 114.837H53.5636V115.781H58.2196V114.837ZM53.1956 113.797H58.6836V112.821H53.1956V113.797ZM60.8436 121.301C60.8756 120.885 60.8916 120.485 60.8916 120.117H65.6916V121.301H60.8436ZM65.6916 118.085V119.269H60.8916V118.085H65.6916ZM66.8116 117.141H59.8036V120.085C59.8036 121.349 59.6916 122.965 58.7476 124.165C58.9876 124.293 59.4036 124.725 59.5796 124.949C60.2356 124.165 60.5556 123.157 60.7316 122.149H65.6916V123.509C65.6916 123.685 65.6436 123.749 65.4356 123.749C65.2436 123.765 64.5876 123.765 63.8676 123.733C64.0276 124.021 64.1556 124.421 64.2036 124.725C65.2116 124.725 65.8676 124.725 66.2676 124.549C66.6996 124.373 66.8116 124.085 66.8116 123.509V117.141ZM63.8036 115.285V114.197H67.2756V113.333H63.8036V112.357H67.5796V111.445H63.8036V110.149H62.6356V111.445H59.0356V112.357H62.6356V113.333H59.4356V114.197H62.6356V115.285H58.8596V116.197H67.7396V115.285H63.8036ZM72.3636 110.149C71.7076 111.269 70.3956 112.629 69.2276 113.477C69.4036 113.701 69.7236 114.101 69.8676 114.341C71.1476 113.365 72.5716 111.893 73.4516 110.549L72.3636 110.149ZM72.7476 113.381C71.8676 115.061 70.4436 116.725 69.0676 117.813C69.2916 118.053 69.6276 118.629 69.7556 118.853C70.2516 118.437 70.7796 117.925 71.2756 117.349V124.805H72.3956V115.973C72.9236 115.253 73.4036 114.501 73.8036 113.749L72.7476 113.381ZM80.7156 119.317C80.1236 120.277 79.2596 121.093 78.2676 121.749C77.4676 121.253 76.7636 120.661 76.1716 120.005C76.3796 119.781 76.5716 119.557 76.7636 119.317H80.7156ZM81.5956 118.277L81.4036 118.325H77.4836C77.7716 117.925 78.0276 117.477 78.2516 117.045L81.8036 116.821C82.1556 117.301 82.4276 117.765 82.6356 118.133L83.6116 117.573C83.0676 116.645 81.9316 115.173 80.9876 114.117L80.0596 114.597C80.4116 114.997 80.7796 115.461 81.1476 115.925L76.1396 116.197C78.0916 115.157 80.0596 113.829 81.9476 112.277L80.8596 111.669C80.2036 112.261 79.4676 112.853 78.7476 113.381L75.8996 113.477C76.9236 112.757 77.9796 111.813 78.9396 110.821L77.7716 110.309C76.7956 111.477 75.3876 112.629 74.9716 112.933C74.5556 113.221 74.2196 113.445 73.9156 113.493C74.0596 113.813 74.2516 114.389 74.2996 114.645C74.5396 114.549 74.9716 114.469 77.3556 114.357C76.4596 114.933 75.7236 115.397 75.3556 115.589C74.6036 116.021 74.0436 116.293 73.5796 116.357C73.7076 116.661 73.8996 117.237 73.9476 117.461C74.2516 117.349 74.6676 117.285 76.9556 117.141C76.5556 117.845 76.0276 118.533 75.4676 119.141C75.2756 118.869 75.1156 118.597 74.9556 118.309L73.9796 118.645C74.2196 119.061 74.4596 119.477 74.7476 119.845C74.3156 120.245 73.8356 120.597 73.3716 120.901C73.6116 121.109 74.0276 121.541 74.1876 121.781C74.6036 121.461 75.0356 121.125 75.4516 120.725C75.9636 121.317 76.5876 121.877 77.2276 122.357C75.9316 123.029 74.4596 123.509 73.0036 123.781C73.2276 124.021 73.4836 124.501 73.5796 124.805C75.2116 124.421 76.8276 123.861 78.2676 123.029C79.5956 123.813 81.1156 124.405 82.7956 124.773C82.9556 124.453 83.2596 124.005 83.5156 123.749C81.9796 123.477 80.5556 122.981 79.2916 122.357C80.6196 121.397 81.6756 120.181 82.3316 118.645L81.5956 118.277ZM99.1316 110.933H97.9956V113.653H95.5796V110.149H94.4436V113.653H92.2356V110.933H91.1316V114.709H99.1316V110.933ZM88.9716 112.597C88.7636 111.973 88.2996 111.013 87.8676 110.293L86.8596 110.613C87.2596 111.349 87.7236 112.341 87.9156 112.981L88.9716 112.597ZM90.6196 113.125H85.2916V114.229H90.6196V113.125ZM87.4356 120.693C87.3716 119.125 87.0516 116.821 86.6996 114.997L85.7876 115.157C86.1236 116.965 86.4276 119.301 86.4756 120.869L87.4356 120.693ZM89.0676 121.093C89.4516 119.397 89.8516 116.949 90.1236 115.045L89.0836 114.853C88.9076 116.789 88.5236 119.605 88.1396 121.317C87.0196 121.573 85.9796 121.829 85.1796 122.005L85.4356 123.157C86.9396 122.805 88.8756 122.293 90.7316 121.813L90.6036 120.709L89.0676 121.093ZM99.6596 116.949V115.893H90.4436V116.949H94.3316C94.2356 117.429 94.1396 117.957 94.0436 118.405H90.9556V124.741H92.0276V119.429H93.4356V124.597H94.3796V119.429H95.8516V124.549H96.7956V119.429H98.2516V123.653C98.2516 123.781 98.2196 123.829 98.0756 123.829C97.9636 123.845 97.5476 123.845 97.0996 123.829C97.2276 124.101 97.3876 124.485 97.4356 124.789C98.1396 124.789 98.5876 124.773 98.9076 124.597C99.2436 124.421 99.3236 124.165 99.3236 123.669V118.405H95.1956C95.3556 117.957 95.5156 117.445 95.6596 116.949H99.6596ZM115.5 112.501V111.317H101.372V112.501H107.484V124.725H108.748V116.309C110.572 117.285 112.716 118.597 113.804 119.493L114.636 118.421C113.372 117.461 110.86 116.021 108.956 115.109L108.748 115.349V112.501H115.5ZM129.788 114.037C129.468 115.141 128.988 116.341 128.604 117.093C128.892 117.221 129.34 117.461 129.596 117.605C130.156 116.501 130.86 114.821 131.276 113.269L130.396 112.805L130.172 112.869H124.38C124.62 112.069 124.844 111.237 125.004 110.389L123.724 110.149C123.244 112.677 122.364 115.173 121.148 116.725C121.468 116.869 122.06 117.189 122.316 117.397C122.956 116.485 123.5 115.333 123.996 114.037H129.788ZM121.82 112.645H117.628V113.797H121.82V112.645ZM122.3 119.205H117.276V120.373H122.3V119.205ZM126.556 114.709H125.308V115.925C125.308 118.213 124.956 121.541 120.364 123.861C120.636 124.069 121.068 124.517 121.26 124.789C124.316 123.189 125.628 121.141 126.188 119.189C127.1 121.765 128.588 123.669 130.988 124.645C131.164 124.309 131.532 123.845 131.772 123.605C128.86 122.597 127.276 120.037 126.54 116.661C126.556 116.437 126.556 116.197 126.556 115.957V114.709ZM142.044 114.197H145.292C144.972 116.293 144.46 118.053 143.692 119.493C142.908 118.005 142.348 116.261 141.98 114.357L142.044 114.197ZM147.58 114.197V113.077H142.412C142.7 112.213 142.924 111.301 143.116 110.357L141.964 110.133C141.436 112.757 140.572 115.285 139.324 116.933V111.269H133.724V112.437H138.156V115.813H133.916V121.877C133.916 122.437 133.66 122.661 133.42 122.773C133.612 123.061 133.82 123.637 133.9 123.989C134.252 123.669 134.844 123.397 139.468 121.621C139.388 121.349 139.308 120.853 139.308 120.501L135.1 122.021V116.981H139.292L139.212 117.077C139.484 117.269 139.932 117.717 140.124 117.941C140.524 117.365 140.924 116.725 141.276 116.021C141.708 117.733 142.252 119.285 142.988 120.613C142.044 121.957 140.764 122.965 139.084 123.733C139.324 123.989 139.676 124.533 139.788 124.821C141.42 124.021 142.7 122.997 143.676 121.717C144.572 122.981 145.676 123.989 147.02 124.677C147.212 124.373 147.548 123.909 147.836 123.685C146.428 123.045 145.292 122.005 144.412 120.677C145.436 118.949 146.108 116.821 146.54 114.197H147.58ZM17.745 139.397H14.945V137.765H17.745V139.397ZM17.745 141.989H14.945V140.341H17.745V141.989ZM17.745 144.645H14.945V142.933H17.745V144.645ZM13.857 145.669H22.593V144.645H18.801V142.933H21.809V141.989H18.801V140.341H21.793V139.397H18.801V137.765H22.241V136.773H19.489C19.249 136.117 18.753 135.125 18.273 134.373L17.297 134.677C17.665 135.317 18.081 136.133 18.321 136.773H15.201C15.537 136.037 15.873 135.285 16.129 134.533L15.137 134.245C14.401 136.341 13.249 138.421 11.953 139.797C12.177 140.005 12.513 140.501 12.641 140.709C13.057 140.245 13.457 139.717 13.857 139.109V145.669ZM11.857 136.597C11.409 135.957 10.529 134.933 9.809 134.165L8.929 134.709C9.633 135.493 10.513 136.581 10.945 137.253L11.857 136.597ZM11.889 141.733L11.681 141.765H9.857C10.769 140.693 11.969 139.045 12.657 138.117L11.873 137.749L11.665 137.829H8.35299V138.805H10.913C10.225 139.781 9.281 141.045 8.89699 141.413C8.62499 141.717 8.36899 141.813 8.12899 141.877C8.25699 142.133 8.49699 142.677 8.577 142.965C8.689 142.837 9.105 142.741 9.521 142.741H11.249C10.737 145.237 9.56899 146.997 8.04899 147.973C8.27299 148.133 8.67299 148.549 8.83299 148.789C9.64899 148.229 10.353 147.461 10.961 146.453C12.209 148.181 14.193 148.517 17.393 148.517C19.137 148.517 21.121 148.469 22.609 148.389C22.673 148.053 22.833 147.509 23.009 147.253C21.377 147.381 19.057 147.461 17.393 147.461C14.481 147.461 12.497 147.221 11.425 145.557C11.905 144.549 12.257 143.349 12.481 141.957L11.889 141.733ZM30.225 144.517C31.905 143.925 32.993 142.613 32.993 140.885C32.993 139.765 32.513 139.045 31.633 139.045C30.977 139.045 30.417 139.445 30.417 140.197C30.417 140.949 30.961 141.333 31.617 141.333C31.713 141.333 31.793 141.333 31.889 141.317C31.809 142.405 31.105 143.157 29.873 143.669L30.225 144.517ZM54.641 136.197H52.641C52.449 135.605 52.113 134.805 51.777 134.181L50.817 134.469C51.057 134.997 51.329 135.653 51.521 136.197H49.281V137.189H54.641V136.197ZM51.457 139.525C51.361 138.949 51.073 138.069 50.785 137.413L49.937 137.621C50.225 138.309 50.497 139.205 50.561 139.781L51.457 139.525ZM51.425 142.629H49.329V143.621H51.425V146.469H52.513V143.621H54.577V142.629H52.513V140.901H54.753V139.909H53.089C53.441 139.237 53.809 138.357 54.129 137.605L53.121 137.381C52.913 138.101 52.513 139.157 52.161 139.909H49.137V140.901H51.425V142.629ZM47.729 135.861V138.341H45.841C45.857 138.101 45.857 137.877 45.857 137.653V135.861H47.729ZM46.321 141.845H47.873V145.077H46.321V141.845ZM45.393 145.941H48.849V140.965H45.617C45.713 140.405 45.761 139.829 45.809 139.301H48.689V134.901H44.881V137.637C44.881 139.605 44.721 142.421 43.473 144.469C43.681 144.597 44.081 144.965 44.225 145.173C44.785 144.293 45.137 143.269 45.393 142.229V145.941ZM43.521 136.661C43.121 136.037 42.257 135.029 41.553 134.261L40.673 134.773C41.361 135.541 42.225 136.645 42.641 137.301L43.521 136.661ZM43.281 141.733L43.073 141.765H41.793C42.513 140.677 43.473 138.949 44.001 138.021L43.217 137.733L42.993 137.829H40.337V138.805H42.417C41.873 139.797 41.153 141.093 40.881 141.413C40.641 141.717 40.401 141.829 40.193 141.909C40.305 142.133 40.545 142.677 40.609 142.965C40.737 142.853 41.137 142.741 41.505 142.741H42.673C42.241 145.173 41.313 146.981 40.017 147.973C40.241 148.133 40.625 148.549 40.785 148.805C41.521 148.197 42.145 147.349 42.657 146.277C43.921 148.181 45.969 148.517 49.313 148.517C51.089 148.517 53.105 148.469 54.625 148.389C54.689 148.037 54.849 147.509 55.041 147.237C53.377 147.381 51.025 147.461 49.313 147.461C46.193 147.461 44.113 147.189 43.073 145.269C43.425 144.309 43.681 143.189 43.857 141.941L43.281 141.733ZM68.289 139.221V142.005H63.873C64.049 141.125 64.161 140.197 64.241 139.221H68.289ZM59.217 142.005V139.221H63.009C62.929 140.213 62.833 141.125 62.625 142.005H59.217ZM64.801 136.373C64.433 136.981 63.937 137.653 63.473 138.149H59.233C59.809 137.573 60.337 136.981 60.801 136.373H64.801ZM66.369 147.349C65.649 147.349 65.521 147.269 65.521 146.789V143.077H69.521V138.149H64.849C65.441 137.445 66.065 136.597 66.481 135.845L65.681 135.301L65.473 135.365H61.521C61.761 135.013 61.985 134.693 62.177 134.357L60.865 134.117C60.017 135.701 58.417 137.669 56.257 139.109C56.529 139.301 56.913 139.685 57.089 139.973C57.425 139.733 57.729 139.509 58.033 139.253V143.077H62.305C61.569 145.109 60.001 146.709 56.417 147.589C56.689 147.845 56.977 148.293 57.089 148.597C61.105 147.509 62.801 145.573 63.585 143.077H64.305V146.805C64.305 148.069 64.705 148.421 66.241 148.421H68.913C70.273 148.421 70.625 147.861 70.785 145.589C70.433 145.525 69.953 145.333 69.681 145.125C69.617 147.045 69.505 147.349 68.817 147.349H66.369ZM73.137 147.525H76.145C79.681 147.525 81.617 145.333 81.617 141.621C81.617 137.893 79.681 135.781 76.081 135.781H73.137V147.525ZM74.625 146.309V136.997H75.953C78.721 136.997 80.081 138.645 80.081 141.621C80.081 144.581 78.721 146.309 75.953 146.309H74.625ZM87.4974 147.733C88.6814 147.733 89.6094 147.333 90.3774 146.837L89.8494 145.877C89.2094 146.309 88.5214 146.565 87.6734 146.565C86.0254 146.565 84.8894 145.381 84.7934 143.525H90.6494C90.6814 143.317 90.7134 143.013 90.7134 142.693C90.7134 140.213 89.4654 138.613 87.2574 138.613C85.2414 138.613 83.3374 140.373 83.3374 143.189C83.3374 146.053 85.1934 147.733 87.4974 147.733ZM84.7774 142.469C84.9534 140.773 86.0414 139.781 87.2734 139.781C88.6334 139.781 89.4334 140.725 89.4334 142.469H84.7774ZM94.3887 147.733C94.7887 147.733 95.0287 147.685 95.2367 147.605L95.0287 146.485C94.8687 146.517 94.8047 146.517 94.7247 146.517C94.5007 146.517 94.3087 146.341 94.3087 145.893V134.789H92.8527V145.797C92.8527 147.029 93.3007 147.733 94.3887 147.733ZM99.4152 147.733C100.487 147.733 101.463 147.173 102.295 146.485H102.343L102.471 147.525H103.671V142.181C103.671 140.037 102.775 138.613 100.663 138.613C99.2712 138.613 98.0392 139.237 97.2392 139.749L97.8152 140.757C98.5032 140.293 99.4152 139.829 100.423 139.829C101.847 139.829 102.215 140.901 102.215 142.021C98.5192 142.437 96.8712 143.381 96.8712 145.269C96.8712 146.837 97.9592 147.733 99.4152 147.733ZM99.8312 146.565C98.9672 146.565 98.2952 146.165 98.2952 145.173C98.2952 144.053 99.2872 143.333 102.215 142.981V145.413C101.367 146.165 100.679 146.565 99.8312 146.565ZM106.59 151.269C108.318 151.269 109.23 149.957 109.822 148.245L113.102 138.837H111.678L110.126 143.669C109.886 144.437 109.63 145.317 109.39 146.101H109.31C109.038 145.317 108.734 144.421 108.478 143.669L106.702 138.837H105.182L108.67 147.541L108.478 148.197C108.126 149.269 107.502 150.069 106.51 150.069C106.286 150.069 106.03 149.989 105.854 149.925L105.566 151.093C105.838 151.205 106.174 151.269 106.59 151.269ZM119.174 143.509H122.358V142.453H119.174V140.741H118.038V142.453H114.918V143.509H118.038V146.197C116.646 146.437 115.35 146.677 114.374 146.837L114.63 147.941C116.726 147.541 119.75 146.965 122.582 146.421L122.502 145.381C121.398 145.589 120.262 145.797 119.174 146.005V143.509ZM114.502 136.245H117.03C116.518 137.381 115.878 138.373 115.638 138.693C115.366 139.077 115.126 139.349 114.87 139.397C115.014 139.701 115.206 140.261 115.27 140.517C115.654 140.341 116.23 140.277 121.206 139.797C121.446 140.165 121.638 140.517 121.766 140.789L122.678 140.197C122.214 139.285 121.158 137.845 120.262 136.773L119.414 137.285C119.798 137.765 120.214 138.309 120.598 138.869L116.518 139.221C117.158 138.373 117.814 137.301 118.358 136.245H122.678V135.189H114.502V136.245ZM124.678 135.525H123.558V145.141H124.678V135.525ZM126.694 134.405V146.901C126.694 147.173 126.63 147.237 126.358 147.253C126.086 147.269 125.206 147.269 124.278 147.237C124.454 147.557 124.662 148.101 124.71 148.405C125.862 148.405 126.71 148.373 127.206 148.181C127.686 148.005 127.862 147.637 127.862 146.885V134.405H126.694ZM144.006 137.221C143.494 136.469 142.374 135.349 141.462 134.565L140.55 135.189C141.478 136.005 142.566 137.157 143.046 137.909L144.006 137.221ZM142.582 140.709C142.038 141.733 141.334 142.709 140.486 143.621C140.214 142.565 139.99 141.333 139.83 139.973H144.406V138.837H139.702C139.574 137.413 139.51 135.877 139.51 134.277H138.294C138.31 135.845 138.374 137.381 138.518 138.837H134.854V136.053C135.83 135.845 136.758 135.589 137.526 135.317L136.678 134.341C135.174 134.901 132.598 135.445 130.358 135.781C130.518 136.069 130.678 136.485 130.742 136.773C131.686 136.645 132.694 136.485 133.686 136.293V138.837H130.262V139.973H133.686V142.773C132.294 143.061 130.998 143.333 130.038 143.493L130.374 144.693C131.334 144.485 132.486 144.213 133.686 143.957V147.205C133.686 147.493 133.59 147.573 133.302 147.573C133.03 147.589 132.086 147.605 131.062 147.557C131.238 147.893 131.446 148.437 131.51 148.757C132.806 148.757 133.67 148.725 134.166 148.533C134.662 148.341 134.854 147.989 134.854 147.221V143.669C135.83 143.445 136.822 143.221 137.798 142.981L137.718 141.909C136.774 142.117 135.798 142.325 134.854 142.533V139.973H138.614C138.822 141.701 139.126 143.285 139.51 144.613C138.374 145.669 137.062 146.549 135.718 147.205C136.022 147.461 136.358 147.861 136.534 148.149C137.734 147.525 138.87 146.725 139.91 145.797C140.646 147.669 141.606 148.789 142.87 148.789C144.07 148.789 144.486 148.021 144.71 145.381C144.374 145.269 143.958 144.997 143.702 144.741C143.606 146.789 143.414 147.605 142.982 147.605C142.182 147.605 141.462 146.581 140.854 144.901C141.974 143.765 142.918 142.501 143.638 141.141L142.582 140.709ZM153.366 139.029C152.038 139.029 150.934 140.117 150.934 141.461C150.934 142.805 152.038 143.893 153.366 143.893C154.71 143.893 155.798 142.805 155.798 141.461C155.798 140.117 154.71 139.029 153.366 139.029ZM153.366 143.077C152.486 143.077 151.75 142.357 151.75 141.461C151.75 140.565 152.486 139.845 153.366 139.845C154.262 139.845 154.982 140.565 154.982 141.461C154.982 142.357 154.262 143.077 153.366 143.077Z" fill="black"/>
<path d="M16.7183 37.604C15.8303 37.604 15.0503 37.532 14.3783 37.388C13.7063 37.244 13.1183 36.896 12.6143 36.344C12.1343 35.792 11.8943 34.94 11.8943 33.788C11.8943 32.18 12.3743 30.02 13.3343 27.308C14.3183 24.596 15.6023 21.872 17.1863 19.136C15.9863 19.208 15.0383 19.388 14.3423 19.676C13.6463 19.964 13.1903 20.408 12.9743 21.008C13.0703 21.008 13.1663 21.128 13.2623 21.368C13.3823 21.608 13.4423 21.86 13.4423 22.124C13.4423 22.556 13.2503 22.904 12.8663 23.168C12.4823 23.408 12.0023 23.528 11.4263 23.528C10.7543 23.528 10.2143 23.348 9.80626 22.988C9.39826 22.628 9.19426 22.112 9.19426 21.44C9.19426 20.624 9.50626 19.88 10.1303 19.208C10.7783 18.536 11.6663 18.008 12.7943 17.624C13.9223 17.216 15.1703 17.012 16.5383 17.012C17.0423 17.012 17.6663 17.048 18.4103 17.12C20.3783 14 22.4543 11.456 24.6383 9.488C26.8463 7.496 28.9463 6.5 30.9383 6.5C32.0903 6.5 33.0383 6.668 33.7823 7.004L28.1303 33.5H22.9463L25.7183 20.432C24.8303 20.024 24.0143 19.724 23.2703 19.532C22.5263 19.34 21.7343 19.208 20.8943 19.136C19.5263 22.088 18.3983 25.112 17.5103 28.208C16.6463 31.28 16.2143 33.74 16.2143 35.588C16.2143 36.5 16.3823 37.172 16.7183 37.604ZM28.1303 9.056C27.0983 9.608 26.0183 10.64 24.8903 12.152C23.7863 13.64 22.7063 15.452 21.6503 17.588C23.3783 17.924 24.8423 18.344 26.0423 18.848L28.1303 9.056Z" fill="black"/>
<path d="M152.762 194.527C153.65 194.527 154.43 194.599 155.102 194.743C155.774 194.887 156.362 195.235 156.866 195.787C157.346 196.339 157.586 197.191 157.586 198.343C157.586 199.951 157.106 202.111 156.146 204.823C155.162 207.535 153.878 210.259 152.294 212.995C153.494 212.923 154.442 212.743 155.138 212.455C155.834 212.167 156.29 211.723 156.506 211.123C156.41 211.123 156.314 211.003 156.218 210.763C156.098 210.523 156.038 210.271 156.038 210.007C156.038 209.575 156.23 209.227 156.614 208.963C156.998 208.723 157.478 208.603 158.054 208.603C158.726 208.603 159.266 208.783 159.674 209.143C160.082 209.503 160.286 210.019 160.286 210.691C160.286 211.507 159.974 212.251 159.35 212.923C158.702 213.595 157.814 214.123 156.686 214.507C155.558 214.915 154.31 215.119 152.942 215.119C152.438 215.119 151.814 215.083 151.07 215.011C149.102 218.131 147.026 220.675 144.842 222.643C142.634 224.635 140.534 225.631 138.542 225.631C137.39 225.631 136.442 225.463 135.698 225.127L141.35 198.631L146.534 198.631L143.762 211.699C144.65 212.107 145.466 212.407 146.21 212.599C146.954 212.791 147.746 212.923 148.586 212.995C149.954 210.043 151.082 207.019 151.97 203.923C152.834 200.851 153.266 198.391 153.266 196.543C153.266 195.631 153.098 194.959 152.762 194.527ZM141.35 223.075C142.382 222.523 143.462 221.491 144.59 219.979C145.694 218.491 146.774 216.679 147.83 214.543C146.102 214.207 144.638 213.787 143.438 213.283L141.35 223.075Z" fill="black"/>
</svg>
