<svg width="169" height="236" viewBox="0 0 169 236" fill="none" xmlns="http://www.w3.org/2000/svg">
<path d="M161.958 235.746H6.11392C2.80475 235.746 0.121094 233.055 0.121094 229.736V6.13088C0.121094 2.81252 2.80475 0.121399 6.11392 0.121399H161.968C165.277 0.121399 167.96 2.81252 167.96 6.13088V229.736C167.95 233.055 165.267 235.746 161.958 235.746Z" fill="white"/>
<path d="M29.703 48.4734C27.2894 45.8268 24.4698 43.2482 23.2968 41.891C22.4171 40.8731 21.7854 40.104 21.5373 39.7873V39.629C21.5373 39.629 21.5148 39.6516 21.4697 39.7195C21.4245 39.6742 21.402 39.629 21.402 39.629V39.7873C21.1539 40.104 20.5222 40.8731 19.6425 41.891C18.4695 43.2482 15.6499 45.8268 13.2363 48.4734C10.8227 51.1199 10.6197 53.7664 11.0708 55.9606C11.5219 58.1547 13.8228 60.2131 17.4094 59.7607C18.5372 59.625 19.3718 59.0821 19.9583 58.4035C19.5523 61.5024 17.8831 63.131 17.8831 63.131H24.8532C23.59 61.706 23.1389 59.6928 22.9584 58.4261C23.5675 59.1047 24.3795 59.625 25.5074 59.7607C29.094 60.2131 31.3948 58.1547 31.8459 55.9606C32.3196 53.7664 32.1166 51.1199 29.703 48.4734Z" fill="black"/>
<path d="M139.777 183.658C142.191 186.304 145.011 188.883 146.184 190.24C147.063 191.258 147.695 192.027 147.943 192.344L147.943 192.502C147.943 192.502 147.966 192.479 148.011 192.412C148.056 192.457 148.078 192.502 148.078 192.502L148.078 192.344C148.327 192.027 148.958 191.258 149.838 190.24C151.011 188.883 153.831 186.304 156.244 183.658C158.658 181.011 158.861 178.365 158.41 176.17C157.959 173.976 155.658 171.918 152.071 172.37C150.943 172.506 150.109 173.049 149.522 173.728C149.928 170.629 151.597 169 151.597 169L144.627 169C145.89 170.425 146.342 172.438 146.522 173.705C145.913 173.026 145.101 172.506 143.973 172.37C140.387 171.918 138.086 173.976 137.635 176.17C137.161 178.365 137.364 181.011 139.777 183.658Z" fill="black"/>
<path d="M20.3316 86.0126V89.6606H16.1556V86.0126H20.3316ZM21.4996 90.7966V84.8606H15.0036V92.0766H16.1556V90.7966H21.4996ZM27.5316 81.3406H13.3716V82.5246H24.3476V93.1006C24.3476 93.4366 24.2356 93.5486 23.8836 93.5646C23.5156 93.5806 22.2036 93.5966 20.9236 93.5326C21.1156 93.8686 21.3556 94.4606 21.4356 94.7966C23.0036 94.7966 24.1076 94.7966 24.7476 94.5726C25.3556 94.3966 25.5636 93.9646 25.5636 93.1166V82.5246H27.5316V81.3406ZM37.8676 86.0126C37.4196 84.9246 36.3956 83.3566 35.3396 82.1886L34.2836 82.7166C35.2916 83.8846 36.3156 85.5166 36.7476 86.6206L37.8676 86.0126ZM35.5956 89.1166C34.5396 89.5646 33.4676 90.0286 32.4436 90.4606L32.2036 81.0206L30.9876 81.0686L31.2596 90.9566C30.4276 91.3086 29.6756 91.6126 29.0516 91.8526L29.4836 93.0846C31.2436 92.3166 33.6596 91.2606 35.8676 90.2526L35.5956 89.1166ZM43.8996 93.8526C43.0836 92.6686 41.3876 90.8926 39.9636 89.4526C41.0836 87.3086 41.6916 84.5886 42.0756 81.1646L40.7796 81.0366C40.0756 87.9486 38.3796 91.8206 32.8916 93.8366C33.1796 94.0766 33.6756 94.6206 33.8356 94.8606C36.3316 93.8206 38.0756 92.4286 39.3236 90.5406C40.6836 91.9806 42.1716 93.6606 42.9076 94.7646L43.8996 93.8526ZM49.3076 82.0446C49.0516 81.5166 48.4916 80.7006 47.9316 80.1246L47.0196 80.6206C47.5316 81.2126 48.0916 82.0606 48.3316 82.6046L49.3076 82.0446ZM49.6916 90.3006V92.9726H46.8916V90.3006H49.6916ZM50.7636 89.3246H45.8356V94.7006H46.8916V93.9646H50.7636V89.3246ZM45.6276 88.1086H51.0196V87.1486H45.6276V88.1086ZM45.9316 84.9246V85.8526H50.7156V84.9246H45.9316ZM45.1636 83.6766H51.5316V82.7006H45.1636V83.6766ZM54.6036 93.3726C53.7396 93.3726 53.5636 93.2446 53.5636 92.6206V87.4206H57.5796V88.2686H58.7476V81.0846H52.1876V82.2206H57.5796V86.2846H52.3956V92.6206C52.3956 94.1246 52.8756 94.4926 54.5076 94.4926H57.6436C59.2116 94.4926 59.5796 93.8046 59.7556 91.2126C59.4036 91.1486 58.9236 90.9406 58.6356 90.7326C58.5396 92.9566 58.3956 93.3726 57.5636 93.3726H54.6036ZM69.7716 90.7966C68.7316 91.5646 67.6596 92.3166 66.8916 92.8126L66.8436 92.1886L64.6996 92.5886V88.0606H66.6836V87.0206H64.6996V85.2926H66.0756V84.2526H62.4116C63.0836 83.5486 63.6916 82.7166 64.2196 81.8526C65.1316 82.7326 66.1716 83.8046 66.7156 84.4766L67.4036 83.6766C66.8116 83.0046 65.6436 81.9006 64.6996 81.0046C64.7956 80.8606 64.8596 80.7166 64.9396 80.5566L64.0116 80.2206C63.2916 81.7566 62.0596 83.2286 60.8436 84.2046C60.9876 84.4766 61.2436 85.0686 61.3076 85.3086C61.5956 85.0686 61.8676 84.8126 62.1556 84.5246V85.2926H63.7076V87.0206H61.3396V88.0606H63.7076V92.7486C62.7156 92.9406 61.7716 93.1006 61.0676 93.1966L61.3396 94.2686C62.8436 93.9646 64.8916 93.5806 66.8436 93.1646L67.3236 93.8366C68.1876 93.1806 69.1956 92.3966 70.1396 91.6446L69.7716 90.7966ZM61.4996 89.0526C61.7396 89.9806 61.9956 91.2126 62.0756 91.9966L62.9716 91.7726C62.8596 90.9886 62.5876 89.7886 62.3476 88.8446L61.4996 89.0526ZM66.0276 91.8206C66.2836 91.0686 66.5396 89.8846 66.8116 88.9406L65.9636 88.6846C65.8356 89.5326 65.5796 90.8126 65.3556 91.5966L66.0276 91.8206ZM67.4036 88.4446C68.0276 89.0846 68.8116 89.9806 69.1796 90.5406L70.0116 89.9006C69.6276 89.3566 68.8276 88.4926 68.1876 87.8846L67.4036 88.4446ZM69.3236 84.0446C69.4676 83.5966 69.5796 83.0686 69.7236 82.5566H73.0676C72.9876 82.9886 72.8916 83.5166 72.7796 84.0446H69.3236ZM75.7076 87.2446V86.1886H73.4356C73.7716 84.7326 74.1236 82.9726 74.3316 81.6766L73.5316 81.5486L73.3396 81.6126H69.9636C70.0756 81.1806 70.1716 80.7326 70.2676 80.3326L69.1476 80.2046C68.8116 81.7246 68.2996 83.7406 67.8996 84.9886H72.5876C72.4916 85.4046 72.3956 85.8046 72.3156 86.1886H66.9076V87.2446H70.7476V93.5806C70.7476 93.7406 70.6996 93.7886 70.5076 93.8046C70.3316 93.8046 69.7556 93.8206 69.0996 93.7886C69.2596 94.0926 69.4196 94.5246 69.4516 94.8286C70.3476 94.8446 70.9716 94.8126 71.3396 94.6526C71.7556 94.4606 71.8516 94.1726 71.8516 93.5806V87.2446H75.7076ZM73.1956 90.5726C73.8356 90.0606 74.6996 89.2606 75.3556 88.5086L74.5556 87.8366C74.0436 88.4926 73.1636 89.4366 72.5396 89.9646L73.1956 90.5726ZM72.2356 91.3726C73.1956 92.0926 74.4596 93.1486 75.0676 93.8046L75.7396 92.9886C75.1156 92.3486 73.8356 91.3566 72.8756 90.6686L72.2356 91.3726ZM91.5156 82.1086H86.5236L87.3876 81.7246C87.1316 81.2606 86.5716 80.5406 86.1396 80.0446L85.0356 80.4766C85.4676 80.9566 85.9156 81.6446 86.1876 82.1086H81.4516V83.0366H91.5156V82.1086ZM82.7156 87.1646H90.1556V86.2686H82.7156V87.1646ZM90.1556 84.1566H82.7156V85.0686H90.1556V84.1566ZM83.6756 89.2606H89.0676V91.2446H83.6756V89.2606ZM82.5396 92.1566H90.2356V88.3486H82.5396V92.1566ZM80.7316 82.6686C80.2996 82.0286 79.4196 81.0046 78.6996 80.2366L77.8196 80.7806C78.5236 81.5646 79.4036 82.6526 79.8196 83.3086L80.7316 82.6686ZM80.7636 87.8046L80.5716 87.8366H78.7476C79.6596 86.7646 80.8596 85.1166 81.5316 84.1886L80.7476 83.8206L80.5556 83.9006H77.2436V84.8766H79.8036C79.0996 85.8526 78.1716 87.1166 77.7876 87.4846C77.4996 87.7886 77.2596 87.8846 77.0196 87.9486C77.1476 88.2046 77.3876 88.7486 77.4516 89.0366C77.5636 88.9086 77.9956 88.8126 78.3956 88.8126H80.1396C79.6276 91.3086 78.4596 93.0686 76.9396 94.0446C77.1636 94.2046 77.5476 94.6206 77.7236 94.8606C78.5396 94.3006 79.2436 93.5326 79.8356 92.5246C81.0996 94.2526 83.0836 94.5886 86.2836 94.5886C88.0116 94.5886 90.0116 94.5406 91.4996 94.4606C91.5636 94.1246 91.7236 93.5806 91.8996 93.3246C90.2676 93.4526 87.9476 93.5326 86.2836 93.5326C83.3716 93.5326 81.3716 93.2926 80.3156 91.6286C80.7796 90.6206 81.1476 89.4206 81.3556 88.0286L80.7636 87.8046ZM105.788 84.1086C105.468 85.2126 104.988 86.4126 104.604 87.1646C104.892 87.2926 105.34 87.5326 105.596 87.6766C106.156 86.5726 106.86 84.8926 107.276 83.3406L106.396 82.8766L106.172 82.9406H100.38C100.62 82.1406 100.844 81.3086 101.004 80.4606L99.7236 80.2206C99.2436 82.7486 98.3636 85.2446 97.1476 86.7966C97.4676 86.9406 98.0596 87.2606 98.3156 87.4686C98.9556 86.5566 99.4996 85.4046 99.9956 84.1086H105.788ZM97.8196 82.7166H93.6276V83.8686H97.8196V82.7166ZM98.2996 89.2766H93.2756V90.4446H98.2996V89.2766ZM102.556 84.7806H101.308V85.9966C101.308 88.2846 100.956 91.6126 96.3636 93.9326C96.6356 94.1406 97.0676 94.5886 97.2596 94.8606C100.316 93.2606 101.628 91.2126 102.188 89.2606C103.1 91.8366 104.588 93.7406 106.988 94.7166C107.164 94.3806 107.532 93.9166 107.772 93.6766C104.86 92.6686 103.276 90.1086 102.54 86.7326C102.556 86.5086 102.556 86.2686 102.556 86.0286V84.7806ZM114.316 87.1806H110.956V83.8366H114.316V87.1806ZM110.956 92.0766V88.2366H114.316V92.0766H110.956ZM112.3 80.1726C112.188 80.9246 111.9 81.9966 111.66 82.7646H109.868V94.4126H110.956V93.1486H115.404V82.7646H112.748C113.02 82.0766 113.308 81.1966 113.58 80.4126L112.3 80.1726ZM123.228 82.7166H118.444C118.716 81.9646 118.94 81.1966 119.132 80.4126L117.996 80.1406C117.484 82.3326 116.62 84.5406 115.548 85.9486C115.804 86.1086 116.316 86.4286 116.524 86.6206C117.084 85.8686 117.58 84.8926 118.028 83.8206H122.092C121.884 90.1886 121.644 92.6206 121.116 93.1806C120.956 93.3886 120.78 93.4206 120.46 93.4206C120.092 93.4206 119.132 93.4206 118.092 93.3246C118.316 93.6606 118.46 94.1406 118.492 94.4926C119.388 94.5406 120.3 94.5726 120.86 94.5086C121.404 94.4606 121.772 94.3166 122.124 93.8686C122.764 93.0846 122.972 90.6206 123.228 83.3246V82.7166ZM120.7 89.9166C120.188 88.9726 119.084 87.4366 118.188 86.3006L117.26 86.8446C118.14 87.9966 119.212 89.5806 119.692 90.5406L120.7 89.9166ZM130.572 81.8046V83.1006H127.068V81.8046H130.572ZM127.068 85.3246V83.9486H130.572V85.3246H127.068ZM131.692 86.2366V80.8926H125.9V94.8286H127.068V86.2366H131.692ZM131.244 89.9486V88.2206H133.484V89.9486H131.244ZM136.716 90.9566V89.9486H134.54V88.2206H136.364V87.2446H128.476V88.2206H130.204V89.9486H128.172V90.9566H130.172C130.076 91.8846 129.628 93.2126 128.284 94.0286C128.54 94.1886 128.892 94.5246 129.068 94.7326C130.604 93.6926 131.116 92.0286 131.212 90.9566H133.484V94.5246H134.54V90.9566H136.716ZM134.236 85.3406V83.9486H137.868V85.3406H134.236ZM137.868 81.8046V83.1006H134.236V81.8046H137.868ZM139.036 80.8926H133.1V86.2526H137.868V93.2606C137.868 93.5166 137.788 93.6126 137.532 93.6126C137.292 93.6286 136.428 93.6286 135.548 93.5966C135.724 93.9166 135.9 94.4766 135.932 94.7806C137.132 94.7966 137.932 94.7646 138.412 94.5726C138.876 94.3646 139.036 93.9806 139.036 93.2766V80.8926ZM143.468 90.2366C143.548 89.7246 143.628 89.1486 143.708 88.5886H147.084V85.0366H144.604C146.028 84.0766 147.26 82.8126 147.964 81.2126L147.228 80.8286L147.02 80.8766H142.684V81.8526H146.396C145.996 82.4606 145.468 83.0366 144.86 83.5486C144.396 83.0686 143.612 82.5086 142.956 82.1246L142.268 82.7806C142.876 83.1486 143.596 83.7086 144.076 84.1566C143.1 84.8126 141.996 85.3406 140.924 85.6606C141.148 85.8686 141.436 86.2846 141.564 86.5406C142.172 86.3486 142.764 86.0926 143.34 85.7886V85.9806H146.012V87.6606H142.844C142.7 88.7966 142.476 90.2206 142.284 91.1646H145.948C145.804 92.6846 145.628 93.3406 145.388 93.5486C145.26 93.6766 145.1 93.6926 144.812 93.6926C144.508 93.6926 143.628 93.6766 142.764 93.5966C142.94 93.8846 143.1 94.3006 143.116 94.6206C143.98 94.6686 144.828 94.6846 145.228 94.6526C145.692 94.6206 146.012 94.5246 146.284 94.2526C146.668 93.8846 146.876 92.9406 147.068 90.7006C147.1 90.5726 147.116 90.2366 147.116 90.2366H143.468ZM153.5 89.5326L153.308 89.5806H147.852V90.4446H152.748C152.348 91.1006 151.82 91.6606 151.212 92.1566C150.268 91.6126 149.276 91.0366 148.428 90.5886L147.852 91.2446C148.636 91.6766 149.516 92.2046 150.38 92.7166C149.404 93.2926 148.268 93.7086 147.1 93.9646C147.308 94.1726 147.532 94.5726 147.644 94.8446C148.972 94.5086 150.22 94.0126 151.308 93.2926C152.236 93.8686 153.084 94.4286 153.66 94.8606L154.252 94.0926C153.708 93.6926 152.94 93.2126 152.092 92.6846C152.988 91.9326 153.708 90.9726 154.156 89.8046L153.5 89.5326ZM154.46 81.9166C153.932 82.4766 153.02 83.2446 152.3 83.7726C151.868 83.4686 151.468 83.1486 151.132 82.7966C151.852 82.2846 152.748 81.5966 153.436 80.9406L152.556 80.3166C152.076 80.8606 151.228 81.6126 150.54 82.1726C150.028 81.5646 149.612 80.9246 149.292 80.2366L148.348 80.5246C149.18 82.3486 150.508 83.8686 152.156 84.9726H148.604V86.2206C148.604 86.9886 148.38 87.8526 147.116 88.5406C147.34 88.6846 147.724 89.0686 147.884 89.2766C149.292 88.4606 149.628 87.2766 149.628 86.2526V85.9326H151.804V87.4846C151.804 88.4286 151.996 88.8126 152.972 88.8126H154.284C154.604 88.8126 154.924 88.8126 155.1 88.7486C155.068 88.5086 155.036 88.1566 155.036 87.9006C154.828 87.9486 154.476 87.9646 154.268 87.9646H153.084C152.844 87.9646 152.812 87.8526 152.812 87.5006V85.3726C153.516 85.7726 154.284 86.0926 155.1 86.3486C155.276 86.0606 155.564 85.6446 155.82 85.4206C154.844 85.1646 153.932 84.7806 153.084 84.2846C153.82 83.8046 154.684 83.1486 155.34 82.5246L154.46 81.9166ZM17.1156 112.349V115.885H14.7956V112.349H17.1156ZM14.7956 120.621V116.941H17.1156V120.621H14.7956ZM18.2356 111.261H13.6916V122.989H14.7956V121.709H18.2356V111.261ZM19.5476 120.237C20.3156 121.101 21.1956 122.269 21.5636 123.037L22.6036 122.397C22.1876 121.661 21.2916 120.493 20.5396 119.677L19.5476 120.237ZM27.6756 113.197V112.125H23.6756V110.221H22.5076V112.125H18.5236V113.197H22.5076V115.261H19.2276V116.317H24.6036V118.061H18.5876V119.117H24.6036V123.389C24.6036 123.629 24.5236 123.693 24.2676 123.709C24.0116 123.725 23.1156 123.725 22.1396 123.693C22.2996 124.013 22.4756 124.477 22.5236 124.813C23.8196 124.813 24.6036 124.797 25.1156 124.605C25.5956 124.429 25.7716 124.093 25.7716 123.405V119.117H27.6276V118.061H25.7716V116.317H27.1636V115.261H23.6756V113.197H27.6756ZM34.5556 111.821V113.149H31.0996V111.821H34.5556ZM31.0996 115.437V114.029H34.5556V115.437H31.0996ZM35.6916 116.349V110.893H29.9156V124.829H31.0996V116.349H35.6916ZM38.2676 118.477V119.949H34.5076V118.477H38.2676ZM34.5076 122.397V120.845H38.2676V122.397H34.5076ZM39.3716 123.341V117.549H33.4356V124.141H34.5076V123.341H39.3716ZM38.2516 115.453V114.029H41.8356V115.453H38.2516ZM41.8356 111.821V113.149H38.2516V111.821H41.8356ZM43.0356 110.893H37.1156V116.365H41.8356V123.229C41.8356 123.517 41.7396 123.613 41.4676 123.613C41.1796 123.629 40.2036 123.645 39.2276 123.597C39.4036 123.917 39.5956 124.477 39.6436 124.813C40.9716 124.813 41.8196 124.797 42.3316 124.605C42.8596 124.397 43.0356 123.997 43.0356 123.245V110.893ZM51.1156 120.589C52.7956 119.997 53.8836 118.685 53.8836 116.957C53.8836 115.837 53.4036 115.117 52.5236 115.117C51.8676 115.117 51.3076 115.517 51.3076 116.269C51.3076 117.021 51.8516 117.405 52.5076 117.405C52.6036 117.405 52.6836 117.405 52.7796 117.389C52.6996 118.477 51.9956 119.229 50.7636 119.741L51.1156 120.589ZM75.5636 111.405H71.7076C71.5476 111.005 71.2916 110.477 71.0196 110.093L70.0436 110.381C70.2196 110.685 70.3956 111.053 70.5396 111.405H66.4436V112.333H75.5636V111.405ZM64.4436 112.429C64.3316 111.869 63.9316 110.989 63.5316 110.317L62.6676 110.621C63.0516 111.293 63.4196 112.205 63.5476 112.765L64.4436 112.429ZM66.1236 112.925H61.1156V113.901H66.1236V112.925ZM64.7956 120.253V122.941H62.5716V120.253H64.7956ZM65.6916 119.293H61.6916V124.653H62.5716V123.901H65.6916V119.293ZM61.7716 118.093H65.6916V117.133H61.7716V118.093ZM61.7716 115.965H65.6916V115.021H61.7716V115.965ZM69.7396 118.973H72.1396V119.837H69.7396V118.973ZM69.7396 117.325H72.1396V118.173H69.7396V117.325ZM67.9636 113.693H69.6436V114.941H67.9636V113.693ZM72.3636 113.693H74.0916V114.941H72.3636V113.693ZM74.7796 120.925C74.2996 121.261 73.5476 121.725 72.8756 122.045C72.5396 121.645 72.2356 121.181 71.9956 120.701H75.7236V119.837H73.2276V118.973H75.0676V118.173H73.2276V117.325H75.3716V116.525H73.2276V115.661H75.0516V112.973H71.4356V115.661H72.1396V116.525H69.7396V115.661H70.5876V112.973H67.0516V115.661H68.6676V116.525H66.7156V117.325H68.6676V118.173H67.0036V118.973H68.6676V119.837H66.2196V120.701H69.4516C68.5236 121.357 67.2116 121.885 65.9636 122.205C66.1556 122.397 66.4596 122.797 66.5876 122.989C67.1796 122.797 67.7876 122.557 68.3796 122.269V122.765C68.3796 123.469 67.9956 123.869 67.7556 124.045C67.9316 124.221 68.1876 124.589 68.2836 124.813C68.5396 124.653 68.9716 124.509 71.7556 123.885C71.7236 123.661 71.7076 123.261 71.7236 122.973L69.3396 123.437V121.773C69.8836 121.437 70.3796 121.101 70.7796 120.701H70.9876C71.7716 122.653 73.1956 124.109 75.2276 124.749C75.3716 124.477 75.6756 124.109 75.8996 123.885C74.9716 123.645 74.1556 123.213 73.4836 122.653C74.1236 122.333 74.8596 121.949 75.4196 121.533L74.7796 120.925ZM89.9636 115.981H85.2916V114.429H89.9636V115.981ZM89.9636 118.397H85.2916V116.829H89.9636V118.397ZM89.9636 120.861H85.2916V119.293H89.9636V120.861ZM84.1876 113.501V121.789H91.0836V113.501H87.7716C87.9156 113.037 88.0756 112.509 88.2196 111.981H91.6436V110.957H83.5796V111.981H86.9076C86.8276 112.477 86.7156 113.021 86.6036 113.501H84.1876ZM82.5556 119.661C83.0036 118.797 83.4836 117.405 83.9156 116.173L83.1796 115.981L83.0036 116.029H81.8356L82.2196 115.533C81.9156 115.213 81.4676 114.845 80.9716 114.493C81.8676 113.645 82.7956 112.493 83.4516 111.421L82.7156 110.909L82.4756 110.989H77.4356V112.045H81.7236C81.2596 112.701 80.6836 113.389 80.1396 113.917C79.5956 113.581 79.0356 113.245 78.5236 112.973L77.8836 113.741C79.0196 114.349 80.3316 115.261 81.1636 116.029H77.0836V117.085H79.7076V123.405C79.7076 123.597 79.6436 123.661 79.4036 123.661C79.1956 123.677 78.4596 123.677 77.6436 123.661C77.8036 123.965 77.9636 124.461 78.0116 124.781C79.1156 124.781 79.8196 124.765 80.2676 124.573C80.7316 124.397 80.8596 124.045 80.8596 123.421V117.085H82.5396C82.2676 117.949 81.9476 118.829 81.6756 119.421L82.5556 119.661ZM85.7716 122.093C85.0836 122.797 83.6436 123.613 82.3956 124.061C82.6196 124.269 83.0036 124.637 83.1796 124.861C84.4596 124.397 85.9316 123.533 86.8116 122.701L85.7716 122.093ZM88.2356 122.765C89.2116 123.373 90.4276 124.269 91.0356 124.861L91.9636 124.173C91.3236 123.581 90.0916 122.717 89.1316 122.157L88.2356 122.765ZM96.7316 110.269C95.8356 112.701 94.3476 115.101 92.7796 116.621C93.0036 116.893 93.3396 117.501 93.4516 117.789C93.9956 117.213 94.5396 116.573 95.0356 115.853V124.797H96.1716V114.125C96.8116 113.005 97.3876 111.805 97.8516 110.621L96.7316 110.269ZM105.564 123.005H99.7236V119.229H105.564V123.005ZM107.74 114.861V113.709H103.196V110.205H101.996V113.709H97.6436V114.861H101.996V118.109H98.5556V124.829H99.7236V124.141H105.564V124.765H106.764V118.109H103.196V114.861H107.74ZM119.42 114.909V115.597H116.876V114.909H119.42ZM119.42 116.893H116.876V116.189H119.42V116.893ZM116.876 118.285V117.501H119.1L118.476 117.933C118.604 118.029 118.732 118.125 118.844 118.237L116.876 118.285ZM113.42 116.893V116.189H115.868V116.893H113.42ZM113.42 114.909H115.868V115.597H113.42V114.909ZM115.868 114.285H112.476V117.501H115.868V118.301C114.348 118.317 112.956 118.333 111.884 118.333L111.932 119.069C113.916 119.037 116.78 118.957 119.548 118.861C119.804 119.117 120.028 119.357 120.188 119.565L120.86 119.069C120.508 118.605 119.772 117.949 119.132 117.501H120.412V114.285H116.876V113.645H120.972V112.893H116.876V112.141H115.868V112.893H111.852V113.645H115.868V114.285ZM113.356 120.893C113.884 121.341 114.476 121.965 114.732 122.413L115.548 121.933C115.276 121.517 114.668 120.893 114.124 120.493L113.356 120.893ZM121.196 119.677H118.908V119.085H117.9V119.677H111.66V120.413H117.9V121.869C117.9 122.029 117.852 122.077 117.66 122.077C117.5 122.093 116.908 122.093 116.268 122.077C116.364 122.269 116.492 122.525 116.54 122.749C117.5 122.749 118.092 122.749 118.444 122.637C118.812 122.525 118.908 122.365 118.908 121.901V120.413H121.196V119.677ZM111.116 123.037V111.885H121.724V123.037H111.116ZM110.012 110.941V124.829H111.116V123.997H121.724V124.749H122.86V110.941H110.012ZM129.548 110.845L129.356 110.893H125.772V124.829H126.828V111.981H128.924C128.588 113.069 128.124 114.509 127.66 115.677C128.796 116.909 129.084 117.981 129.084 118.845C129.084 119.309 129.004 119.741 128.748 119.917C128.636 120.013 128.46 120.061 128.252 120.061C127.996 120.093 127.692 120.077 127.324 120.045C127.516 120.349 127.612 120.797 127.628 121.101C127.98 121.117 128.38 121.101 128.7 121.069C129.02 121.037 129.308 120.941 129.532 120.781C129.964 120.477 130.156 119.789 130.156 118.941C130.156 117.981 129.884 116.829 128.716 115.533C129.26 114.269 129.836 112.621 130.316 111.309L129.548 110.845ZM138.508 114.749C137.788 115.389 136.668 116.221 135.692 116.829C135.356 116.077 134.94 115.357 134.38 114.733C134.652 114.477 134.908 114.221 135.132 113.949H139.596V112.909H136.572C137.084 112.237 137.676 111.389 138.172 110.589L137.036 110.221C136.636 111.021 135.916 112.173 135.324 112.909L133.532 112.893L134.332 112.333C133.948 111.725 133.148 110.909 132.396 110.317L131.516 110.877C132.204 111.453 132.956 112.317 133.356 112.893H130.236V113.949H133.772C132.748 114.941 131.324 115.805 129.98 116.365C130.204 116.573 130.556 117.005 130.684 117.229C131.676 116.749 132.732 116.109 133.644 115.357C133.964 115.773 134.22 116.189 134.444 116.621C133.516 117.469 131.82 118.445 130.588 118.925C130.828 119.149 131.116 119.549 131.26 119.789C132.364 119.245 133.804 118.317 134.812 117.485C134.956 117.917 135.084 118.333 135.164 118.765C134.044 119.981 131.884 121.277 130.076 121.821C130.348 122.029 130.62 122.429 130.78 122.685C132.284 122.093 134.092 121.021 135.324 119.901C135.452 121.469 135.148 122.765 134.668 123.197C134.396 123.485 134.14 123.549 133.74 123.549C133.452 123.549 132.908 123.533 132.412 123.469C132.588 123.789 132.684 124.237 132.7 124.557C133.132 124.589 133.66 124.605 133.964 124.605C134.652 124.589 135.068 124.429 135.532 123.981C136.492 123.165 136.86 120.365 136.012 117.709L136.3 117.533C136.956 119.469 138.06 121.485 139.148 122.621C139.324 122.365 139.692 122.013 139.932 121.837C138.86 120.829 137.724 118.861 137.148 117.021C137.884 116.541 138.636 116.013 139.26 115.517L138.508 114.749ZM145.964 115.005C146.236 114.349 146.556 113.341 146.828 112.509L146.124 112.253C145.98 112.989 145.66 114.109 145.436 114.797L145.964 115.005ZM142.876 112.461C143.148 113.229 143.356 114.237 143.388 114.893L144.012 114.717C143.964 114.077 143.756 113.069 143.484 112.301L142.876 112.461ZM142.652 111.677H144.38V115.517H142.652V111.677ZM147.036 115.517H145.196V111.677H147.036V115.517ZM148.316 119.677H145.324V118.429H148.108V117.469H145.324V116.381H147.996V110.813H141.708V116.381H144.252V117.469H141.596V118.429H144.252V119.677H141.308V120.637H148.316V119.677ZM141.884 124.637C142.364 123.869 142.684 122.605 142.876 121.613L142.044 121.309C141.868 122.285 141.516 123.517 141.02 124.253L141.884 124.637ZM143.468 121.613C143.628 122.509 143.724 123.645 143.676 124.397L144.524 124.301C144.54 123.549 144.444 122.413 144.252 121.533L143.468 121.613ZM145.1 121.613C145.436 122.429 145.708 123.501 145.788 124.205L146.588 124.029C146.492 123.341 146.188 122.269 145.852 121.469L145.1 121.613ZM146.732 121.581C147.164 122.365 147.596 123.421 147.74 124.109L148.556 123.789C148.396 123.117 147.948 122.077 147.484 121.309L146.732 121.581ZM153.996 122.973H149.964V118.861H153.996V122.973ZM155.756 114.813V113.693H152.348V110.237H151.18V117.757H148.876V124.813H149.964V124.061H153.996V124.749H155.132V117.757H152.348V114.813H155.756ZM36.4756 153.693C35.9636 153.421 35.2756 153.085 34.5396 152.765C35.2756 152.125 35.6116 151.437 35.7396 150.781H37.4356V149.917H35.8356V149.821V149.277H34.8596V149.805V149.917H32.8436C33.0196 149.565 33.1956 149.229 33.3556 148.893H36.9716V147.405C37.2116 147.613 37.5476 147.901 37.6916 148.061C38.0116 147.549 38.2996 146.957 38.5716 146.285C38.8756 147.837 39.2436 149.261 39.7556 150.509C39.0036 151.885 37.9156 152.925 36.4436 153.725L36.4756 153.693ZM34.7316 150.781C34.5716 151.293 34.2356 151.853 33.5316 152.365C32.9396 152.125 32.3316 151.917 31.7556 151.741C31.9476 151.437 32.1396 151.117 32.3476 150.781H34.7316ZM30.9236 147.069H32.9076V148.125H30.9236V147.069ZM35.9156 147.069V148.125H33.8516V147.069H35.9156ZM41.4516 144.429C41.2436 146.333 40.8916 147.933 40.3476 149.309C39.8036 147.917 39.4356 146.333 39.1796 144.621L39.2596 144.429H41.4516ZM31.2116 144.781V143.757H32.9076V144.781H31.2116ZM32.9076 142.077V142.957H31.2116V142.077H32.9076ZM35.6756 142.077V142.957H33.8516V142.077H35.6756ZM33.8516 144.781V143.757H35.6756V144.781H33.8516ZM43.7236 144.429V143.357H39.5796C39.8356 142.397 40.0756 141.389 40.2676 140.413L39.2276 140.205C38.7796 142.813 38.0276 145.421 36.9716 147.165V146.317H33.8516V145.613H36.6516V143.805H37.5636V142.909H36.6516V141.245H33.8516V140.205H32.9076V141.245H30.2836V142.909H29.1796V143.805H30.2836V145.613H32.9076V146.317H29.8996V148.893H32.2676C32.1076 149.229 31.9476 149.565 31.7556 149.917H29.1956V150.781H31.2596C30.9236 151.293 30.5876 151.805 30.2836 152.189C31.0196 152.381 31.8036 152.653 32.5556 152.941C31.7236 153.341 30.5876 153.709 29.0676 154.013C29.2596 154.221 29.4996 154.573 29.5796 154.813C31.4356 154.413 32.7476 153.933 33.6596 153.405C34.4596 153.725 35.1796 154.093 35.7076 154.397L36.0916 154.045C36.2836 154.285 36.5396 154.637 36.6356 154.845C38.2196 154.013 39.4036 152.957 40.2836 151.613C41.0036 152.941 41.9156 154.029 43.0836 154.749C43.2596 154.445 43.6116 154.045 43.8516 153.837C42.5876 153.149 41.6116 151.997 40.8916 150.557C41.7076 148.909 42.2196 146.893 42.5076 144.429H43.7236ZM52.3316 146.013V149.661H48.1556V146.013H52.3316ZM53.4996 150.797V144.861H47.0036V152.077H48.1556V150.797H53.4996ZM59.5316 141.341H45.3716V142.525H56.3476V153.101C56.3476 153.437 56.2356 153.549 55.8836 153.565C55.5156 153.581 54.2036 153.597 52.9236 153.533C53.1156 153.869 53.3556 154.461 53.4356 154.797C55.0036 154.797 56.1076 154.797 56.7476 154.573C57.3556 154.397 57.5636 153.965 57.5636 153.117V142.525H59.5316V141.341ZM69.8676 146.013C69.4196 144.925 68.3956 143.357 67.3396 142.189L66.2836 142.717C67.2916 143.885 68.3156 145.517 68.7476 146.621L69.8676 146.013ZM67.5956 149.117C66.5396 149.565 65.4676 150.029 64.4436 150.461L64.2036 141.021L62.9876 141.069L63.2596 150.957C62.4276 151.309 61.6756 151.613 61.0516 151.853L61.4836 153.085C63.2436 152.317 65.6596 151.261 67.8676 150.253L67.5956 149.117ZM75.8996 153.853C75.0836 152.669 73.3876 150.893 71.9636 149.453C73.0836 147.309 73.6916 144.589 74.0756 141.165L72.7796 141.037C72.0756 147.949 70.3796 151.821 64.8916 153.837C65.1796 154.077 65.6756 154.621 65.8356 154.861C68.3316 153.821 70.0756 152.429 71.3236 150.541C72.6836 151.981 74.1716 153.661 74.9076 154.765L75.8996 153.853ZM80.1076 148.637V147.021H83.9156V147.661C83.9156 147.981 83.9156 148.317 83.8836 148.637H80.1076ZM80.1076 144.477H83.9156V146.077H80.1076V144.477ZM89.1636 144.477V146.077H85.1316V144.477H89.1636ZM89.1636 148.637H85.0996C85.1156 148.333 85.1316 147.997 85.1316 147.677V147.021H89.1636V148.637ZM90.3316 149.629V143.485H85.1316V142.141H91.3396V141.069H77.5156V142.141H83.9156V143.485H78.9716V149.629H83.7236C83.5316 150.397 83.1636 151.117 82.4276 151.741C81.6756 151.245 81.0356 150.589 80.4916 149.757L79.4996 150.157C80.0436 151.085 80.6996 151.821 81.4676 152.413C80.4916 152.973 79.1316 153.421 77.2276 153.789C77.4836 154.061 77.8036 154.557 77.9316 154.829C80.0116 154.397 81.4996 153.805 82.5716 153.101C84.7476 154.253 87.6596 154.605 91.3556 154.765C91.4196 154.381 91.6436 153.885 91.8516 153.597C88.2996 153.501 85.5476 153.261 83.5316 152.349C84.3316 151.533 84.7636 150.621 84.9556 149.629H90.3316ZM97.9476 141.277C97.7236 142.285 97.2276 143.789 96.8596 144.685L97.6276 144.957C98.0436 144.125 98.5396 142.733 98.9556 141.629L97.9476 141.277ZM95.0356 144.621C94.8756 143.725 94.4916 142.349 94.1396 141.277L93.2596 141.485C93.5956 142.541 93.9636 143.949 94.1236 144.861L95.0356 144.621ZM94.5556 147.597C94.2676 149.021 93.5636 150.797 92.9076 151.725C93.0996 152.029 93.3716 152.541 93.4836 152.893C94.3156 151.773 95.0036 149.581 95.3396 147.853L94.5556 147.597ZM98.5556 146.669V145.549H96.5876V140.221H95.5156V145.549H93.1796V146.669H95.5156V154.829H96.5876V146.669H98.5556ZM96.7796 148.061C97.0996 148.685 97.9476 150.589 98.2196 151.373L99.0356 150.493C98.8116 150.013 97.7236 148.029 97.4356 147.613L96.7796 148.061ZM100.844 151.373C100.876 150.957 100.892 150.557 100.892 150.189H105.692V151.373H100.844ZM105.692 148.157V149.341H100.892V148.157H105.692ZM106.812 147.213H99.8036V150.157C99.8036 151.421 99.6916 153.037 98.7476 154.237C98.9876 154.365 99.4036 154.797 99.5796 155.021C100.236 154.237 100.556 153.229 100.732 152.221H105.692V153.581C105.692 153.757 105.644 153.821 105.436 153.821C105.244 153.837 104.588 153.837 103.868 153.805C104.012 154.093 104.156 154.493 104.204 154.797C105.212 154.797 105.868 154.797 106.268 154.621C106.7 154.445 106.812 154.157 106.812 153.581V147.213ZM103.804 145.357V144.269H107.292V143.405H103.804V142.429H107.58V141.517H103.804V140.221H102.636V141.517H99.0356V142.429H102.636V143.405H99.4356V144.269H102.636V145.357H98.8596V146.269H107.74V145.357H103.804ZM118.22 144.045H115.324V142.861H118.22V144.045ZM118.22 146.029H115.324V144.845H118.22V146.029ZM118.22 148.077H115.324V146.845H118.22V148.077ZM114.172 149.741H115.324V149.053H123.132V148.077H119.34V146.845H122.412V146.029H119.34V144.845H122.364V144.045H119.34V142.861H122.892V141.933H119.66C119.468 141.453 119.148 140.797 118.844 140.285L117.708 140.605C117.932 141.005 118.172 141.501 118.348 141.933H115.756C116.044 141.453 116.316 140.957 116.556 140.461L115.436 140.125C114.732 141.709 113.564 143.261 112.284 144.269C112.572 144.445 113.02 144.813 113.244 145.021C113.564 144.749 113.852 144.429 114.172 144.077V149.741ZM110.396 149.789C111.356 148.765 112.428 147.517 113.324 146.397L112.684 145.613C111.66 146.813 110.412 148.109 109.564 148.877L110.396 149.789ZM113.484 141.517C112.908 141.117 111.788 140.605 110.908 140.301L110.316 141.117C111.196 141.469 112.284 142.029 112.86 142.429L113.484 141.517ZM112.252 144.125C111.676 143.757 110.556 143.277 109.724 143.005L109.116 143.821C109.98 144.141 111.1 144.669 111.644 145.037L112.252 144.125ZM123.596 150.621H116.988V149.469H115.788V150.621H109.324V151.709H115.788V154.845H116.988V151.709H123.596V150.621ZM132.476 145.101C131.148 145.101 130.044 146.189 130.044 147.533C130.044 148.877 131.148 149.965 132.476 149.965C133.82 149.965 134.908 148.877 134.908 147.533C134.908 146.189 133.82 145.101 132.476 145.101ZM132.476 149.149C131.596 149.149 130.86 148.429 130.86 147.533C130.86 146.637 131.596 145.917 132.476 145.917C133.372 145.917 134.092 146.637 134.092 147.533C134.092 148.429 133.372 149.149 132.476 149.149Z" fill="black"/>
<path d="M15.8246 37.604C14.9366 37.604 14.1566 37.532 13.4846 37.388C12.8126 37.244 12.2246 36.896 11.7206 36.344C11.2406 35.792 11.0006 34.94 11.0006 33.788C11.0006 32.18 11.4806 30.02 12.4406 27.308C13.4246 24.596 14.7086 21.872 16.2926 19.136C15.0926 19.208 14.1446 19.388 13.4486 19.676C12.7526 19.964 12.2966 20.408 12.0806 21.008C12.1766 21.008 12.2726 21.128 12.3686 21.368C12.4886 21.608 12.5486 21.86 12.5486 22.124C12.5486 22.556 12.3566 22.904 11.9726 23.168C11.5886 23.408 11.1086 23.528 10.5326 23.528C9.86056 23.528 9.32056 23.348 8.91256 22.988C8.50456 22.628 8.30056 22.112 8.30056 21.44C8.30056 20.624 8.61256 19.88 9.23656 19.208C9.88456 18.536 10.7726 18.008 11.9006 17.624C13.0286 17.216 14.2766 17.012 15.6446 17.012C16.1486 17.012 16.7726 17.048 17.5166 17.12C19.4846 14 21.5606 11.456 23.7446 9.488C25.9526 7.496 28.0526 6.5 30.0446 6.5C31.1966 6.5 32.1446 6.668 32.8886 7.004L27.2366 33.5H22.0526L24.8246 20.432C23.9366 20.024 23.1206 19.724 22.3766 19.532C21.6326 19.34 20.8406 19.208 20.0006 19.136C18.6326 22.088 17.5046 25.112 16.6166 28.208C15.7526 31.28 15.3206 33.74 15.3206 35.588C15.3206 36.5 15.4886 37.172 15.8246 37.604ZM27.2366 9.056C26.2046 9.608 25.1246 10.64 23.9966 12.152C22.8926 13.64 21.8126 15.452 20.7566 17.588C22.4846 17.924 23.9486 18.344 25.1486 18.848L27.2366 9.056Z" fill="black"/>
<path d="M153.656 194.527C154.544 194.527 155.324 194.599 155.996 194.743C156.668 194.887 157.256 195.235 157.76 195.787C158.24 196.339 158.48 197.191 158.48 198.343C158.48 199.951 158 202.111 157.04 204.823C156.056 207.535 154.772 210.259 153.188 212.995C154.388 212.923 155.336 212.743 156.032 212.455C156.728 212.167 157.184 211.723 157.4 211.123C157.304 211.123 157.208 211.003 157.112 210.763C156.992 210.523 156.932 210.271 156.932 210.007C156.932 209.575 157.124 209.227 157.508 208.963C157.892 208.723 158.372 208.603 158.948 208.603C159.62 208.603 160.16 208.783 160.568 209.143C160.976 209.503 161.18 210.019 161.18 210.691C161.18 211.507 160.868 212.251 160.244 212.923C159.596 213.595 158.708 214.123 157.58 214.507C156.452 214.915 155.204 215.119 153.836 215.119C153.332 215.119 152.708 215.083 151.964 215.011C149.996 218.131 147.92 220.675 145.736 222.643C143.528 224.635 141.428 225.631 139.436 225.631C138.284 225.631 137.336 225.463 136.592 225.127L142.244 198.631L147.428 198.631L144.656 211.699C145.544 212.107 146.36 212.407 147.104 212.599C147.848 212.791 148.64 212.923 149.48 212.995C150.848 210.043 151.976 207.019 152.864 203.923C153.728 200.851 154.16 198.391 154.16 196.543C154.16 195.631 153.992 194.959 153.656 194.527ZM142.244 223.075C143.276 222.523 144.356 221.491 145.484 219.979C146.588 218.491 147.668 216.679 148.724 214.543C146.996 214.207 145.532 213.787 144.332 213.283L142.244 223.075Z" fill="black"/>
</svg>
