<svg width="98" height="92" viewBox="0 0 98 92" fill="none" xmlns="http://www.w3.org/2000/svg">
<g clip-path="url(#clip0_715_290)">
<g style="mix-blend-mode:multiply">
<path d="M49 92C76.062 92 98 87.7433 98 82.4923C98 77.2414 76.062 72.9846 49 72.9846C21.938 72.9846 0 77.2414 0 82.4923C0 87.7433 21.938 92 49 92Z" fill="url(#paint0_radial_715_290)"/>
</g>
<path d="M53.1002 81.8361C50.1526 83.3235 45.5269 83.0027 42.8128 81.1362L28.1624 71.0598C25.4483 69.1932 22.4278 65.0956 21.4501 61.9458L9.48466 23.2588C8.50699 20.1091 10.2434 16.5801 13.3224 15.4135L50.7363 1.22492C53.8152 0.0583372 58.9808 -0.335386 62.2056 0.349984L79.8911 4.12681C83.116 4.81218 86.2824 8.0203 86.9391 11.2576L95.563 53.9984C96.2196 57.2211 94.3372 61.0854 91.3897 62.5728L53.1002 81.8361Z" fill="#E51041"/>
<path d="M53.1002 81.8361C50.1526 83.3235 47.1029 81.909 46.3295 78.7155L35.225 33.2186C34.4516 30.0105 36.3048 26.3795 39.3545 25.1254L80.3581 8.28277C83.4078 7.02869 86.4284 8.64733 87.085 11.8846L95.563 54.013C96.2196 57.2503 94.3372 61.1 91.3896 62.5874L53.1002 81.8361Z" fill="url(#paint1_linear_715_290)"/>
<path d="M44.7535 77.826C45.6582 80.9903 44.1698 82.0548 41.4557 80.1883L28.1623 71.0597C25.4482 69.1932 22.4277 65.0956 21.45 61.9458L9.68884 23.9004C8.71117 20.7507 10.4038 19.2341 13.439 20.5028L25.0105 25.3878C28.0456 26.6711 31.2704 30.3167 32.1751 33.481L44.7535 77.826Z" fill="url(#paint2_linear_715_290)"/>
<path d="M36.3192 23.0838C33.2402 24.2796 28.206 24.3088 25.1125 23.1568L14.5041 19.1904C11.4106 18.0384 11.4106 16.1427 14.4895 14.9615L50.7507 1.21034C53.8296 0.0437498 58.9952 -0.349973 62.22 0.335397L77.4541 3.58726C80.6789 4.27263 80.7956 5.81836 77.7313 7.01411L36.3192 23.0838Z" fill="url(#paint3_linear_715_290)"/>
<g opacity="0.5">
<path d="M52.0059 82.259C52.3707 82.1569 52.7355 82.0257 53.1149 81.8361C52.7355 82.0257 52.3707 82.1569 52.0059 82.259Z" fill="white"/>
<path d="M86.7349 10.7326C86.8808 11.0826 86.9975 11.4617 87.0851 11.87C87.0121 11.4617 86.8954 11.0826 86.7349 10.7326Z" fill="white"/>
</g>
<g opacity="0.5">
<path d="M9.689 23.9005C9.3242 22.7047 9.3242 21.7714 9.64523 21.1298C9.33879 21.8006 9.3242 22.7339 9.689 23.9005Z" fill="#D11242"/>
<path d="M41.4561 80.2029C42.638 81.0195 43.5865 81.2674 44.1994 81.0487C43.5865 81.2674 42.638 81.0195 41.4561 80.2029Z" fill="#D11242"/>
</g>
<g opacity="0.3">
<path d="M81.4966 7.9328C81.1172 8.00571 80.7378 8.10779 80.3584 8.26819C80.7524 8.10779 81.1318 7.99113 81.4966 7.9328Z" fill="white"/>
<path d="M46.7236 79.8237C46.5631 79.4884 46.4317 79.1092 46.3296 78.7155C46.4317 79.1092 46.5631 79.4884 46.7236 79.8237Z" fill="white"/>
</g>
<path d="M65.3429 63.477C66.0871 60.3709 64.4237 57.4982 61.6366 57.0607C58.8349 56.6233 55.9603 58.796 55.2161 61.8875C54.4719 64.9935 56.1354 67.8663 58.9371 68.2891C61.7241 68.7412 64.5988 66.5684 65.3429 63.477Z" fill="white"/>
<path d="M58.3244 36.9371C59.0686 33.8311 57.4051 30.9583 54.618 30.5209C51.8164 30.0834 48.9417 32.2562 48.1975 35.3476C47.4533 38.4537 49.1168 41.3264 51.9185 41.7493C54.7056 42.2013 57.5802 40.0431 58.3244 36.9371Z" fill="white"/>
<path d="M84.1959 55.7191C85.1006 52.6568 83.5831 49.7112 80.8106 49.1279C78.0381 48.5592 75.0613 50.5716 74.1566 53.6338C73.2519 56.6961 74.7695 59.6418 77.542 60.2251C80.3144 60.7938 83.3058 58.7814 84.1959 55.7191Z" fill="white"/>
<path d="M78.8116 28.5668C79.7163 25.5045 78.1988 22.5589 75.4263 21.9756C72.6538 21.3923 69.677 23.4192 68.7723 26.4815C67.8676 29.5438 69.3852 32.4895 72.1577 33.0728C74.9302 33.6415 77.9069 31.6291 78.8116 28.5668Z" fill="white"/>
<path d="M28.9504 49.58C27.6225 46.5323 25.7547 44.4032 24.7917 44.8407C23.814 45.2782 24.1058 48.1072 25.4337 51.1549C26.7616 54.2026 28.6294 56.3316 29.5924 55.8941C30.5701 55.4712 30.2783 52.6423 28.9504 49.58Z" fill="white"/>
<path d="M62.512 5.77462C59.4185 6.64956 57.186 8.0203 57.5362 8.8515C57.8718 9.66811 60.6443 9.62436 63.7378 8.74942C66.8313 7.87448 69.0639 6.50374 68.7137 5.67255C68.378 4.85593 65.6056 4.89968 62.512 5.77462Z" fill="white"/>
<path d="M43.3822 9.47855C40.2887 10.3535 38.0561 11.7242 38.4063 12.5554C38.7419 13.372 41.5144 13.3283 44.6079 12.4533C47.7014 11.5784 49.934 10.2077 49.5838 9.37647C49.2482 8.55986 46.4757 8.61819 43.3822 9.47855Z" fill="white"/>
<path d="M25.8133 13.4449C22.7198 14.3199 20.4872 15.6906 20.8374 16.5218C21.1731 17.3384 23.9455 17.2947 27.039 16.4197C30.1326 15.5448 32.3651 14.1741 32.0149 13.3429C31.6793 12.5263 28.8922 12.57 25.8133 13.4449Z" fill="white"/>
</g>
<defs>
<radialGradient id="paint0_radial_715_290" cx="0" cy="0" r="1" gradientUnits="userSpaceOnUse" gradientTransform="translate(49.0018 82.4951) scale(49.0044 9.50674)">
<stop stop-color="#231F20"/>
<stop offset="0.149" stop-color="#595657"/>
<stop offset="0.3058" stop-color="#8B898A"/>
<stop offset="0.4607" stop-color="#B5B4B4"/>
<stop offset="0.6103" stop-color="#D5D4D5"/>
<stop offset="0.753" stop-color="#ECECEC"/>
<stop offset="0.8861" stop-color="#FAFAFA"/>
<stop offset="1" stop-color="white"/>
</radialGradient>
<linearGradient id="paint1_linear_715_290" x1="49.4577" y1="17.52" x2="82.2314" y2="70.1913" gradientUnits="userSpaceOnUse">
<stop stop-color="#FF5279"/>
<stop offset="1" stop-color="#E51041"/>
</linearGradient>
<linearGradient id="paint2_linear_715_290" x1="9.41422" y1="50.5891" x2="45.0182" y2="50.5891" gradientUnits="userSpaceOnUse">
<stop offset="0.00140056" stop-color="#E51041"/>
<stop offset="0.0182" stop-color="#990B2C"/>
<stop offset="1" stop-color="#E51041"/>
</linearGradient>
<linearGradient id="paint3_linear_715_290" x1="42.0769" y1="2.15177" x2="54.5567" y2="30.4899" gradientUnits="userSpaceOnUse">
<stop offset="0.00140056" stop-color="#E51041"/>
<stop offset="0.0182" stop-color="#990B2C"/>
<stop offset="1" stop-color="#E51041"/>
</linearGradient>
<clipPath id="clip0_715_290">
<rect width="98" height="92" fill="white"/>
</clipPath>
</defs>
</svg>
