<svg width="169" height="236" viewBox="0 0 169 236" fill="none" xmlns="http://www.w3.org/2000/svg">
<path d="M161.958 235.746H6.11392C2.80475 235.746 0.121094 233.055 0.121094 229.736V6.13088C0.121094 2.81252 2.80475 0.121399 6.11392 0.121399H161.968C165.277 0.121399 167.96 2.81252 167.96 6.13088V229.736C167.95 233.055 165.267 235.746 161.958 235.746Z" fill="white"/>
<path d="M29.703 48.4734C27.2894 45.8268 24.4698 43.2482 23.2968 41.891C22.4171 40.8731 21.7854 40.104 21.5373 39.7873V39.629C21.5373 39.629 21.5148 39.6516 21.4697 39.7195C21.4245 39.6742 21.402 39.629 21.402 39.629V39.7873C21.1539 40.104 20.5222 40.8731 19.6425 41.891C18.4695 43.2482 15.6499 45.8268 13.2363 48.4734C10.8227 51.1199 10.6197 53.7664 11.0708 55.9606C11.5219 58.1547 13.8228 60.2131 17.4094 59.7607C18.5372 59.625 19.3718 59.0821 19.9583 58.4035C19.5523 61.5024 17.8831 63.131 17.8831 63.131H24.8532C23.59 61.706 23.1389 59.6928 22.9584 58.4261C23.5675 59.1047 24.3795 59.625 25.5074 59.7607C29.094 60.2131 31.3948 58.1547 31.8459 55.9606C32.3196 53.7664 32.1166 51.1199 29.703 48.4734Z" fill="black"/>
<path d="M139.777 183.658C142.191 186.304 145.011 188.883 146.184 190.24C147.063 191.258 147.695 192.027 147.943 192.344L147.943 192.502C147.943 192.502 147.966 192.479 148.011 192.412C148.056 192.457 148.078 192.502 148.078 192.502L148.078 192.344C148.327 192.027 148.958 191.258 149.838 190.24C151.011 188.883 153.831 186.304 156.244 183.658C158.658 181.011 158.861 178.365 158.41 176.17C157.959 173.976 155.658 171.918 152.071 172.37C150.943 172.506 150.109 173.049 149.522 173.728C149.928 170.629 151.597 169 151.597 169L144.627 169C145.89 170.425 146.342 172.438 146.522 173.705C145.913 173.026 145.101 172.506 143.973 172.37C140.387 171.918 138.086 173.976 137.635 176.17C137.161 178.365 137.364 181.011 139.777 183.658Z" fill="black"/>
<path d="M27.5156 100.109H22.5236L23.3876 99.7246C23.1316 99.2606 22.5716 98.5406 22.1396 98.0446L21.0356 98.4766C21.4676 98.9566 21.9156 99.6446 22.1876 100.109H17.4516V101.037H27.5156V100.109ZM18.7156 105.165H26.1556V104.269H18.7156V105.165ZM26.1556 102.157H18.7156V103.069H26.1556V102.157ZM19.6756 107.261H25.0676V109.245H19.6756V107.261ZM18.5396 110.157H26.2356V106.349H18.5396V110.157ZM16.7316 100.669C16.2996 100.029 15.4196 99.0046 14.6996 98.2366L13.8196 98.7806C14.5236 99.5646 15.4036 100.653 15.8196 101.309L16.7316 100.669ZM16.7636 105.805L16.5716 105.837H14.7476C15.6596 104.765 16.8596 103.117 17.5316 102.189L16.7476 101.821L16.5556 101.901H13.2436V102.877H15.8036C15.0996 103.853 14.1716 105.117 13.7876 105.485C13.4996 105.789 13.2596 105.885 13.0196 105.949C13.1476 106.205 13.3876 106.749 13.4516 107.037C13.5636 106.909 13.9956 106.813 14.3956 106.813H16.1396C15.6276 109.309 14.4596 111.069 12.9396 112.045C13.1636 112.205 13.5476 112.621 13.7236 112.861C14.5396 112.301 15.2436 111.533 15.8356 110.525C17.0996 112.253 19.0836 112.589 22.2836 112.589C24.0116 112.589 26.0116 112.541 27.4996 112.461C27.5636 112.125 27.7236 111.581 27.8996 111.325C26.2676 111.453 23.9476 111.533 22.2836 111.533C19.3716 111.533 17.3716 111.293 16.3156 109.629C16.7796 108.621 17.1476 107.421 17.3556 106.029L16.7636 105.805ZM41.7876 102.109C41.4676 103.213 40.9876 104.413 40.6036 105.165C40.8916 105.293 41.3396 105.533 41.5956 105.677C42.1556 104.573 42.8596 102.893 43.2756 101.341L42.3956 100.877L42.1716 100.941H36.3796C36.6196 100.141 36.8436 99.3086 37.0036 98.4606L35.7236 98.2206C35.2436 100.749 34.3636 103.245 33.1476 104.797C33.4676 104.941 34.0596 105.261 34.3156 105.469C34.9556 104.557 35.4996 103.405 35.9956 102.109H41.7876ZM33.8196 100.717H29.6276V101.869H33.8196V100.717ZM34.2996 107.277H29.2756V108.445H34.2996V107.277ZM38.5556 102.781H37.3076V103.997C37.3076 106.285 36.9556 109.613 32.3636 111.933C32.6356 112.141 33.0676 112.589 33.2596 112.861C36.3156 111.261 37.6276 109.213 38.1876 107.261C39.0996 109.837 40.5876 111.741 42.9876 112.717C43.1636 112.381 43.5316 111.917 43.7716 111.677C40.8596 110.669 39.2756 108.109 38.5396 104.733C38.5556 104.509 38.5556 104.269 38.5556 104.029V102.781ZM59.1156 101.293C58.6036 100.541 57.4836 99.4206 56.5716 98.6366L55.6596 99.2606C56.5876 100.077 57.6756 101.229 58.1556 101.981L59.1156 101.293ZM57.6916 104.781C57.1476 105.805 56.4436 106.781 55.5956 107.693C55.3236 106.637 55.0996 105.405 54.9396 104.045H59.5156V102.909H54.8116C54.6836 101.485 54.6196 99.9486 54.6196 98.3486H53.4036C53.4196 99.9166 53.4836 101.453 53.6276 102.909H49.9636V100.125C50.9396 99.9166 51.8676 99.6606 52.6356 99.3886L51.7876 98.4126C50.2836 98.9726 47.7076 99.5166 45.4676 99.8526C45.6276 100.141 45.7876 100.557 45.8516 100.845C46.7956 100.717 47.8036 100.557 48.7956 100.365V102.909H45.3716V104.045H48.7956V106.845C47.4036 107.133 46.1076 107.405 45.1476 107.565L45.4836 108.765C46.4436 108.557 47.5956 108.285 48.7956 108.029V111.277C48.7956 111.565 48.6996 111.645 48.4116 111.645C48.1396 111.661 47.1956 111.677 46.1716 111.629C46.3476 111.965 46.5556 112.509 46.6196 112.829C47.9156 112.829 48.7796 112.797 49.2756 112.605C49.7716 112.413 49.9636 112.061 49.9636 111.293V107.741C50.9396 107.517 51.9316 107.293 52.9076 107.053L52.8276 105.981C51.8836 106.189 50.9076 106.397 49.9636 106.605V104.045H53.7236C53.9316 105.773 54.2356 107.357 54.6196 108.685C53.4836 109.741 52.1716 110.621 50.8276 111.277C51.1316 111.533 51.4676 111.933 51.6436 112.221C52.8436 111.597 53.9796 110.797 55.0196 109.869C55.7556 111.741 56.7156 112.861 57.9796 112.861C59.1796 112.861 59.5956 112.093 59.8196 109.453C59.4836 109.341 59.0676 109.069 58.8116 108.813C58.7156 110.861 58.5236 111.677 58.0916 111.677C57.2916 111.677 56.5716 110.653 55.9636 108.973C57.0836 107.837 58.0276 106.573 58.7476 105.213L57.6916 104.781ZM64.2996 107.101H72.6996V107.837H64.2996V107.101ZM64.2996 105.661H72.6996V106.381H64.2996V105.661ZM74.6676 109.325H69.0036V108.557H73.7876V104.941H68.8276C68.9876 104.685 69.1476 104.381 69.3236 104.077L68.5076 103.885L68.5236 103.213L65.5316 103.453V102.653H68.1716V101.965H65.5316V101.213H68.4596V100.509H65.5316V99.7566H67.9796V99.0686H65.5316V98.2206H64.4116V99.0686H62.0756V99.7566H64.4116V100.509H61.4996V101.213H64.4116V101.965H61.8356V102.653H64.4116V103.533C63.2756 103.629 62.2356 103.709 61.4036 103.757L61.4996 104.573C63.2436 104.413 65.7236 104.189 68.1556 103.965C68.0596 104.253 67.8996 104.637 67.7556 104.941H63.2436V108.557H67.8356V109.325H62.5076V112.557H63.6436V110.221H67.8356V112.813H69.0036V110.221H73.5156V111.405C73.5156 111.597 73.4516 111.645 73.2116 111.661C72.9716 111.677 72.2036 111.677 71.2756 111.645C71.4356 111.901 71.5956 112.237 71.6756 112.541C72.8276 112.541 73.5956 112.541 74.0756 112.397C74.5396 112.237 74.6676 111.965 74.6676 111.421V109.325ZM71.6276 102.685C71.3396 102.141 70.6836 101.373 70.1076 100.829L69.3076 101.261C69.8996 101.821 70.5236 102.637 70.7956 103.181L71.6276 102.685ZM73.8196 99.6446V98.2366H72.7316V99.6446H68.5716V100.557H72.7316V103.341C72.7316 103.517 72.6676 103.581 72.4596 103.581C72.2516 103.597 71.5956 103.597 70.8596 103.581C71.0196 103.837 71.1796 104.189 71.2596 104.461C72.2516 104.461 72.8756 104.461 73.2916 104.301C73.6916 104.141 73.8196 103.917 73.8196 103.357V100.557H75.5476V99.6446H73.8196ZM89.7396 99.3726L89.4516 99.4526H78.0276V100.621H88.3156C87.1156 101.757 85.4036 103.005 83.8676 103.757V111.261C83.8676 111.549 83.7716 111.629 83.4356 111.645C83.0676 111.661 81.8356 111.677 80.5076 111.629C80.6996 111.949 80.9236 112.477 80.9876 112.813C82.6036 112.813 83.6596 112.797 84.2676 112.605C84.8916 112.429 85.0996 112.077 85.0996 111.261V104.349C87.0836 103.261 89.2596 101.597 90.6676 100.061L89.7396 99.3726ZM96.5076 98.2686C95.8196 99.4046 94.4116 100.717 93.1636 101.533C93.3716 101.757 93.6596 102.237 93.8036 102.493C95.1956 101.565 96.7156 100.077 97.6436 98.6846L96.5076 98.2686ZM96.7956 101.757C95.8836 103.405 94.3636 105.053 92.9396 106.109C93.1476 106.381 93.4676 107.005 93.5796 107.261C94.1876 106.781 94.7956 106.205 95.3716 105.549V112.829H96.5236V104.189C97.0196 103.533 97.4836 102.861 97.8516 102.189L96.7956 101.757ZM99.9956 102.877H105.164V104.861H99.9956V102.877ZM105.164 99.9646V101.885H99.9956V99.9646H105.164ZM106.364 106.413C105.708 107.037 104.604 107.837 103.74 108.397C103.276 107.645 102.892 106.813 102.604 105.901H106.316V98.9086H98.8436V110.733C98.8436 111.389 98.4916 111.725 98.2516 111.853C98.4436 112.077 98.6996 112.557 98.7956 112.829C99.0996 112.621 99.5796 112.461 102.876 111.565C102.828 111.309 102.812 110.829 102.812 110.477L99.9956 111.165V105.901H101.564C102.492 109.149 104.172 111.581 106.988 112.717C107.164 112.397 107.516 111.933 107.788 111.693C106.348 111.181 105.196 110.333 104.3 109.213C105.196 108.669 106.316 107.933 107.164 107.245L106.364 106.413ZM119.308 100.557C118.604 101.485 117.644 102.317 116.556 103.037C115.9 102.461 114.764 101.773 113.724 101.245C114.076 101.021 114.412 100.797 114.732 100.557H119.308ZM120.268 99.4846L120.06 99.5486H115.964C116.348 99.1966 116.7 98.8446 117.02 98.4766L115.692 98.1886C114.588 99.5166 112.508 101.021 109.644 102.029C109.9 102.221 110.284 102.621 110.46 102.909C111.276 102.573 112.028 102.221 112.732 101.837C113.724 102.349 114.844 103.053 115.532 103.645C113.676 104.669 111.516 105.405 109.516 105.773C109.74 106.029 109.98 106.493 110.092 106.813C114.284 105.901 118.972 103.661 121.02 99.9646L120.268 99.4846ZM121.724 106.125C121.02 107.341 119.996 108.333 118.78 109.133C118.06 108.477 116.828 107.645 115.724 107.037C116.22 106.733 116.7 106.445 117.132 106.125H121.724ZM122.604 105.053L122.38 105.101H118.412C118.844 104.717 119.228 104.317 119.58 103.917L118.268 103.613C117.02 105.133 114.604 106.781 111.26 107.837C111.5 108.045 111.836 108.477 111.98 108.733C112.94 108.397 113.836 108.013 114.652 107.613C115.756 108.205 116.972 109.069 117.724 109.757C115.676 110.829 113.212 111.469 110.716 111.773C110.908 112.029 111.148 112.541 111.244 112.845C116.412 112.093 121.372 110.109 123.372 105.485L122.604 105.053ZM131.756 98.2686C131.708 100.701 131.804 108.477 125.164 111.837C125.532 112.077 125.916 112.445 126.124 112.765C130.028 110.685 131.724 107.101 132.46 103.901C133.228 106.877 134.94 110.829 138.94 112.701C139.116 112.365 139.468 111.965 139.804 111.693C134.156 109.181 133.196 102.493 132.956 100.589C133.036 99.6446 133.052 98.8446 133.068 98.2686H131.756ZM148.828 100.173C148.524 99.6446 147.804 98.8926 147.18 98.3646L146.348 98.8926C146.988 99.4366 147.676 100.221 147.964 100.749L148.828 100.173ZM148.988 108.669C148.364 107.981 147.148 106.973 146.124 106.221C146.972 105.437 147.98 104.301 148.732 103.309L147.708 102.861C147.244 103.549 146.524 104.445 145.836 105.181V102.077H149.02V100.973H145.836V98.2206H144.668V100.973H141.26V102.077H144.668V106.509C143.356 107.581 141.98 108.637 141.084 109.293L141.66 110.237C142.556 109.549 143.612 108.685 144.668 107.821V111.373C144.668 111.613 144.588 111.693 144.332 111.693C144.124 111.709 143.388 111.709 142.572 111.693C142.716 111.981 142.892 112.445 142.94 112.733C144.108 112.749 144.796 112.717 145.228 112.541C145.66 112.349 145.836 112.061 145.836 111.373V107.309C146.732 108.045 147.66 108.861 148.156 109.453L148.988 108.669ZM141.66 103.565C142.364 104.381 143.132 105.501 143.452 106.221L144.364 105.725C144.044 105.005 143.26 103.917 142.556 103.133L141.66 103.565ZM153.612 102.397C153.356 104.333 152.94 106.045 152.268 107.485C151.628 106.109 151.132 104.541 150.812 102.893C150.86 102.749 150.924 102.573 150.956 102.397H153.612ZM155.708 102.397V101.293H151.276C151.516 100.365 151.708 99.3886 151.852 98.3966L150.684 98.2206C150.268 101.037 149.548 103.693 148.268 105.373C148.54 105.565 149.004 105.997 149.196 106.205C149.548 105.709 149.868 105.149 150.156 104.525C150.54 106.029 151.004 107.437 151.628 108.701C150.716 110.141 149.452 111.229 147.788 111.853C148.092 112.109 148.476 112.525 148.652 112.829C150.172 112.189 151.356 111.181 152.252 109.853C152.988 111.069 153.884 112.077 154.94 112.781C155.132 112.445 155.548 111.997 155.804 111.757C154.668 111.085 153.708 110.029 152.924 108.749C153.836 106.989 154.38 104.845 154.7 102.397H155.708ZM81.7076 125.421C81.2276 126.829 80.2996 128.765 79.5636 129.965L80.5716 130.397C81.3396 129.245 82.2836 127.437 82.9876 125.933L81.7076 125.421ZM73.0676 129.949C72.7316 128.781 71.9796 126.765 71.3556 125.213L70.2356 125.613C70.8276 127.181 71.5316 129.245 71.8516 130.461L73.0676 129.949ZM75.9156 122.397C75.8836 128.029 76.0756 133.469 69.2916 135.869C69.5956 136.125 69.9636 136.541 70.1076 136.845C73.7396 135.501 75.5156 133.277 76.3636 130.621C77.5476 133.709 79.5476 135.773 82.8436 136.749C83.0036 136.413 83.3556 135.917 83.6116 135.645C79.8836 134.733 77.7876 132.237 76.8596 128.621C77.1796 126.653 77.1956 124.525 77.2116 122.397H75.9156ZM90.5556 126.253H87.5636V124.045H90.5556V126.253ZM87.5636 133.037V130.493H90.5556V132.557L87.5636 133.037ZM87.5636 127.245H90.5556V129.501H87.5636V127.245ZM85.2596 124.045H86.4756V133.197L85.0196 133.421L85.2436 134.557C86.6996 134.317 88.6356 133.981 90.5556 133.645V136.813H91.6756V124.045H92.9876V122.957H85.2596V124.045ZM98.7156 122.861L98.5556 122.909H93.6436V136.813H94.7796V123.997H97.9476C97.4196 125.229 96.7476 126.653 95.9636 128.141C97.6916 129.677 98.4756 130.765 98.4756 131.789C98.4756 132.365 98.3156 132.893 97.9316 133.117C97.7396 133.229 97.4996 133.277 97.2116 133.293C96.8756 133.325 96.3156 133.309 95.7716 133.245C95.9636 133.565 96.0756 134.045 96.0916 134.333C96.6196 134.381 97.2116 134.381 97.6276 134.333C98.0276 134.301 98.4116 134.173 98.6836 133.997C99.2916 133.597 99.5956 132.781 99.5956 131.821C99.5956 130.717 98.8436 129.501 97.1636 127.965C98.0436 126.349 98.8596 124.749 99.5476 123.341L98.7156 122.861Z" fill="black"/>
<path d="M16.254 37.604C15.366 37.604 14.586 37.532 13.914 37.388C13.242 37.244 12.654 36.896 12.15 36.344C11.67 35.792 11.43 34.94 11.43 33.788C11.43 32.18 11.91 30.02 12.87 27.308C13.854 24.596 15.138 21.872 16.722 19.136C15.522 19.208 14.574 19.388 13.878 19.676C13.182 19.964 12.726 20.408 12.51 21.008C12.606 21.008 12.702 21.128 12.798 21.368C12.918 21.608 12.978 21.86 12.978 22.124C12.978 22.556 12.786 22.904 12.402 23.168C12.018 23.408 11.538 23.528 10.962 23.528C10.29 23.528 9.74997 23.348 9.34197 22.988C8.93397 22.628 8.72997 22.112 8.72997 21.44C8.72997 20.624 9.04197 19.88 9.66597 19.208C10.314 18.536 11.202 18.008 12.33 17.624C13.458 17.216 14.706 17.012 16.074 17.012C16.578 17.012 17.202 17.048 17.946 17.12C19.914 14 21.99 11.456 24.174 9.488C26.382 7.496 28.482 6.5 30.474 6.5C31.626 6.5 32.574 6.668 33.318 7.004L27.666 33.5H22.482L25.254 20.432C24.366 20.024 23.55 19.724 22.806 19.532C22.062 19.34 21.27 19.208 20.43 19.136C19.062 22.088 17.934 25.112 17.046 28.208C16.182 31.28 15.75 33.74 15.75 35.588C15.75 36.5 15.918 37.172 16.254 37.604ZM27.666 9.056C26.634 9.608 25.554 10.64 24.426 12.152C23.322 13.64 22.242 15.452 21.186 17.588C22.914 17.924 24.378 18.344 25.578 18.848L27.666 9.056Z" fill="black"/>
<path d="M153.227 194.527C154.115 194.527 154.895 194.599 155.567 194.743C156.239 194.887 156.827 195.235 157.331 195.787C157.811 196.339 158.051 197.191 158.051 198.343C158.051 199.951 157.571 202.111 156.61 204.823C155.626 207.535 154.342 210.259 152.758 212.995C153.958 212.923 154.906 212.743 155.602 212.455C156.298 212.167 156.754 211.723 156.97 211.123C156.874 211.123 156.778 211.003 156.682 210.763C156.562 210.523 156.502 210.271 156.502 210.007C156.502 209.575 156.694 209.227 157.078 208.963C157.462 208.723 157.942 208.603 158.518 208.603C159.19 208.603 159.73 208.783 160.138 209.143C160.546 209.503 160.75 210.019 160.75 210.691C160.75 211.507 160.438 212.251 159.814 212.923C159.166 213.595 158.278 214.123 157.15 214.507C156.022 214.915 154.774 215.119 153.406 215.119C152.902 215.119 152.278 215.083 151.534 215.011C149.566 218.131 147.49 220.675 145.306 222.643C143.098 224.635 140.998 225.631 139.006 225.631C137.854 225.631 136.906 225.463 136.162 225.127L141.814 198.631L146.998 198.631L144.226 211.699C145.114 212.107 145.93 212.407 146.674 212.599C147.418 212.791 148.21 212.923 149.05 212.995C150.418 210.043 151.546 207.019 152.434 203.923C153.298 200.851 153.731 198.391 153.731 196.543C153.731 195.631 153.563 194.959 153.227 194.527ZM141.814 223.075C142.846 222.523 143.926 221.491 145.054 219.979C146.158 218.491 147.238 216.679 148.294 214.543C146.566 214.207 145.102 213.787 143.902 213.283L141.814 223.075Z" fill="black"/>
</svg>
