<svg width="169" height="236" viewBox="0 0 169 236" fill="none" xmlns="http://www.w3.org/2000/svg">
<path d="M161.958 235.746H6.11392C2.80475 235.746 0.121094 233.055 0.121094 229.736V6.13088C0.121094 2.81252 2.80475 0.121399 6.11392 0.121399H161.968C165.277 0.121399 167.96 2.81252 167.96 6.13088V229.736C167.95 233.055 165.267 235.746 161.958 235.746Z" fill="white"/>
<path d="M29.703 48.4734C27.2894 45.8268 24.4698 43.2482 23.2968 41.891C22.4171 40.8731 21.7854 40.104 21.5373 39.7873V39.629C21.5373 39.629 21.5148 39.6516 21.4697 39.7195C21.4245 39.6742 21.402 39.629 21.402 39.629V39.7873C21.1539 40.104 20.5222 40.8731 19.6425 41.891C18.4695 43.2482 15.6499 45.8268 13.2363 48.4734C10.8227 51.1199 10.6197 53.7664 11.0708 55.9606C11.5219 58.1547 13.8228 60.2131 17.4094 59.7607C18.5372 59.625 19.3718 59.0821 19.9583 58.4035C19.5523 61.5024 17.8831 63.131 17.8831 63.131H24.8532C23.59 61.706 23.1389 59.6928 22.9584 58.4261C23.5675 59.1047 24.3795 59.625 25.5074 59.7607C29.094 60.2131 31.3948 58.1547 31.8459 55.9606C32.3196 53.7664 32.1166 51.1199 29.703 48.4734Z" fill="black"/>
<path d="M139.777 183.658C142.191 186.304 145.011 188.883 146.184 190.24C147.063 191.258 147.695 192.027 147.943 192.344L147.943 192.502C147.943 192.502 147.966 192.479 148.011 192.412C148.056 192.457 148.078 192.502 148.078 192.502L148.078 192.344C148.327 192.027 148.958 191.258 149.838 190.24C151.011 188.883 153.831 186.304 156.244 183.658C158.658 181.011 158.861 178.365 158.41 176.17C157.959 173.976 155.658 171.918 152.071 172.37C150.943 172.506 150.109 173.049 149.522 173.728C149.928 170.629 151.597 169 151.597 169L144.627 169C145.89 170.425 146.342 172.438 146.522 173.705C145.913 173.026 145.101 172.506 143.973 172.37C140.387 171.918 138.086 173.976 137.635 176.17C137.161 178.365 137.364 181.011 139.777 183.658Z" fill="black"/>
<path d="M27.4516 91.9252V90.7092H20.8436C21.0676 89.0292 21.0836 87.4452 21.0996 86.1652H19.8196C19.8036 87.4292 19.8196 89.0292 19.5796 90.7092H13.4836V91.9252H19.3876C18.7316 94.9492 17.1316 98.0212 13.1636 99.7492C13.4996 99.9892 13.8836 100.405 14.0596 100.725C17.9476 98.9492 19.6756 95.8772 20.4436 92.8052C21.7076 96.4372 23.7396 99.2692 26.8116 100.725C27.0196 100.373 27.4196 99.8772 27.7076 99.6052C24.6196 98.3412 22.5396 95.4452 21.4196 91.9252H27.4516ZM30.9716 88.6612H41.9316V90.8372H43.1316V87.5572H37.2276C37.0516 87.0932 36.7316 86.4852 36.4436 86.0372L35.2276 86.3892C35.4356 86.7412 35.6436 87.1572 35.8196 87.5572H29.8196V90.8372H30.9716V88.6612ZM41.0356 91.8452C40.1396 92.6772 38.7636 93.7172 37.5476 94.5012C37.2116 93.6532 36.6516 92.8052 35.9156 92.0692C36.3316 91.7972 36.6996 91.5252 37.0516 91.2212H41.0196V90.1812H31.8196V91.2212H35.4676C33.9476 92.2612 31.7716 93.0612 29.7556 93.5412C29.9636 93.7652 30.2996 94.2452 30.4116 94.4852C31.9476 94.0212 33.5956 93.3972 35.0196 92.5972C35.3236 92.9012 35.5796 93.2052 35.7876 93.5412C34.3956 94.5812 31.7236 95.7172 29.7236 96.1972C29.9476 96.4372 30.2036 96.8692 30.3316 97.1252C32.2356 96.5332 34.6996 95.4132 36.2676 94.3412C36.4596 94.7092 36.5876 95.0932 36.6996 95.4612C35.1156 96.9012 32.0116 98.3892 29.4516 98.9812C29.6756 99.2532 29.9476 99.6852 30.0756 99.9892C32.3636 99.2852 35.0996 97.9572 36.9236 96.5652C37.0676 97.8612 36.7796 98.9652 36.2996 99.3172C35.9956 99.6052 35.6916 99.6532 35.2756 99.6532C34.9396 99.6532 34.4116 99.6212 33.8356 99.5732C34.0116 99.8932 34.1396 100.357 34.1396 100.693C34.6516 100.709 35.1476 100.725 35.5156 100.725C36.2196 100.725 36.6356 100.597 37.1476 100.165C38.0116 99.4932 38.4116 97.5252 37.8676 95.4612C38.1076 95.3332 38.3796 95.1732 38.6196 95.0132C39.4836 97.3172 41.0036 99.1732 43.0356 100.085C43.1956 99.7812 43.5476 99.3332 43.8036 99.1092C41.8036 98.3412 40.2836 96.5332 39.5476 94.4212C40.4116 93.8452 41.2916 93.2052 42.0116 92.6132L41.0356 91.8452ZM55.1636 94.7572H58.7636V93.6372H55.1636V90.5812H53.9796V93.6372H50.3956V94.7572H53.9796V99.2532H49.7716V100.373H59.3876V99.2532H55.1636V94.7572ZM51.1476 88.6132C51.4356 87.8932 51.7076 87.1572 51.9156 86.4372L50.6996 86.1332C50.4756 86.9492 50.1876 87.7972 49.8516 88.6132H45.4836V89.7492H49.3236C48.3316 91.7812 46.9236 93.6692 45.0996 94.9652C45.2916 95.2212 45.5956 95.7172 45.7076 96.0372C46.3796 95.5572 47.0036 95.0292 47.5636 94.4212V100.677H48.7316V93.0132C49.4836 91.9892 50.1076 90.9012 50.6676 89.7492H59.3876V88.6132H51.1476ZM66.5716 87.7332V89.0292H63.0676V87.7332H66.5716ZM63.0676 91.2532V89.8772H66.5716V91.2532H63.0676ZM67.6916 92.1652V86.8212H61.8996V100.757H63.0676V92.1652H67.6916ZM67.2436 95.8772V94.1492H69.4836V95.8772H67.2436ZM72.7156 96.8852V95.8772H70.5396V94.1492H72.3636V93.1732H64.4756V94.1492H66.2036V95.8772H64.1716V96.8852H66.1716C66.0756 97.8132 65.6276 99.1412 64.2836 99.9572C64.5396 100.117 64.8916 100.453 65.0676 100.661C66.6036 99.6212 67.1156 97.9572 67.2116 96.8852H69.4836V100.453H70.5396V96.8852H72.7156ZM70.2356 91.2692V89.8772H73.8676V91.2692H70.2356ZM73.8676 87.7332V89.0292H70.2356V87.7332H73.8676ZM75.0356 86.8212H69.0996V92.1812H73.8676V99.1892C73.8676 99.4452 73.7876 99.5412 73.5316 99.5412C73.2916 99.5572 72.4276 99.5572 71.5476 99.5252C71.7236 99.8452 71.8996 100.405 71.9316 100.709C73.1316 100.725 73.9316 100.693 74.4116 100.501C74.8756 100.293 75.0356 99.9092 75.0356 99.2052V86.8212ZM79.4676 96.1652C79.5476 95.6532 79.6276 95.0772 79.7076 94.5172H83.0836V90.9652H80.6036C82.0276 90.0052 83.2596 88.7412 83.9636 87.1412L83.2276 86.7572L83.0196 86.8052H78.6836V87.7812H82.3956C81.9956 88.3892 81.4676 88.9652 80.8596 89.4772C80.3956 88.9972 79.6116 88.4372 78.9556 88.0532L78.2676 88.7092C78.8756 89.0772 79.5956 89.6372 80.0756 90.0852C79.0996 90.7412 77.9956 91.2692 76.9236 91.5892C77.1476 91.7972 77.4356 92.2132 77.5636 92.4692C78.1716 92.2772 78.7636 92.0212 79.3396 91.7172V91.9092H82.0116V93.5892H78.8436C78.6996 94.7252 78.4756 96.1492 78.2836 97.0932H81.9476C81.8036 98.6132 81.6276 99.2692 81.3876 99.4772C81.2596 99.6052 81.0996 99.6212 80.8116 99.6212C80.5076 99.6212 79.6276 99.6052 78.7636 99.5252C78.9396 99.8132 79.0996 100.229 79.1156 100.549C79.9796 100.597 80.8276 100.613 81.2276 100.581C81.6916 100.549 82.0116 100.453 82.2836 100.181C82.6676 99.8132 82.8756 98.8692 83.0676 96.6292C83.0996 96.5012 83.1156 96.1652 83.1156 96.1652H79.4676ZM89.4996 95.4612L89.3076 95.5092H83.8516V96.3732H88.7476C88.3476 97.0292 87.8196 97.5892 87.2116 98.0852C86.2676 97.5412 85.2756 96.9652 84.4276 96.5172L83.8516 97.1732C84.6356 97.6052 85.5156 98.1332 86.3796 98.6452C85.4036 99.2212 84.2676 99.6372 83.0996 99.8932C83.3076 100.101 83.5316 100.501 83.6436 100.773C84.9716 100.437 86.2196 99.9412 87.3076 99.2212C88.2356 99.7972 89.0836 100.357 89.6596 100.789L90.2516 100.021C89.7076 99.6212 88.9396 99.1412 88.0916 98.6132C88.9876 97.8612 89.7076 96.9012 90.1556 95.7332L89.4996 95.4612ZM90.4596 87.8452C89.9316 88.4052 89.0196 89.1732 88.2996 89.7012C87.8676 89.3972 87.4676 89.0772 87.1316 88.7252C87.8516 88.2132 88.7476 87.5252 89.4356 86.8692L88.5556 86.2452C88.0756 86.7892 87.2276 87.5412 86.5396 88.1012C86.0276 87.4932 85.6116 86.8532 85.2916 86.1652L84.3476 86.4532C85.1796 88.2772 86.5076 89.7972 88.1556 90.9012H84.6036V92.1492C84.6036 92.9172 84.3796 93.7812 83.1156 94.4692C83.3396 94.6132 83.7236 94.9972 83.8836 95.2052C85.2916 94.3892 85.6276 93.2052 85.6276 92.1812V91.8612H87.8036V93.4132C87.8036 94.3572 87.9956 94.7412 88.9716 94.7412H90.2836C90.6036 94.7412 90.9236 94.7412 91.0996 94.6772C91.0676 94.4372 91.0356 94.0852 91.0356 93.8292C90.8276 93.8772 90.4756 93.8932 90.2676 93.8932H89.0836C88.8436 93.8932 88.8116 93.7812 88.8116 93.4292V91.3012C89.5156 91.7012 90.2836 92.0212 91.0996 92.2772C91.2756 91.9892 91.5636 91.5732 91.8196 91.3492C90.8436 91.0932 89.9316 90.7092 89.0836 90.2132C89.8196 89.7332 90.6836 89.0772 91.3396 88.4532L90.4596 87.8452ZM100.524 98.8052V92.4692H106.476V91.2852H100.524V86.3892H99.2756V98.8052H93.3076V99.9892H107.564V98.8052H100.524ZM113.468 90.9652V89.0452H115.34C114.924 89.7172 114.444 90.3572 113.948 90.9652H113.468ZM115.532 96.1012H111.948V94.5492H115.532V96.1012ZM111.948 98.7412V97.0612H115.532V98.7412H111.948ZM116.572 86.7092C116.236 87.4612 115.884 88.1812 115.452 88.8692V87.9892H113.468V86.2772H112.348V87.9892H109.9V89.0452H112.348V90.9652H109.18V92.0212H112.972C111.772 93.2212 110.38 94.2132 108.828 94.9812C109.052 95.2212 109.436 95.7172 109.58 95.9572C110.012 95.7172 110.444 95.4612 110.844 95.1892V100.677H111.948V99.7332H115.532V100.453H116.668V93.5732H112.94C113.484 93.0932 113.98 92.5652 114.46 92.0212H117.388V90.9652H115.324C116.22 89.7812 117.02 88.4692 117.644 87.0132L116.572 86.7092ZM122.94 86.9972L122.748 87.0452H118.06V100.757H119.228V88.1812H122.204C121.692 89.4612 120.94 91.1572 120.252 92.5172C121.932 93.9092 122.428 95.1092 122.428 96.1172C122.444 96.6932 122.316 97.1732 121.964 97.3652C121.756 97.4772 121.484 97.5412 121.212 97.5572C120.86 97.5892 120.38 97.5732 119.852 97.5252C120.06 97.8612 120.188 98.3572 120.204 98.6932C120.7 98.7252 121.26 98.7252 121.692 98.6772C122.092 98.6292 122.476 98.5172 122.764 98.3092C123.356 97.9412 123.596 97.2052 123.58 96.2292C123.58 95.0932 123.148 93.8452 121.468 92.3572C122.236 90.8852 123.116 89.0612 123.788 87.5572L122.94 86.9972ZM135.804 96.3252V97.4132H129.18V96.3252H135.804ZM129.18 99.3492V98.2612H135.804V99.3492H129.18ZM128.012 100.725H129.18V100.197H135.804V100.677H137.004V95.4772H128.012V100.725ZM134.716 93.8452C135.052 93.3652 135.452 92.6452 135.804 91.9572L134.796 91.6372C134.62 92.1812 134.204 93.0292 133.916 93.5572L134.716 93.8452ZM129.068 91.9732C129.468 92.5652 129.836 93.3332 129.964 93.8452L130.876 93.5092C130.732 92.9972 130.332 92.2612 129.916 91.7012L129.068 91.9732ZM128.108 91.5252H131.884V93.9092H128.108V91.5252ZM136.7 93.9092H132.892V91.5252H136.7V93.9092ZM127.084 94.7252H137.772V90.6932H127.084V94.7252ZM130.428 89.0452C131.196 88.5812 131.9 88.0372 132.508 87.4452C133.116 88.0212 133.836 88.5652 134.604 89.0452H130.428ZM132.332 86.0852C130.828 88.0212 127.996 89.4292 125.1 90.1972C125.308 90.4212 125.644 90.8852 125.772 91.1092C127.116 90.6932 128.476 90.1492 129.692 89.4612V89.9092H135.244V89.4132C136.492 90.1172 137.868 90.6612 139.164 91.0292C139.34 90.7412 139.66 90.3252 139.916 90.1012C137.42 89.5252 134.652 88.2292 133.148 86.7732C133.228 86.6772 133.292 86.5652 133.372 86.4692L132.332 86.0852ZM145.18 95.3172C145.404 94.3092 145.644 93.1092 145.884 91.8932H151.42C151.308 92.8692 151.18 94.0692 151.004 95.3172H145.18ZM151.708 99.0132C152.092 96.3892 152.556 92.9812 152.764 90.8212L151.884 90.7092L151.66 90.7732H146.092C146.268 89.8772 146.428 89.0292 146.556 88.2132H155.116V87.0612H141.852V88.2132H145.292C144.86 90.8532 144.156 94.3412 143.596 96.4372H150.86C150.732 97.3332 150.604 98.2132 150.476 99.0132H141.324V100.181H155.596V99.0132H151.708ZM10.8634 114.677H13.1514V113.557H10.8634V110.133H9.74337V113.557H7.15137V114.677H9.59937C9.03937 116.885 7.90337 119.365 6.79937 120.693C6.99137 120.981 7.29537 121.445 7.42337 121.781C8.28737 120.693 9.11937 118.917 9.74337 117.077V124.725H10.8634V117.445C11.4714 118.229 12.1914 119.237 12.4954 119.765L13.2314 118.789C12.8954 118.357 11.4234 116.661 10.8634 116.085V114.677ZM14.9914 122.565V119.797H19.8394V122.565H14.9914ZM19.8394 112.197V114.869H14.9914V112.197H19.8394ZM14.9914 115.957H19.8394V118.709H14.9914V115.957ZM13.8554 111.077V124.629H14.9914V123.669H19.8394V124.581H21.0074V111.077H13.8554ZM30.7455 123.733C31.7855 123.733 32.7775 123.333 33.5615 122.629L32.9215 121.653C32.3775 122.149 31.6735 122.517 30.8735 122.517C29.2735 122.517 28.1855 121.189 28.1855 119.189C28.1855 117.189 29.3375 115.829 30.9215 115.829C31.6095 115.829 32.1375 116.149 32.6495 116.597L33.4015 115.637C32.7775 115.093 31.9935 114.613 30.8575 114.613C28.6335 114.613 26.6655 116.293 26.6655 119.189C26.6655 122.069 28.4415 123.733 30.7455 123.733ZM38.4475 123.733C40.5755 123.733 42.4795 122.069 42.4795 119.189C42.4795 116.293 40.5755 114.613 38.4475 114.613C36.3195 114.613 34.4155 116.293 34.4155 119.189C34.4155 122.069 36.3195 123.733 38.4475 123.733ZM38.4475 122.517C36.9435 122.517 35.9355 121.189 35.9355 119.189C35.9355 117.189 36.9435 115.829 38.4475 115.829C39.9515 115.829 40.9755 117.189 40.9755 119.189C40.9755 121.189 39.9515 122.517 38.4475 122.517ZM46.5841 123.525H48.2801L51.3681 114.837H49.9281L48.2801 119.781C48.0241 120.629 47.7521 121.525 47.4801 122.341H47.4161C47.1441 121.525 46.8721 120.629 46.6001 119.781L44.9681 114.837H43.4481L46.5841 123.525ZM56.4974 123.733C57.6814 123.733 58.6094 123.333 59.3774 122.837L58.8494 121.877C58.2094 122.309 57.5214 122.565 56.6734 122.565C55.0254 122.565 53.8894 121.381 53.7934 119.525H59.6494C59.6814 119.317 59.7134 119.013 59.7134 118.693C59.7134 116.213 58.4654 114.613 56.2574 114.613C54.2414 114.613 52.3374 116.373 52.3374 119.189C52.3374 122.053 54.1934 123.733 56.4974 123.733ZM53.7774 118.469C53.9534 116.773 55.0414 115.781 56.2734 115.781C57.6334 115.781 58.4334 116.725 58.4334 118.469H53.7774ZM61.8527 123.525H63.3087V117.941C63.8847 116.453 64.7807 115.941 65.5007 115.941C65.8527 115.941 66.0607 115.973 66.3487 116.085L66.6207 114.805C66.3487 114.661 66.0767 114.613 65.6927 114.613C64.7167 114.613 63.8367 115.317 63.2287 116.421H63.1807L63.0527 114.837H61.8527V123.525ZM73.2719 120.517C74.9519 119.925 76.0399 118.613 76.0399 116.885C76.0399 115.765 75.5599 115.045 74.6799 115.045C74.0239 115.045 73.4639 115.445 73.4639 116.197C73.4639 116.949 74.0079 117.333 74.6639 117.333C74.7599 117.333 74.8399 117.333 74.9359 117.317C74.8559 118.405 74.1519 119.157 72.9199 119.669L73.2719 120.517ZM97.7199 111.333H93.8639C93.7039 110.933 93.4479 110.405 93.1759 110.021L92.1999 110.309C92.3759 110.613 92.5519 110.981 92.6959 111.333H88.5999V112.261H97.7199V111.333ZM86.5999 112.357C86.4879 111.797 86.0879 110.917 85.6879 110.245L84.8239 110.549C85.2079 111.221 85.5759 112.133 85.7039 112.693L86.5999 112.357ZM88.2799 112.853H83.2719V113.829H88.2799V112.853ZM86.9519 120.181V122.869H84.7279V120.181H86.9519ZM87.8479 119.221H83.8479V124.581H84.7279V123.829H87.8479V119.221ZM83.9279 118.021H87.8479V117.061H83.9279V118.021ZM83.9279 115.893H87.8479V114.949H83.9279V115.893ZM91.8959 118.901H94.2959V119.765H91.8959V118.901ZM91.8959 117.253H94.2959V118.101H91.8959V117.253ZM90.1199 113.621H91.7999V114.869H90.1199V113.621ZM94.5199 113.621H96.2479V114.869H94.5199V113.621ZM96.9359 120.853C96.4559 121.189 95.7039 121.653 95.0319 121.973C94.6959 121.573 94.3919 121.109 94.1519 120.629H97.8799V119.765H95.3839V118.901H97.2239V118.101H95.3839V117.253H97.5279V116.453H95.3839V115.589H97.2079V112.901H93.5919V115.589H94.2959V116.453H91.8959V115.589H92.7439V112.901H89.2079V115.589H90.8239V116.453H88.8719V117.253H90.8239V118.101H89.1599V118.901H90.8239V119.765H88.3759V120.629H91.6079C90.6799 121.285 89.3679 121.813 88.1199 122.133C88.3119 122.325 88.6159 122.725 88.7439 122.917C89.3359 122.725 89.9439 122.485 90.5359 122.197V122.693C90.5359 123.397 90.1519 123.797 89.9119 123.973C90.0879 124.149 90.3439 124.517 90.4399 124.741C90.6959 124.581 91.1279 124.437 93.9119 123.813C93.8799 123.589 93.8639 123.189 93.8799 122.901L91.4959 123.365V121.701C92.0399 121.365 92.5359 121.029 92.9359 120.629H93.1439C93.9279 122.581 95.3519 124.037 97.3839 124.677C97.5279 124.405 97.8319 124.037 98.0559 123.813C97.1279 123.573 96.3119 123.141 95.6399 122.581C96.2799 122.261 97.0159 121.877 97.5759 121.461L96.9359 120.853ZM103.32 110.245C102.344 112.757 100.696 115.189 98.9679 116.725C99.2079 117.013 99.5759 117.621 99.7039 117.909C100.376 117.285 101 116.549 101.608 115.733V124.725H102.776V113.973C103.432 112.901 104.008 111.749 104.488 110.597L103.32 110.245ZM113.928 118.149V116.997H109.464V112.789H113.272V111.653H104.76V112.789H108.28V116.997H103.704V118.149H108.28V122.997H104.2V124.149H113.576V122.997H109.464V118.149H113.928ZM127.192 112.821C126.824 113.637 126.296 114.309 125.64 114.885C124.888 114.293 124.264 113.589 123.832 112.821H127.192ZM120.792 119.765C121.144 119.109 121.464 118.197 121.736 117.269C121.912 117.493 122.088 117.733 122.168 117.893C123.464 117.493 124.648 116.965 125.656 116.261C126.712 117.013 127.944 117.589 129.288 117.957C129.448 117.637 129.8 117.189 130.04 116.933C128.76 116.661 127.576 116.181 126.568 115.541C127.384 114.805 128.04 113.909 128.488 112.821H129.72V111.813H124.408C124.68 111.365 124.936 110.901 125.144 110.437L124.008 110.133C123.368 111.653 122.216 113.109 120.968 114.037C121.256 114.197 121.72 114.533 121.944 114.725C122.328 114.405 122.712 114.005 123.096 113.589C123.544 114.309 124.104 114.965 124.744 115.541C123.928 116.069 122.952 116.469 121.88 116.773C121.96 116.485 122.04 116.197 122.12 115.925L121.4 115.669L121.224 115.733H120.04L120.648 115.045C120.312 114.741 119.832 114.405 119.304 114.085C120.264 113.349 121.288 112.325 121.912 111.365L121.144 110.885L120.936 110.933H115.56V111.973H120.088C119.608 112.533 119 113.109 118.408 113.557C117.896 113.285 117.352 113.029 116.856 112.821L116.12 113.589C117.368 114.133 118.84 115.029 119.672 115.733H115.384V116.773H117.8C117.208 118.405 116.216 120.117 115.224 121.061C115.432 121.365 115.72 121.829 115.848 122.165C116.728 121.269 117.56 119.765 118.184 118.229V123.365C118.184 123.541 118.12 123.589 117.928 123.605C117.72 123.605 117.096 123.605 116.408 123.589C116.568 123.893 116.728 124.389 116.776 124.677C117.736 124.677 118.36 124.661 118.776 124.501C119.176 124.293 119.304 123.973 119.304 123.365V116.773H120.84C120.6 117.701 120.28 118.693 119.976 119.349L120.792 119.765ZM125.624 119.061C125.72 118.549 125.8 118.021 125.848 117.477H124.648C124.6 118.021 124.536 118.549 124.44 119.061H121.688V120.053H124.184C123.688 121.685 122.68 123.029 120.472 123.829C120.712 124.037 121.032 124.469 121.176 124.741C123.736 123.749 124.856 122.085 125.416 120.053H128.104C127.864 122.245 127.624 123.141 127.32 123.445C127.16 123.589 127.032 123.605 126.776 123.605C126.52 123.605 125.88 123.589 125.192 123.525C125.368 123.829 125.48 124.309 125.512 124.629C126.232 124.677 126.904 124.661 127.288 124.645C127.704 124.597 128.008 124.517 128.28 124.229C128.744 123.765 129.048 122.549 129.336 119.573C129.352 119.381 129.368 119.061 129.368 119.061H125.624ZM135.624 114.965V113.045H137.496C137.08 113.717 136.6 114.357 136.104 114.965H135.624ZM137.688 120.101H134.104V118.549H137.688V120.101ZM134.104 122.741V121.061H137.688V122.741H134.104ZM138.728 110.709C138.392 111.461 138.04 112.181 137.608 112.869V111.989H135.624V110.277H134.504V111.989H132.056V113.045H134.504V114.965H131.336V116.021H135.128C133.928 117.221 132.536 118.213 130.984 118.981C131.208 119.221 131.592 119.717 131.736 119.957C132.168 119.717 132.6 119.461 133 119.189V124.677H134.104V123.733H137.688V124.453H138.824V117.573H135.096C135.64 117.093 136.136 116.565 136.616 116.021H139.544V114.965H137.48C138.376 113.781 139.176 112.469 139.8 111.013L138.728 110.709ZM145.096 110.997L144.904 111.045H140.216V124.757H141.384V112.181H144.36C143.848 113.461 143.096 115.157 142.408 116.517C144.088 117.909 144.584 119.109 144.584 120.117C144.6 120.693 144.472 121.173 144.12 121.365C143.912 121.477 143.64 121.541 143.368 121.557C143.016 121.589 142.536 121.573 142.008 121.525C142.216 121.861 142.344 122.357 142.36 122.693C142.856 122.725 143.416 122.725 143.848 122.677C144.248 122.629 144.632 122.517 144.92 122.309C145.512 121.941 145.752 121.205 145.736 120.229C145.736 119.093 145.304 117.845 143.624 116.357C144.392 114.885 145.272 113.061 145.944 111.557L145.096 110.997ZM158.536 117.861H151.864V116.245H158.536V117.861ZM151.816 120.565C151.848 120.149 151.864 119.765 151.864 119.381V118.885H158.536V120.565H151.816ZM161.576 113.317V112.197H153.416C153.656 111.621 153.864 111.013 154.04 110.421L152.856 110.133C152.664 110.821 152.424 111.509 152.152 112.197H147.656V113.317H151.64C150.648 115.381 149.208 117.269 147.336 118.533C147.56 118.773 147.928 119.205 148.088 119.461C149.064 118.773 149.928 117.925 150.68 117.013V119.349C150.68 120.869 150.536 122.629 149.208 123.909C149.464 124.085 149.896 124.581 150.04 124.837C150.984 123.957 151.464 122.757 151.672 121.589H158.536V123.253C158.536 123.493 158.44 123.573 158.168 123.589C157.88 123.589 156.92 123.605 155.848 123.557C156.024 123.893 156.2 124.373 156.248 124.725C157.608 124.725 158.504 124.709 159.032 124.517C159.544 124.325 159.704 123.973 159.704 123.253V115.173H151.96C152.312 114.581 152.632 113.941 152.936 113.317H161.576ZM22.2196 137.973H19.3236V136.789H22.2196V137.973ZM22.2196 139.957H19.3236V138.773H22.2196V139.957ZM22.2196 142.005H19.3236V140.773H22.2196V142.005ZM18.1716 143.669H19.3236V142.981H27.1316V142.005H23.3396V140.773H26.4116V139.957H23.3396V138.773H26.3636V137.973H23.3396V136.789H26.8916V135.861H23.6596C23.4676 135.381 23.1476 134.725 22.8436 134.213L21.7076 134.533C21.9316 134.933 22.1716 135.429 22.3476 135.861H19.7556C20.0436 135.381 20.3156 134.885 20.5556 134.389L19.4356 134.053C18.7316 135.637 17.5636 137.189 16.2836 138.197C16.5716 138.373 17.0196 138.741 17.2436 138.949C17.5636 138.677 17.8516 138.357 18.1716 138.005V143.669ZM14.3956 143.717C15.3556 142.693 16.4276 141.445 17.3236 140.325L16.6836 139.541C15.6596 140.741 14.4116 142.037 13.5636 142.805L14.3956 143.717ZM17.4836 135.445C16.9076 135.045 15.7876 134.533 14.9076 134.229L14.3156 135.045C15.1956 135.397 16.2836 135.957 16.8596 136.357L17.4836 135.445ZM16.2516 138.053C15.6756 137.685 14.5556 137.205 13.7236 136.933L13.1156 137.749C13.9796 138.069 15.0996 138.597 15.6436 138.965L16.2516 138.053ZM27.5956 144.549H20.9876V143.397H19.7876V144.549H13.3236V145.637H19.7876V148.773H20.9876V145.637H27.5956V144.549ZM33.1156 136.277V139.813H30.7956V136.277H33.1156ZM30.7956 144.549V140.869H33.1156V144.549H30.7956ZM34.2356 135.189H29.6916V146.917H30.7956V145.637H34.2356V135.189ZM35.5476 144.165C36.3156 145.029 37.1956 146.197 37.5636 146.965L38.6036 146.325C38.1876 145.589 37.2916 144.421 36.5396 143.605L35.5476 144.165ZM43.6756 137.125V136.053H39.6756V134.149H38.5076V136.053H34.5236V137.125H38.5076V139.189H35.2276V140.245H40.6036V141.989H34.5876V143.045H40.6036V147.317C40.6036 147.557 40.5236 147.621 40.2676 147.637C40.0116 147.653 39.1156 147.653 38.1396 147.621C38.2996 147.941 38.4756 148.405 38.5236 148.741C39.8196 148.741 40.6036 148.725 41.1156 148.533C41.5956 148.357 41.7716 148.021 41.7716 147.333V143.045H43.6276V141.989H41.7716V140.245H43.1636V139.189H39.6756V137.125H43.6756ZM55.1636 142.757H58.7636V141.637H55.1636V138.581H53.9796V141.637H50.3956V142.757H53.9796V147.253H49.7716V148.373H59.3876V147.253H55.1636V142.757ZM51.1476 136.613C51.4356 135.893 51.7076 135.157 51.9156 134.437L50.6996 134.133C50.4756 134.949 50.1876 135.797 49.8516 136.613H45.4836V137.749H49.3236C48.3316 139.781 46.9236 141.669 45.0996 142.965C45.2916 143.221 45.5956 143.717 45.7076 144.037C46.3796 143.557 47.0036 143.029 47.5636 142.421V148.677H48.7316V141.013C49.4836 139.989 50.1076 138.901 50.6676 137.749H59.3876V136.613H51.1476ZM65.1156 136.277V139.813H62.7956V136.277H65.1156ZM62.7956 144.549V140.869H65.1156V144.549H62.7956ZM66.2356 135.189H61.6916V146.917H62.7956V145.637H66.2356V135.189ZM67.5476 144.165C68.3156 145.029 69.1956 146.197 69.5636 146.965L70.6036 146.325C70.1876 145.589 69.2916 144.421 68.5396 143.605L67.5476 144.165ZM75.6756 137.125V136.053H71.6756V134.149H70.5076V136.053H66.5236V137.125H70.5076V139.189H67.2276V140.245H72.6036V141.989H66.5876V143.045H72.6036V147.317C72.6036 147.557 72.5236 147.621 72.2676 147.637C72.0116 147.653 71.1156 147.653 70.1396 147.621C70.2996 147.941 70.4756 148.405 70.5236 148.741C71.8196 148.741 72.6036 148.725 73.1156 148.533C73.5956 148.357 73.7716 148.021 73.7716 147.333V143.045H75.6276V141.989H73.7716V140.245H75.1636V139.189H71.6756V137.125H75.6756ZM82.5556 135.749V137.077H79.0996V135.749H82.5556ZM79.0996 139.365V137.957H82.5556V139.365H79.0996ZM83.6916 140.277V134.821H77.9156V148.757H79.0996V140.277H83.6916ZM86.2676 142.405V143.877H82.5076V142.405H86.2676ZM82.5076 146.325V144.773H86.2676V146.325H82.5076ZM87.3716 147.269V141.477H81.4356V148.069H82.5076V147.269H87.3716ZM86.2516 139.381V137.957H89.8356V139.381H86.2516ZM89.8356 135.749V137.077H86.2516V135.749H89.8356ZM91.0356 134.821H85.1156V140.293H89.8356V147.157C89.8356 147.445 89.7396 147.541 89.4676 147.541C89.1796 147.557 88.2036 147.573 87.2276 147.525C87.4036 147.845 87.5956 148.405 87.6436 148.741C88.9716 148.741 89.8196 148.725 90.3316 148.533C90.8596 148.325 91.0356 147.925 91.0356 147.173V134.821ZM106.716 137.685H101.18C101.036 136.805 100.94 135.861 100.892 134.853H97.0036V135.909H99.8836C99.9156 136.533 99.9796 137.125 100.06 137.685H94.2356V148.741H95.4196V138.853H99.5796C99.0356 141.365 97.7236 143.093 95.5796 144.133C95.8356 144.357 96.2036 144.805 96.3796 145.077C98.5076 143.989 99.8196 142.213 100.492 139.765C101.18 142.165 102.412 143.957 104.508 144.997C104.7 144.677 105.084 144.213 105.34 143.957C103.244 143.061 102.044 141.301 101.436 138.853H105.516V147.189C105.516 147.445 105.452 147.525 105.164 147.541C104.844 147.557 103.852 147.557 102.812 147.525C102.988 147.845 103.164 148.389 103.212 148.725C104.572 148.725 105.484 148.725 106.028 148.533C106.556 148.325 106.716 147.941 106.716 147.189V137.685ZM110.972 137.109H121.804V139.477H123.02V135.973H117.388C117.164 135.397 116.748 134.613 116.38 134.005L115.18 134.341C115.468 134.821 115.756 135.445 115.98 135.973H109.804V139.477H110.972V137.109ZM120.732 139.909V138.805H112.092V139.909H120.732ZM119.628 147.397C118.972 147.397 118.86 147.317 118.86 146.853V142.885H123.468V141.749H109.404V142.885H113.66C113.468 145.717 112.796 147.077 109.196 147.781C109.42 148.005 109.724 148.469 109.82 148.773C113.788 147.925 114.62 146.197 114.86 142.885H117.676V146.869C117.676 148.133 118.044 148.501 119.5 148.501H121.948C123.212 148.501 123.548 147.957 123.692 145.749C123.356 145.669 122.876 145.493 122.604 145.285C122.54 147.109 122.444 147.397 121.836 147.397H119.628ZM135.148 134.933C136.156 135.477 137.372 136.293 137.98 136.853L138.716 136.037C138.092 135.477 136.844 134.709 135.852 134.213L135.148 134.933ZM137.42 139.253C136.924 140.869 136.236 142.309 135.372 143.573C134.94 142.053 134.652 140.149 134.492 138.021H139.58V136.853H134.412C134.364 135.989 134.348 135.093 134.348 134.165H133.116C133.132 135.077 133.148 135.973 133.212 136.853H126.54V141.317C126.54 143.381 126.396 146.117 125.084 148.069C125.356 148.213 125.868 148.629 126.076 148.869C127.516 146.789 127.756 143.573 127.756 141.333V141.205H130.668C130.604 143.957 130.524 144.965 130.3 145.205C130.204 145.349 130.044 145.381 129.82 145.381C129.548 145.381 128.86 145.365 128.124 145.301C128.316 145.605 128.444 146.053 128.46 146.421C129.244 146.453 129.964 146.453 130.364 146.421C130.812 146.373 131.084 146.261 131.324 145.957C131.66 145.541 131.756 144.197 131.836 140.613V140.101H127.756V138.021H133.276C133.484 140.597 133.868 142.949 134.444 144.757C133.42 145.957 132.188 146.949 130.764 147.717C131.036 147.941 131.452 148.421 131.628 148.661C132.86 147.941 133.964 147.045 134.924 146.005C135.66 147.653 136.62 148.629 137.852 148.629C139.068 148.629 139.5 147.845 139.724 145.125C139.404 145.029 138.972 144.757 138.7 144.485C138.588 146.613 138.396 147.445 137.948 147.445C137.132 147.445 136.396 146.533 135.804 144.965C136.988 143.445 137.932 141.621 138.62 139.557L137.42 139.253ZM148.476 139.029C147.148 139.029 146.044 140.117 146.044 141.461C146.044 142.805 147.148 143.893 148.476 143.893C149.82 143.893 150.908 142.805 150.908 141.461C150.908 140.117 149.82 139.029 148.476 139.029ZM148.476 143.077C147.596 143.077 146.86 142.357 146.86 141.461C146.86 140.565 147.596 139.845 148.476 139.845C149.372 139.845 150.092 140.565 150.092 141.461C150.092 142.357 149.372 143.077 148.476 143.077Z" fill="black"/>
<path d="M16.254 37.604C15.366 37.604 14.586 37.532 13.914 37.388C13.242 37.244 12.654 36.896 12.15 36.344C11.67 35.792 11.43 34.94 11.43 33.788C11.43 32.18 11.91 30.02 12.87 27.308C13.854 24.596 15.138 21.872 16.722 19.136C15.522 19.208 14.574 19.388 13.878 19.676C13.182 19.964 12.726 20.408 12.51 21.008C12.606 21.008 12.702 21.128 12.798 21.368C12.918 21.608 12.978 21.86 12.978 22.124C12.978 22.556 12.786 22.904 12.402 23.168C12.018 23.408 11.538 23.528 10.962 23.528C10.29 23.528 9.74997 23.348 9.34197 22.988C8.93397 22.628 8.72997 22.112 8.72997 21.44C8.72997 20.624 9.04197 19.88 9.66597 19.208C10.314 18.536 11.202 18.008 12.33 17.624C13.458 17.216 14.706 17.012 16.074 17.012C16.578 17.012 17.202 17.048 17.946 17.12C19.914 14 21.99 11.456 24.174 9.488C26.382 7.496 28.482 6.5 30.474 6.5C31.626 6.5 32.574 6.668 33.318 7.004L27.666 33.5H22.482L25.254 20.432C24.366 20.024 23.55 19.724 22.806 19.532C22.062 19.34 21.27 19.208 20.43 19.136C19.062 22.088 17.934 25.112 17.046 28.208C16.182 31.28 15.75 33.74 15.75 35.588C15.75 36.5 15.918 37.172 16.254 37.604ZM27.666 9.056C26.634 9.608 25.554 10.64 24.426 12.152C23.322 13.64 22.242 15.452 21.186 17.588C22.914 17.924 24.378 18.344 25.578 18.848L27.666 9.056Z" fill="black"/>
<path d="M153.227 194.527C154.115 194.527 154.895 194.599 155.567 194.743C156.239 194.887 156.827 195.235 157.331 195.787C157.811 196.339 158.051 197.191 158.051 198.343C158.051 199.951 157.571 202.111 156.61 204.823C155.626 207.535 154.342 210.259 152.758 212.995C153.958 212.923 154.906 212.743 155.602 212.455C156.298 212.167 156.754 211.723 156.97 211.123C156.874 211.123 156.778 211.003 156.682 210.763C156.562 210.523 156.502 210.271 156.502 210.007C156.502 209.575 156.694 209.227 157.078 208.963C157.462 208.723 157.942 208.603 158.518 208.603C159.19 208.603 159.73 208.783 160.138 209.143C160.546 209.503 160.75 210.019 160.75 210.691C160.75 211.507 160.438 212.251 159.814 212.923C159.166 213.595 158.278 214.123 157.15 214.507C156.022 214.915 154.774 215.119 153.406 215.119C152.902 215.119 152.278 215.083 151.534 215.011C149.566 218.131 147.49 220.675 145.306 222.643C143.098 224.635 140.998 225.631 139.006 225.631C137.854 225.631 136.906 225.463 136.162 225.127L141.814 198.631L146.998 198.631L144.226 211.699C145.114 212.107 145.93 212.407 146.674 212.599C147.418 212.791 148.21 212.923 149.05 212.995C150.418 210.043 151.546 207.019 152.434 203.923C153.298 200.851 153.731 198.391 153.731 196.543C153.731 195.631 153.563 194.959 153.227 194.527ZM141.814 223.075C142.846 222.523 143.926 221.491 145.054 219.979C146.158 218.491 147.238 216.679 148.294 214.543C146.566 214.207 145.102 213.787 143.902 213.283L141.814 223.075Z" fill="black"/>
</svg>
