<svg width="169" height="236" viewBox="0 0 169 236" fill="none" xmlns="http://www.w3.org/2000/svg">
<path d="M161.958 235.746H6.11392C2.80475 235.746 0.121094 233.055 0.121094 229.736V6.13088C0.121094 2.81252 2.80475 0.121399 6.11392 0.121399H161.968C165.277 0.121399 167.96 2.81252 167.96 6.13088V229.736C167.95 233.055 165.267 235.746 161.958 235.746Z" fill="white"/>
<path d="M29.703 48.4733C27.2894 45.8268 24.4698 43.2481 23.2968 41.891C22.4171 40.8731 21.7854 40.104 21.5373 39.7873V39.629C21.5373 39.629 21.5148 39.6516 21.4697 39.7194C21.4245 39.6742 21.402 39.629 21.402 39.629V39.7873C21.1539 40.104 20.5222 40.8731 19.6425 41.891C18.4695 43.2481 15.6499 45.8268 13.2363 48.4733C10.8227 51.1199 10.6197 53.7664 11.0708 55.9605C11.5219 58.1546 13.8228 60.2131 17.4094 59.7607C18.5372 59.6249 19.3718 59.0821 19.9583 58.4035C19.5523 61.5024 17.8831 63.131 17.8831 63.131H24.8532C23.59 61.706 23.1389 59.6928 22.9584 58.4261C23.5675 59.1047 24.3795 59.6249 25.5074 59.7607C29.094 60.2131 31.3948 58.1546 31.8459 55.9605C32.3196 53.7664 32.1166 51.1199 29.703 48.4733Z" fill="black"/>
<path d="M139.777 183.658C142.191 186.304 145.011 188.883 146.184 190.24C147.063 191.258 147.695 192.027 147.943 192.344L147.943 192.502C147.943 192.502 147.966 192.479 148.011 192.412C148.056 192.457 148.078 192.502 148.078 192.502L148.078 192.344C148.327 192.027 148.958 191.258 149.838 190.24C151.011 188.883 153.831 186.304 156.244 183.658C158.658 181.011 158.861 178.365 158.41 176.17C157.959 173.976 155.658 171.918 152.071 172.37C150.943 172.506 150.109 173.049 149.522 173.728C149.928 170.629 151.597 169 151.597 169L144.627 169C145.89 170.425 146.342 172.438 146.522 173.705C145.913 173.026 145.101 172.506 143.973 172.37C140.387 171.918 138.086 173.976 137.635 176.17C137.161 178.365 137.364 181.011 139.777 183.658Z" fill="black"/>
<path d="M37.3565 96.2931C37.3885 95.8291 37.4045 95.3971 37.4045 94.9651V94.6931H40.9245V96.2931H37.3565ZM40.9245 92.1491V93.7651H37.4045V92.1491H40.9245ZM42.0765 91.1731H36.3165V94.9651C36.3165 96.5651 36.2045 98.6131 35.1325 100.117C35.4045 100.229 35.8685 100.597 36.0285 100.805C36.7645 99.8131 37.1005 98.5011 37.2765 97.2371H40.9245V99.3651C40.9245 99.5731 40.8605 99.6371 40.6205 99.6531C40.4125 99.6691 39.6925 99.6691 38.8925 99.6371C39.0365 99.9251 39.2125 100.373 39.2765 100.677C40.3645 100.677 41.0525 100.677 41.5005 100.485C41.9325 100.293 42.0765 99.9891 42.0765 99.3811V91.1731ZM47.2285 99.2531C47.2285 99.4931 47.1485 99.5571 46.8765 99.5731C46.6365 99.5891 45.7725 99.5891 44.7965 99.5571C44.9725 99.8771 45.1645 100.373 45.2285 100.693C46.4445 100.709 47.2445 100.677 47.7565 100.485C48.2365 100.293 48.3965 99.9731 48.3965 99.2531V90.8531H47.2285V99.2531ZM45.1165 91.3331H44.0125V97.8291H45.1165V91.3331ZM45.7245 88.6611C46.1885 88.0051 46.7165 87.2211 47.1485 86.4851L45.9005 86.0691C45.5485 86.8371 44.9405 87.8931 44.3965 88.6611H39.6285L40.4125 88.3571C40.1085 87.7331 39.4365 86.7891 38.8125 86.1171L37.7245 86.5331C38.2685 87.1731 38.8925 88.0371 39.1805 88.6611H35.2605V89.7491H49.4525V88.6611H45.7245ZM62.1885 95.1891V98.7251H54.4605V95.1891H62.1885ZM53.2605 100.741H54.4605V99.8771H62.1885V100.709H63.4365V94.0531H53.2605V100.741ZM59.9165 88.5651C60.6845 89.2531 61.5005 90.0851 62.2365 90.9171L54.0765 91.3171C55.4845 89.9891 56.9085 88.3411 58.1725 86.6131L57.0045 86.0851C55.7565 88.0691 53.9005 90.0851 53.3245 90.5971C52.7965 91.1251 52.3805 91.4771 52.0285 91.5411C52.1565 91.8611 52.3645 92.4531 52.4125 92.7091C53.0365 92.4851 53.9645 92.4531 63.1005 91.9411C63.5005 92.4371 63.8365 92.9011 64.0765 93.3171L65.0845 92.5971C64.2525 91.2691 62.4125 89.3171 60.8605 87.9571L59.9165 88.5651ZM81.1805 89.8451C80.9725 89.1251 80.4285 87.9891 79.9005 87.1411L79.0205 87.4611C79.5485 88.3251 80.0445 89.4931 80.2525 90.2131L81.1805 89.8451ZM77.0845 87.8611H75.3565C75.1965 87.3811 74.9245 86.7411 74.6845 86.2451L73.7085 86.4531C73.9005 86.8851 74.0925 87.4131 74.2525 87.8611H72.2845V88.8051H77.0845V87.8611ZM70.5245 90.1491H68.8445V87.9091H70.5245V90.1491ZM68.8445 94.4371H70.5245V96.6131C69.9485 96.7411 69.3725 96.8691 68.8445 96.9811V94.4371ZM70.5245 93.4451H68.8445V91.1571H70.5245V93.4451ZM72.2365 87.9091V86.8211H67.0845V87.9091H67.9325V97.1731C67.5645 97.2211 67.2285 97.3011 66.9245 97.3491L67.1645 98.3731C68.1405 98.1331 69.3245 97.8771 70.5245 97.5891V100.757H71.4685V87.9091H72.2365ZM73.5805 97.5891V96.0851H75.8525V97.5891H73.5805ZM75.8525 93.7491V95.2211H73.5805V93.7491H75.8525ZM80.4765 92.8531C80.1405 93.9571 79.6765 94.9811 79.1325 95.9091C78.9725 94.8051 78.8445 93.4611 78.7645 91.9731H81.5965V90.9331H78.7005C78.6205 89.4451 78.5885 87.8291 78.5725 86.1491H77.5325C77.5645 87.8291 77.6125 89.4451 77.6765 90.9331H76.0605C76.2365 90.4051 76.4445 89.7331 76.6365 89.1251L75.6445 88.9491C75.5645 89.5091 75.3565 90.3251 75.1805 90.9331H74.0445C73.9645 90.3731 73.7885 89.5731 73.5965 88.9651L72.7165 89.0931C72.8765 89.6691 73.0205 90.3731 73.1005 90.9331H72.0125V91.9731H77.7405C77.8525 93.9891 78.0285 95.7491 78.2845 97.1731C77.8365 97.7811 77.3085 98.3571 76.7805 98.8531V92.8851H72.6365V99.5731H73.5805V98.4531H75.8525V98.8851H76.7485C76.3165 99.2851 75.8685 99.6531 75.4045 99.9571C75.6125 100.117 75.9325 100.405 76.0925 100.597C76.9725 99.9891 77.8045 99.2371 78.5725 98.3411C78.9725 99.8291 79.5325 100.693 80.3325 100.709C80.8765 100.725 81.4045 100.085 81.7085 97.6851C81.5325 97.5891 81.1005 97.3011 80.9405 97.0931C80.8285 98.5491 80.6205 99.4131 80.3645 99.4131C79.9645 99.3971 79.6285 98.6291 79.3565 97.3171C80.2045 96.1491 80.9085 94.8051 81.4045 93.3171L80.4765 92.8531ZM88.1885 98.0211H86.9245V93.1251H89.5485V92.0211H86.9245V89.1251H89.2445V88.0211H85.1645C85.3245 87.4771 85.4685 86.9011 85.5965 86.3411L84.5085 86.1171C84.1565 87.7971 83.5965 89.5411 82.8285 90.6931C83.1005 90.8211 83.5805 91.0771 83.7885 91.2371C84.1405 90.6611 84.4765 89.9251 84.7805 89.1251H85.8525V92.0211H83.0685V93.1251H85.8525V98.0211H84.6205V94.1651H83.6445V99.0771H88.1885V99.6051H89.1805V94.1811H88.1885V98.0211ZM93.7565 89.9571H95.5485V93.5091H93.7085C93.7405 92.9171 93.7565 92.3251 93.7565 91.7331V89.9571ZM97.6765 94.6131V93.5091H96.6365V88.8371H93.7565V86.1331H92.6685V88.8371H90.2205V89.9571H92.6685V91.7171C92.6685 92.3091 92.6525 92.9171 92.6045 93.5091H89.9325V94.6131H92.4765C92.1725 96.5971 91.3565 98.4851 89.2925 99.9891C89.5485 100.165 89.9645 100.533 90.1565 100.789C92.4285 99.0931 93.2925 96.9171 93.5965 94.6131H97.6765ZM94.1085 95.6211C95.0205 97.2211 96.1085 99.4291 96.6365 100.677L97.7085 100.229C97.1485 98.9811 96.0125 96.8531 95.0845 95.2531L94.1085 95.6211ZM105.421 91.5091C105.149 92.7891 104.781 93.9411 104.301 94.9491C103.565 94.3891 102.397 93.6211 101.405 93.0451C101.677 92.5491 101.933 92.0371 102.173 91.5091H105.421ZM99.3565 88.0531H102.093C101.565 90.3891 100.461 93.0131 98.7645 94.6291C99.0045 94.8211 99.3885 95.1891 99.5965 95.4131C100.045 94.9811 100.461 94.4851 100.829 93.9411C101.853 94.5651 103.037 95.3651 103.773 95.9731C102.733 97.7491 101.341 99.0451 99.7405 99.8931C100.013 100.085 100.461 100.533 100.637 100.789C103.581 99.0931 105.885 95.8451 106.733 90.6451L105.997 90.3891L105.805 90.4211H102.605C102.909 89.6371 103.149 88.8371 103.341 88.0531H107.261V86.9651H99.3565V88.0531ZM109.037 87.9731H107.869V96.6611H109.037V87.9731ZM111.757 86.4531V99.2051C111.757 99.4931 111.629 99.5891 111.341 99.6051C111.037 99.6051 110.061 99.6211 108.989 99.5891C109.149 99.9091 109.325 100.437 109.389 100.757C110.845 100.757 111.709 100.725 112.221 100.549C112.717 100.341 112.925 99.9891 112.925 99.1891V86.4531H111.757ZM127.837 93.9891C127.149 94.6611 126.029 95.5411 125.069 96.1971C124.365 95.3651 123.805 94.4211 123.373 93.3651H129.229V92.3411H122.909V90.9171H128.013V89.9251H122.909V88.5811H128.733V87.5571H122.909V86.1331H121.725V87.5571H116.077V88.5811H121.725V89.9251H116.893V90.9171H121.725V92.3411H115.453V93.3651H120.733C119.229 94.7091 116.973 95.9571 114.989 96.5811C115.245 96.8211 115.597 97.2531 115.757 97.5411C116.637 97.2051 117.597 96.7731 118.509 96.2451V98.6131C118.509 99.2371 118.157 99.5251 117.901 99.6531C118.093 99.9251 118.333 100.437 118.413 100.741C118.781 100.485 119.357 100.293 123.789 98.8691C123.725 98.6291 123.629 98.1651 123.597 97.8451L119.725 99.0131V95.4771C120.669 94.8371 121.533 94.1171 122.221 93.3651C123.437 96.7091 125.677 99.1091 128.957 100.213C129.133 99.8931 129.485 99.4291 129.741 99.1891C128.157 98.7251 126.829 97.9411 125.725 96.9011C126.733 96.2771 127.901 95.4611 128.813 94.6771L127.837 93.9891ZM13.5475 126.677L14.4595 126.245C13.0675 123.973 12.4115 121.269 12.4115 118.549C12.4115 115.829 13.0675 113.141 14.4595 110.853L13.5475 110.437C12.0755 112.821 11.1955 115.413 11.1955 118.549C11.1955 121.701 12.0755 124.277 13.5475 126.677ZM29.9618 113.845C29.7538 113.125 29.2098 111.989 28.6818 111.141L27.8018 111.461C28.3298 112.325 28.8258 113.493 29.0338 114.213L29.9618 113.845ZM25.8658 111.861H24.1378C23.9778 111.381 23.7058 110.741 23.4658 110.245L22.4898 110.453C22.6818 110.885 22.8738 111.413 23.0338 111.861H21.0658V112.805H25.8658V111.861ZM19.3058 114.149H17.6258V111.909H19.3058V114.149ZM17.6258 118.437H19.3058V120.613C18.7298 120.741 18.1538 120.869 17.6258 120.981V118.437ZM19.3058 117.445H17.6258V115.157H19.3058V117.445ZM21.0178 111.909V110.821H15.8658V111.909H16.7138V121.173C16.3458 121.221 16.0098 121.301 15.7058 121.349L15.9458 122.373C16.9218 122.133 18.1058 121.877 19.3058 121.589V124.757H20.2498V111.909H21.0178ZM22.3618 121.589V120.085H24.6338V121.589H22.3618ZM24.6338 117.749V119.221H22.3618V117.749H24.6338ZM29.2578 116.853C28.9218 117.957 28.4578 118.981 27.9138 119.909C27.7538 118.805 27.6258 117.461 27.5458 115.973H30.3778V114.933H27.4818C27.4018 113.445 27.3698 111.829 27.3538 110.149H26.3138C26.3458 111.829 26.3938 113.445 26.4578 114.933H24.8418C25.0178 114.405 25.2258 113.733 25.4178 113.125L24.4258 112.949C24.3458 113.509 24.1378 114.325 23.9618 114.933H22.8258C22.7458 114.373 22.5698 113.573 22.3778 112.965L21.4978 113.093C21.6578 113.669 21.8018 114.373 21.8818 114.933H20.7938V115.973H26.5218C26.6338 117.989 26.8098 119.749 27.0658 121.173C26.6178 121.781 26.0898 122.357 25.5618 122.853V116.885H21.4178V123.573H22.3618V122.453H24.6338V122.885H25.5298C25.0978 123.285 24.6498 123.653 24.1858 123.957C24.3938 124.117 24.7138 124.405 24.8738 124.597C25.7538 123.989 26.5858 123.237 27.3538 122.341C27.7538 123.829 28.3138 124.693 29.1138 124.709C29.6578 124.725 30.1858 124.085 30.4898 121.685C30.3138 121.589 29.8818 121.301 29.7218 121.093C29.6098 122.549 29.4018 123.413 29.1458 123.413C28.7458 123.397 28.4098 122.629 28.1378 121.317C28.9858 120.149 29.6898 118.805 30.1858 117.317L29.2578 116.853ZM36.9698 122.021H35.7058V117.125H38.3298V116.021H35.7058V113.125H38.0258V112.021H33.9458C34.1058 111.477 34.2498 110.901 34.3778 110.341L33.2898 110.117C32.9378 111.797 32.3778 113.541 31.6098 114.693C31.8818 114.821 32.3618 115.077 32.5698 115.237C32.9218 114.661 33.2578 113.925 33.5618 113.125H34.6338V116.021H31.8498V117.125H34.6338V122.021H33.4018V118.165H32.4258V123.077H36.9698V123.605H37.9618V118.181H36.9698V122.021ZM42.5378 113.957H44.3298V117.509H42.4898C42.5218 116.917 42.5378 116.325 42.5378 115.733V113.957ZM46.4578 118.613V117.509H45.4178V112.837H42.5378V110.133H41.4498V112.837H39.0018V113.957H41.4498V115.717C41.4498 116.309 41.4338 116.917 41.3858 117.509H38.7138V118.613H41.2578C40.9538 120.597 40.1378 122.485 38.0738 123.989C38.3298 124.165 38.7458 124.533 38.9378 124.789C41.2098 123.093 42.0738 120.917 42.3778 118.613H46.4578ZM42.8898 119.621C43.8018 121.221 44.8898 123.429 45.4178 124.677L46.4898 124.229C45.9298 122.981 44.7938 120.853 43.8658 119.253L42.8898 119.621ZM51.7378 112.133C51.4978 111.573 50.9858 110.741 50.5218 110.085L49.6258 110.549C50.0578 111.205 50.5698 112.101 50.8098 112.677L51.7378 112.133ZM52.1698 120.149V122.789H49.4978V120.149H52.1698ZM53.2098 119.157H48.4738V124.533H49.4978V123.781H53.2098V119.157ZM48.4898 117.973H53.0818V117.029H48.4898V117.973ZM53.0818 114.949H48.4898V115.893H53.0818V114.949ZM47.8338 113.829H53.6098V112.853H47.8338V113.829ZM62.4098 120.181H58.6658V117.733H61.6898V116.629H58.6658V114.357H62.1698V113.253H60.0418C60.5378 112.549 61.1458 111.493 61.6418 110.565L60.4418 110.117C60.1218 110.949 59.5298 112.133 59.0658 112.885L59.8978 113.253H56.3298L57.0818 112.853C56.8258 112.133 56.2338 111.029 55.6418 110.213L54.6978 110.645C55.2258 111.445 55.7698 112.517 56.0258 113.253H54.1698V114.357H57.4978V116.629H54.5858V117.733H57.4978V120.181H53.8978V121.301H57.4978V124.773H58.6658V121.301H62.4098V120.181ZM64.0898 116.085C64.3298 115.957 64.6658 115.877 66.3778 115.685C65.7858 116.581 65.2738 117.285 65.0178 117.573C64.5538 118.181 64.1858 118.581 63.8498 118.645C63.9778 118.933 64.1538 119.445 64.2018 119.685C64.5058 119.525 65.0018 119.413 68.6338 118.853C68.6978 119.077 68.7618 119.317 68.7938 119.509L69.7058 119.157C69.5458 118.373 69.0818 117.093 68.5858 116.101L67.7538 116.389C67.9618 116.885 68.1858 117.429 68.3778 117.989L65.5618 118.373C66.8578 116.853 68.1218 114.949 69.1618 113.061L68.2018 112.501C67.8498 113.237 67.4178 114.005 67.0018 114.693L65.3058 114.853C66.1698 113.653 67.0338 112.101 67.7378 110.597L66.7138 110.165C66.0738 111.877 64.9538 113.717 64.6018 114.181C64.2818 114.661 64.0098 114.997 63.7538 115.061C63.8658 115.333 64.0418 115.861 64.0898 116.085ZM64.4738 120.373C64.3138 121.653 64.0738 123.061 63.7058 124.053C63.9458 124.117 64.4098 124.277 64.6018 124.389C64.9538 123.397 65.2578 121.909 65.4178 120.517L64.4738 120.373ZM66.1698 120.485C66.3618 121.557 66.5378 122.949 66.5698 123.893L67.4978 123.685C67.4338 122.757 67.2418 121.365 67.0338 120.309L66.1698 120.485ZM67.9298 120.165C68.2978 121.141 68.6818 122.421 68.8418 123.269L69.7218 122.965C69.5458 122.149 69.1458 120.885 68.7458 119.893L67.9298 120.165ZM74.6658 122.373V117.877H76.8738V122.373H74.6658ZM71.4978 117.877H73.5778V122.373H71.4978V117.877ZM73.5778 112.165V116.757H71.4978V112.165H73.5778ZM76.8738 116.757H74.6658V112.165H76.8738V116.757ZM70.3938 110.981V124.533H71.4978V123.493H76.8738V124.389H78.0098V110.981H70.3938ZM93.4178 113.685H87.8818C87.7378 112.805 87.6418 111.861 87.5938 110.853H83.7058V111.909H86.5858C86.6178 112.533 86.6818 113.125 86.7618 113.685H80.9378V124.741H82.1218V114.853H86.2818C85.7378 117.365 84.4258 119.093 82.2818 120.133C82.5378 120.357 82.9058 120.805 83.0818 121.077C85.2098 119.989 86.5218 118.213 87.1938 115.765C87.8818 118.165 89.1138 119.957 91.2098 120.997C91.4018 120.677 91.7858 120.213 92.0418 119.957C89.9458 119.061 88.7458 117.301 88.1378 114.853H92.2178V123.189C92.2178 123.445 92.1538 123.525 91.8658 123.541C91.5458 123.557 90.5538 123.557 89.5138 123.525C89.6898 123.845 89.8658 124.389 89.9138 124.725C91.2738 124.725 92.1858 124.725 92.7298 124.533C93.2578 124.325 93.4178 123.941 93.4178 123.189V113.685ZM97.6578 112.693H108.554V114.485H109.754V111.605H104.106C103.914 111.125 103.578 110.501 103.29 110.021L102.074 110.309C102.298 110.693 102.538 111.189 102.714 111.605H96.5058V114.485H97.6578V112.693ZM104.506 114.117C105.978 115.029 107.77 116.405 108.634 117.317L109.482 116.533C108.586 115.621 106.746 114.309 105.29 113.445L104.506 114.117ZM100.458 113.429C99.5298 114.613 98.0258 115.717 96.6018 116.453C96.8578 116.645 97.2578 117.125 97.4338 117.349C98.8898 116.517 100.506 115.189 101.562 113.813L100.458 113.429ZM99.9138 119.413C101.13 118.581 102.25 117.605 103.162 116.533C104.218 117.701 105.354 118.629 106.618 119.413H99.9138ZM99.8338 123.157V120.485H106.394V123.157H99.8338ZM103.05 114.837C101.53 117.189 98.7138 119.173 95.7858 120.261C96.0578 120.533 96.3618 120.933 96.5378 121.221C97.2738 120.933 97.9938 120.581 98.6818 120.181V124.773H99.8338V124.229H106.394V124.709H107.594V119.989C108.25 120.373 108.938 120.693 109.642 121.029C109.818 120.677 110.138 120.277 110.41 120.021C107.85 119.013 105.594 117.765 103.786 115.717C103.898 115.573 103.994 115.429 104.09 115.285L103.05 114.837ZM120.362 119.765L121.45 118.853C120.458 117.669 119.002 116.229 117.866 115.301L116.826 116.213C117.962 117.141 119.322 118.501 120.362 119.765ZM132.666 114.933C132.938 114.277 133.258 113.269 133.53 112.437L132.826 112.181C132.682 112.917 132.362 114.037 132.138 114.725L132.666 114.933ZM129.578 112.389C129.85 113.157 130.058 114.165 130.09 114.821L130.714 114.645C130.666 114.005 130.458 112.997 130.186 112.229L129.578 112.389ZM129.354 111.605H131.082V115.445H129.354V111.605ZM133.738 115.445H131.898V111.605H133.738V115.445ZM135.018 119.605H132.026V118.357H134.81V117.397H132.026V116.309H134.698V110.741H128.41V116.309H130.954V117.397H128.298V118.357H130.954V119.605H128.01V120.565H135.018V119.605ZM128.586 124.565C129.066 123.797 129.386 122.533 129.578 121.541L128.746 121.237C128.57 122.213 128.218 123.445 127.722 124.181L128.586 124.565ZM130.17 121.541C130.33 122.437 130.426 123.573 130.378 124.325L131.226 124.229C131.242 123.477 131.146 122.341 130.954 121.461L130.17 121.541ZM131.802 121.541C132.138 122.357 132.41 123.429 132.49 124.133L133.29 123.957C133.194 123.269 132.89 122.197 132.554 121.397L131.802 121.541ZM133.434 121.509C133.866 122.293 134.298 123.349 134.442 124.037L135.258 123.717C135.098 123.045 134.65 122.005 134.186 121.237L133.434 121.509ZM140.698 122.901H136.666V118.789H140.698V122.901ZM142.458 114.741V113.621H139.05V110.165H137.882V117.685H135.578V124.741H136.666V123.989H140.698V124.677H141.834V117.685H139.05V114.741H142.458ZM156.762 111.589V112.661H154.458V111.589H156.762ZM157.082 115.493C157.498 115.493 157.946 115.477 158.186 115.413C158.138 115.189 158.106 114.821 158.09 114.565C157.818 114.613 157.322 114.629 157.05 114.629H154.874C154.522 114.629 154.458 114.485 154.458 114.037V113.477H157.802V110.789H153.466V114.021C153.466 115.093 153.738 115.493 154.842 115.493H157.082ZM151.626 111.573V112.645H149.37V111.573H151.626ZM149.37 114.677V113.461H152.65V110.773H148.41V114.037C148.41 114.645 148.17 114.837 147.994 114.933C148.122 115.173 148.346 115.621 148.41 115.893C148.682 115.733 149.146 115.637 152.698 114.997C152.698 114.789 152.746 114.421 152.794 114.149L149.37 114.677ZM151.818 117.845H154.314V119.317H151.818V117.845ZM158.25 119.317H155.418V117.845H157.738V116.917H155.418V115.765H154.314V116.917H151.818V115.765H150.714V116.917H148.506V117.845H150.714V119.317H147.85V120.245H158.25V119.317ZM157.994 122.261C157.226 121.669 155.882 120.933 154.698 120.373L153.898 120.917C155.066 121.477 156.266 122.213 156.938 122.805L157.994 122.261ZM151.242 120.389C150.49 121.045 149.29 121.685 148.154 122.133C148.426 122.277 148.858 122.645 149.066 122.869C150.154 122.357 151.45 121.541 152.298 120.757L151.242 120.389ZM147.178 112.677C146.73 112.037 145.866 111.029 145.13 110.245L144.25 110.789C144.954 111.573 145.834 112.661 146.266 113.333L147.178 112.677ZM147.162 117.733L146.954 117.765H145.402C146.138 116.677 147.13 114.965 147.674 114.053L146.89 113.733L146.698 113.813H143.946V114.805H146.074C145.53 115.797 144.762 117.093 144.474 117.429C144.218 117.733 143.994 117.829 143.77 117.893C143.898 118.133 144.122 118.677 144.186 118.965C144.314 118.853 144.746 118.741 145.098 118.741H146.538C146.058 121.205 145.05 122.981 143.658 123.973C143.898 124.133 144.282 124.533 144.442 124.789C145.194 124.213 145.85 123.413 146.41 122.389C147.658 124.197 149.69 124.517 152.938 124.517C154.698 124.517 156.714 124.469 158.218 124.389C158.282 124.053 158.41 123.509 158.602 123.237C156.954 123.381 154.634 123.461 152.938 123.461C149.914 123.461 147.898 123.205 146.842 121.429C147.226 120.437 147.546 119.269 147.738 117.957L147.162 117.733ZM33.6275 139.941V143.589H29.4515V139.941H33.6275ZM34.7955 144.725V138.789H28.2995V146.005H29.4515V144.725H34.7955ZM40.8275 135.269H26.6675V136.453H37.6435V147.029C37.6435 147.365 37.5315 147.477 37.1795 147.493C36.8115 147.509 35.4995 147.525 34.2195 147.461C34.4115 147.797 34.6515 148.389 34.7315 148.725C36.2995 148.725 37.4035 148.725 38.0435 148.501C38.6515 148.325 38.8595 147.893 38.8595 147.045V136.453H40.8275V135.269ZM44.7635 144.165C44.8435 143.653 44.9235 143.077 45.0035 142.517H48.3795V138.965H45.8995C47.3235 138.005 48.5555 136.741 49.2595 135.141L48.5235 134.757L48.3155 134.805H43.9795V135.781H47.6915C47.2915 136.389 46.7635 136.965 46.1555 137.477C45.6915 136.997 44.9075 136.437 44.2515 136.053L43.5635 136.709C44.1715 137.077 44.8915 137.637 45.3715 138.085C44.3955 138.741 43.2915 139.269 42.2195 139.589C42.4435 139.797 42.7315 140.213 42.8595 140.469C43.4675 140.277 44.0595 140.021 44.6355 139.717V139.909H47.3075V141.589H44.1395C43.9955 142.725 43.7715 144.149 43.5795 145.093H47.2435C47.0995 146.613 46.9235 147.269 46.6835 147.477C46.5555 147.605 46.3955 147.621 46.1075 147.621C45.8035 147.621 44.9235 147.605 44.0595 147.525C44.2355 147.813 44.3955 148.229 44.4115 148.549C45.2755 148.597 46.1235 148.613 46.5235 148.581C46.9875 148.549 47.3075 148.453 47.5795 148.181C47.9635 147.813 48.1715 146.869 48.3635 144.629C48.3955 144.501 48.4115 144.165 48.4115 144.165H44.7635ZM54.7955 143.461L54.6035 143.509H49.1475V144.373H54.0435C53.6435 145.029 53.1155 145.589 52.5075 146.085C51.5635 145.541 50.5715 144.965 49.7235 144.517L49.1475 145.173C49.9315 145.605 50.8115 146.133 51.6755 146.645C50.6995 147.221 49.5635 147.637 48.3955 147.893C48.6035 148.101 48.8275 148.501 48.9395 148.773C50.2675 148.437 51.5155 147.941 52.6035 147.221C53.5315 147.797 54.3795 148.357 54.9555 148.789L55.5475 148.021C55.0035 147.621 54.2355 147.141 53.3875 146.613C54.2835 145.861 55.0035 144.901 55.4515 143.733L54.7955 143.461ZM55.7555 135.845C55.2275 136.405 54.3155 137.173 53.5955 137.701C53.1635 137.397 52.7635 137.077 52.4275 136.725C53.1475 136.213 54.0435 135.525 54.7315 134.869L53.8515 134.245C53.3715 134.789 52.5235 135.541 51.8355 136.101C51.3235 135.493 50.9075 134.853 50.5875 134.165L49.6435 134.453C50.4755 136.277 51.8035 137.797 53.4515 138.901H49.8995V140.149C49.8995 140.917 49.6755 141.781 48.4115 142.469C48.6355 142.613 49.0195 142.997 49.1795 143.205C50.5875 142.389 50.9235 141.205 50.9235 140.181V139.861H53.0995V141.413C53.0995 142.357 53.2915 142.741 54.2675 142.741H55.5795C55.8995 142.741 56.2195 142.741 56.3955 142.677C56.3635 142.437 56.3315 142.085 56.3315 141.829C56.1235 141.877 55.7715 141.893 55.5635 141.893H54.3795C54.1395 141.893 54.1075 141.781 54.1075 141.429V139.301C54.8115 139.701 55.5795 140.021 56.3955 140.277C56.5715 139.989 56.8595 139.573 57.1155 139.349C56.1395 139.093 55.2275 138.709 54.3795 138.213C55.1155 137.733 55.9795 137.077 56.6355 136.453L55.7555 135.845ZM66.7955 136.613C66.4755 135.973 65.8515 134.933 65.3395 134.181L64.3475 134.549C64.8435 135.349 65.4515 136.421 65.7395 137.061L66.7955 136.613ZM72.7155 145.781C71.6755 144.805 69.6755 143.221 68.1075 142.005C68.1395 141.893 68.1715 141.749 68.2035 141.621H72.7155V140.517H68.3635C68.3795 140.277 68.3795 140.069 68.3795 139.845V138.213H72.3475V137.109H69.8675C70.3475 136.341 70.8755 135.365 71.3235 134.517L70.1395 134.133C69.7875 135.029 69.2115 136.245 68.6835 137.109H63.5475V138.213H67.2115V139.829C67.2115 140.053 67.2115 140.277 67.1955 140.517H63.0515V141.621H67.0195C66.6835 143.029 65.6915 144.581 62.8915 145.765C63.1635 145.973 63.5315 146.373 63.6915 146.613C65.9155 145.573 67.0995 144.293 67.7235 143.045C69.2275 144.229 70.9715 145.685 71.8835 146.613L72.7155 145.781ZM61.9155 136.613C61.4995 135.941 60.6995 134.933 60.0115 134.149L59.0995 134.645C59.7715 135.445 60.5875 136.565 60.9715 137.237L61.9155 136.613ZM61.8995 141.733L61.6915 141.765H60.0275C60.9075 140.693 62.0915 139.045 62.7315 138.101L61.9475 137.749L61.7555 137.829H58.5235V138.805H61.0355C60.3635 139.781 59.4355 141.061 59.0675 141.429C58.8115 141.717 58.5555 141.813 58.3155 141.877C58.4435 142.133 58.6835 142.677 58.7635 142.965C58.8755 142.837 59.2915 142.741 59.6915 142.741H61.2435C60.7475 145.205 59.7075 146.965 58.2675 147.957C58.5075 148.117 58.9075 148.533 59.0515 148.773C59.8195 148.197 60.5235 147.397 61.0675 146.357C62.3155 148.165 64.3315 148.485 67.5795 148.485C69.3235 148.485 71.3235 148.453 72.8275 148.357C72.8755 148.037 73.0355 147.509 73.2115 147.253C71.5955 147.397 69.2755 147.461 67.5955 147.461C64.5555 147.461 62.5395 147.205 61.5155 145.413C61.9155 144.437 62.2195 143.269 62.4275 141.957L61.8995 141.733ZM77.4835 148.373C78.3955 147.621 78.9715 146.405 79.3555 145.301L78.3955 144.949C78.0595 145.973 77.4515 147.125 76.5715 147.797L77.4835 148.373ZM82.1875 147.653C81.5155 147.653 81.4035 147.589 81.4035 147.237V145.013H80.3155V147.253C80.3155 148.341 80.6675 148.629 82.0915 148.629H84.6515C85.7395 148.629 86.0915 148.245 86.2035 146.661C85.9155 146.597 85.4675 146.453 85.2275 146.277C85.1795 147.493 85.0675 147.653 84.5395 147.653H82.1875ZM85.0355 145.445C84.4595 144.949 83.3235 144.293 82.3795 143.861L81.7075 144.517C82.6355 144.981 83.7555 145.685 84.2995 146.181L85.0355 145.445ZM85.7075 145.221C86.6035 146.165 87.5635 147.461 87.9475 148.325L88.9075 147.829C88.4915 146.949 87.4995 145.701 86.6035 144.789L85.7075 145.221ZM84.6035 139.589H82.1395V138.725H84.6035V139.589ZM84.6035 141.157H82.1395V140.277H84.6035V141.157ZM84.6035 142.789H82.1395V141.861H84.6035V142.789ZM81.1155 144.069H82.1395V143.589H88.6355V142.789H85.6115V141.861H87.9955V141.157H85.6115V140.277H87.9475V139.589H85.6115V138.725H88.3635V137.941H85.4195L85.8035 137.749C85.5955 137.381 85.1795 136.821 84.7795 136.421L83.9475 136.789C84.2515 137.125 84.5715 137.573 84.7795 137.941H82.3955C82.6035 137.557 82.8115 137.157 82.9875 136.757L81.9795 136.485C81.4035 137.845 80.4435 139.237 79.4195 140.165C79.6595 140.325 80.0755 140.661 80.2515 140.821C80.5395 140.549 80.8275 140.213 81.1155 139.861V144.069ZM83.1475 135.397C82.9235 134.917 82.5395 134.309 82.1875 133.845L81.1635 134.197C81.4355 134.549 81.6915 134.997 81.9155 135.397H75.5155V140.165C75.5155 142.485 75.4195 145.749 74.2675 148.053C74.5075 148.181 74.9875 148.549 75.1635 148.757C76.3635 146.421 76.6035 143.013 76.6195 140.565C76.8275 140.741 77.0835 141.013 77.2115 141.157C77.5955 140.789 78.0115 140.373 78.3955 139.909V144.069H79.4195V138.533C79.8035 137.973 80.1395 137.397 80.4435 136.805L79.4355 136.517C78.7795 137.893 77.7235 139.269 76.6195 140.245V140.165V136.389H88.9075V135.397H83.1475ZM99.7715 135.301H98.8755V137.829H97.5955V134.165H96.6355V137.829H95.3235V135.285H94.4595V138.789H99.7715V135.301ZM92.9395 134.149C92.3635 135.189 91.2435 136.501 90.2195 137.317C90.4115 137.525 90.7315 137.973 90.8755 138.213C91.9955 137.269 93.2435 135.829 94.0275 134.549L92.9395 134.149ZM93.2755 137.333C92.4915 139.013 91.2435 140.693 90.0435 141.845C90.2515 142.069 90.6195 142.645 90.7475 142.869C91.1955 142.405 91.6755 141.861 92.1235 141.237V148.725H93.2115V139.669C93.6115 139.029 93.9955 138.341 94.3155 137.685L93.2755 137.333ZM103.404 138.357C103.18 140.293 102.844 141.989 102.3 143.445C101.868 142.133 101.564 140.677 101.356 139.109C101.452 138.853 101.548 138.613 101.644 138.357H103.404ZM105.116 138.357V137.333H101.948C102.22 136.373 102.428 135.365 102.604 134.325L101.58 134.133C101.212 136.485 100.636 138.725 99.6435 140.277V139.829H94.3155V140.741H99.6435C99.8355 140.981 100.06 141.285 100.14 141.461C100.348 141.157 100.54 140.853 100.716 140.517C100.956 142.037 101.276 143.445 101.74 144.661C101.26 145.541 100.7 146.293 99.9795 146.933V146.293L97.6755 146.517V144.965H99.8035V144.069H97.6755V142.533C98.5395 142.373 99.3075 142.197 99.8675 142.005L99.3555 141.269C98.1875 141.621 95.8035 142.037 94.0435 142.181C94.2195 142.389 94.4275 142.741 94.5235 142.965C95.1795 142.901 95.9155 142.805 96.6195 142.693V144.069H94.4275V144.965H96.6195V146.629C95.5955 146.725 94.6515 146.821 93.8995 146.885L94.0595 147.877C95.6115 147.701 97.6755 147.429 99.7235 147.157C99.3555 147.461 98.9555 147.733 98.5235 147.989C98.7315 148.181 99.1475 148.597 99.3075 148.805C100.54 148.005 101.5 147.029 102.236 145.861C102.812 147.029 103.548 147.989 104.492 148.693C104.652 148.421 105.004 148.005 105.244 147.797C104.22 147.125 103.436 146.101 102.828 144.789C103.66 143.045 104.156 140.933 104.444 138.357H105.116ZM107.724 148.325C108.54 147.573 109.196 146.389 109.644 145.429L108.652 144.981C108.268 145.909 107.564 147.061 106.764 147.765L107.724 148.325ZM117.58 141.573H109.932V140.469H117.58V141.573ZM117.58 143.461H109.932V142.357H117.58V143.461ZM118.748 139.653H108.796V144.277H112.812L112.268 144.789C113.148 145.301 114.236 146.053 114.748 146.581L115.484 145.845C114.988 145.381 114.028 144.709 113.196 144.277H118.748V139.653ZM112.652 147.621C111.82 147.621 111.676 147.541 111.676 147.173V145.109H110.508V147.173C110.508 148.309 110.94 148.613 112.556 148.613H115.564C116.844 148.613 117.212 148.181 117.34 146.421C117.036 146.341 116.572 146.181 116.316 146.005C116.236 147.429 116.14 147.621 115.452 147.621H112.652ZM117.564 145.253C118.364 146.117 119.244 147.285 119.596 148.085L120.604 147.573C120.204 146.789 119.308 145.637 118.508 144.837L117.564 145.253ZM116.3 136.293C116.124 136.757 115.836 137.381 115.564 137.877H111.868C111.74 137.413 111.452 136.773 111.164 136.293H116.3ZM116.78 137.877C117.02 137.461 117.276 136.997 117.532 136.501L116.604 136.293H119.788V135.317H114.684C114.492 134.901 114.236 134.389 113.964 134.021L112.812 134.261C113.004 134.581 113.212 134.949 113.372 135.317H107.66V136.293H111.068L110.06 136.517C110.3 136.933 110.508 137.461 110.636 137.877H106.94V138.853H120.604V137.877H116.78ZM135.452 139.925H131.724V138.389H135.452V139.925ZM135.452 142.357H131.724V140.789H135.452V142.357ZM135.452 144.821H131.724V143.237H135.452V144.821ZM130.7 137.461V145.749H136.508V137.461H133.724C133.852 136.981 133.98 136.437 134.108 135.909H136.94V134.885H130.172V135.909H132.924C132.86 136.405 132.764 136.981 132.668 137.461H130.7ZM125.244 144.053C125.036 145.141 124.684 146.245 124.188 147.029C124.444 147.141 124.86 147.365 125.036 147.509C125.516 146.677 125.948 145.445 126.188 144.229L125.244 144.053ZM126.028 140.805H128.78V142.389H126.028V140.805ZM126.028 138.405H128.78V139.957H126.028V138.405ZM129.772 143.285V137.525H127.58C127.708 137.045 127.852 136.485 127.996 135.941H129.836V134.885H123.212V140.741C123.212 142.933 123.132 145.829 122.236 147.877C122.444 147.973 122.908 148.293 123.084 148.485C124.092 146.325 124.252 143.061 124.252 140.741V135.941H126.844C126.78 136.437 126.668 137.029 126.572 137.525H125.068V143.285H126.892V147.621C126.892 147.765 126.844 147.797 126.7 147.797C126.524 147.813 126.06 147.813 125.484 147.797C125.628 148.069 125.772 148.469 125.82 148.725C126.604 148.725 127.116 148.709 127.468 148.565C127.788 148.389 127.884 148.117 127.884 147.637V143.285H129.772ZM130.268 146.565C130.108 145.925 129.676 144.837 129.292 144.021L128.476 144.293C128.844 145.125 129.26 146.229 129.404 146.917L130.268 146.565ZM132.028 146.101C131.452 146.773 130.3 147.557 129.292 148.005C129.532 148.213 129.884 148.549 130.06 148.757C131.052 148.293 132.268 147.461 133.02 146.677L132.028 146.101ZM134.124 146.677C134.924 147.285 135.9 148.181 136.38 148.757L137.276 148.133C136.78 147.557 135.772 146.693 135.004 146.117L134.124 146.677ZM139.308 150.677C140.796 148.277 141.676 145.701 141.676 142.549C141.676 139.413 140.796 136.821 139.308 134.437L138.412 134.853C139.788 137.141 140.46 139.829 140.46 142.549C140.46 145.269 139.788 147.973 138.412 150.245L139.308 150.677Z" fill="black"/>
<path d="M18.6859 33.68C16.5739 33.68 14.9539 33.224 13.8259 32.312C12.6979 31.4 12.1339 30.104 12.1339 28.424C12.1339 26.912 12.5659 25.7 13.4299 24.788C14.2939 23.852 15.4219 23.384 16.8139 23.384C18.2779 23.384 19.1299 23.996 19.3699 25.22C18.3859 25.34 17.5939 25.7 16.9939 26.3C16.4179 26.876 16.1299 27.632 16.1299 28.568C16.1299 29.408 16.3819 30.068 16.8859 30.548C17.3899 31.028 18.0619 31.268 18.9019 31.268C20.2939 31.268 21.4339 30.644 22.3219 29.396C23.2099 28.148 23.6539 26.552 23.6539 24.608C23.6539 22.952 23.3059 21.68 22.6099 20.792C21.9139 19.88 20.9419 19.424 19.6939 19.424C18.4219 19.424 16.8499 19.964 14.9779 21.044L14.5099 20.72L17.2819 7.076C19.9939 7.388 22.0099 7.544 23.3299 7.544C25.5139 7.544 27.6019 7.208 29.5939 6.536C29.6419 7.064 29.6659 7.46 29.6659 7.724C29.6659 8.972 29.3299 9.98 28.6579 10.748C28.0099 11.516 26.9659 11.9 25.5259 11.9C24.9739 11.9 24.3139 11.84 23.5459 11.72C22.7779 11.6 22.0459 11.468 21.3499 11.324C20.7499 11.204 20.1379 11.096 19.5139 11L18.0739 17.516C19.6339 16.772 21.1219 16.4 22.5379 16.4C24.5059 16.4 26.0539 17.072 27.1819 18.416C28.3339 19.736 28.9099 21.536 28.9099 23.816C28.9099 25.76 28.4779 27.476 27.6139 28.964C26.7739 30.452 25.5739 31.616 24.0139 32.456C22.4779 33.272 20.7019 33.68 18.6859 33.68Z" fill="black"/>
<path d="M150.794 198.451C152.906 198.451 154.526 198.907 155.654 199.819C156.782 200.731 157.346 202.027 157.346 203.707C157.346 205.219 156.914 206.431 156.05 207.343C155.186 208.279 154.058 208.747 152.666 208.747C151.202 208.747 150.35 208.135 150.11 206.911C151.094 206.791 151.886 206.431 152.486 205.831C153.062 205.255 153.35 204.499 153.35 203.563C153.35 202.723 153.098 202.063 152.594 201.583C152.09 201.103 151.418 200.863 150.578 200.863C149.186 200.863 148.046 201.487 147.158 202.735C146.27 203.983 145.826 205.579 145.826 207.523C145.826 209.179 146.174 210.451 146.87 211.339C147.566 212.251 148.538 212.707 149.786 212.707C151.058 212.707 152.63 212.167 154.502 211.087L154.97 211.411L152.198 225.055C149.486 224.743 147.47 224.587 146.15 224.587C143.966 224.587 141.878 224.923 139.886 225.595C139.838 225.067 139.814 224.671 139.814 224.407C139.814 223.159 140.15 222.151 140.822 221.383C141.47 220.615 142.514 220.231 143.954 220.231C144.506 220.231 145.166 220.291 145.934 220.411C146.702 220.531 147.434 220.663 148.13 220.807C148.73 220.927 149.342 221.035 149.966 221.131L151.406 214.615C149.846 215.359 148.358 215.731 146.942 215.731C144.974 215.731 143.426 215.059 142.298 213.715C141.146 212.395 140.57 210.595 140.57 208.315C140.57 206.371 141.002 204.655 141.866 203.167C142.706 201.679 143.906 200.515 145.466 199.675C147.002 198.859 148.778 198.451 150.794 198.451Z" fill="black"/>
</svg>
