<svg width="169" height="236" viewBox="0 0 169 236" fill="none" xmlns="http://www.w3.org/2000/svg">
<path d="M162.04 235.746H6.19595C2.88678 235.746 0.203125 233.055 0.203125 229.736V6.13088C0.203125 2.81252 2.88678 0.121399 6.19595 0.121399H162.05C165.359 0.121399 168.043 2.81252 168.043 6.13088V229.736C168.032 233.055 165.349 235.746 162.04 235.746Z" fill="white"/>
<path d="M29.785 48.4733C27.3714 45.8268 24.5518 43.2481 23.3788 41.891C22.4991 40.8731 21.8675 40.104 21.6194 39.7873V39.629C21.6194 39.629 21.5968 39.6516 21.5517 39.7194C21.5066 39.6742 21.484 39.629 21.484 39.629V39.7873C21.2359 40.104 20.6043 40.8731 19.7246 41.891C18.5516 43.2481 15.7319 45.8268 13.3183 48.4733C10.9047 51.1199 10.7017 53.7664 11.1528 55.9605C11.604 58.1546 13.9048 60.2131 17.4914 59.7607C18.6193 59.6249 19.4539 59.0821 20.0404 58.4035C19.6343 61.5024 17.9651 63.131 17.9651 63.131H24.9353C23.6721 61.706 23.2209 59.6928 23.0405 58.4261C23.6495 59.1047 24.4616 59.6249 25.5894 59.7607C29.176 60.2131 31.4768 58.1546 31.928 55.9605C32.4017 53.7664 32.1987 51.1199 29.785 48.4733Z" fill="black"/>
<path d="M139.859 183.658C142.273 186.304 145.093 188.883 146.266 190.24C147.145 191.258 147.777 192.027 148.025 192.344L148.025 192.502C148.025 192.502 148.048 192.479 148.093 192.412C148.138 192.457 148.161 192.502 148.161 192.502L148.161 192.344C148.409 192.027 149.04 191.258 149.92 190.24C151.093 188.883 153.913 186.304 156.326 183.658C158.74 181.011 158.943 178.365 158.492 176.17C158.041 173.976 155.74 171.918 152.153 172.37C151.025 172.506 150.191 173.049 149.604 173.728C150.01 170.629 151.679 169 151.679 169L144.709 169C145.972 170.425 146.424 172.438 146.604 173.705C145.995 173.026 145.183 172.506 144.055 172.37C140.469 171.918 138.168 173.976 137.717 176.17C137.243 178.365 137.446 181.011 139.859 183.658Z" fill="black"/>
<path d="M22.3665 86.1492C21.7105 87.2692 20.3985 88.6292 19.2305 89.4772C19.4065 89.7012 19.7265 90.1012 19.8705 90.3412C21.1505 89.3652 22.5745 87.8932 23.4545 86.5492L22.3665 86.1492ZM22.7505 89.3812C21.8705 91.0612 20.4465 92.7252 19.0705 93.8132C19.2945 94.0532 19.6305 94.6292 19.7585 94.8532C20.2545 94.4372 20.7825 93.9252 21.2785 93.3492V100.805H22.3985V91.9732C22.9265 91.2532 23.4065 90.5012 23.8066 89.7492L22.7505 89.3812ZM30.7185 95.3172C30.1265 96.2772 29.2626 97.0932 28.2705 97.7492C27.4705 97.2532 26.7666 96.6612 26.1746 96.0052C26.3825 95.7812 26.5745 95.5572 26.7666 95.3172H30.7185ZM31.5985 94.2772L31.4066 94.3252H27.4866C27.7746 93.9252 28.0306 93.4772 28.2545 93.0452L31.8066 92.8212C32.1586 93.3012 32.4306 93.7652 32.6386 94.1332L33.6146 93.5732C33.0705 92.6452 31.9346 91.1732 30.9906 90.1172L30.0626 90.5972C30.4145 90.9972 30.7825 91.4612 31.1505 91.9252L26.1425 92.1972C28.0946 91.1572 30.0626 89.8292 31.9506 88.2772L30.8625 87.6692C30.2066 88.2612 29.4706 88.8532 28.7506 89.3812L25.9025 89.4772C26.9265 88.7572 27.9825 87.8132 28.9425 86.8212L27.7746 86.3092C26.7985 87.4772 25.3906 88.6292 24.9745 88.9332C24.5585 89.2212 24.2225 89.4452 23.9186 89.4932C24.0626 89.8132 24.2545 90.3892 24.3025 90.6452C24.5426 90.5492 24.9745 90.4692 27.3586 90.3572C26.4626 90.9332 25.7266 91.3972 25.3586 91.5892C24.6065 92.0212 24.0465 92.2932 23.5826 92.3572C23.7105 92.6612 23.9025 93.2372 23.9506 93.4612C24.2545 93.3492 24.6705 93.2852 26.9586 93.1412C26.5585 93.8452 26.0306 94.5332 25.4706 95.1412C25.2786 94.8692 25.1185 94.5972 24.9585 94.3092L23.9825 94.6452C24.2225 95.0612 24.4625 95.4772 24.7505 95.8452C24.3186 96.2452 23.8386 96.5972 23.3745 96.9012C23.6145 97.1092 24.0306 97.5412 24.1905 97.7812C24.6065 97.4612 25.0385 97.1252 25.4545 96.7252C25.9665 97.3172 26.5906 97.8772 27.2305 98.3572C25.9345 99.0292 24.4625 99.5092 23.0065 99.7812C23.2305 100.021 23.4865 100.501 23.5826 100.805C25.2146 100.421 26.8306 99.8612 28.2705 99.0292C29.5985 99.8132 31.1186 100.405 32.7986 100.773C32.9586 100.453 33.2626 100.005 33.5185 99.7492C31.9826 99.4772 30.5585 98.9812 29.2945 98.3572C30.6226 97.3972 31.6786 96.1812 32.3345 94.6452L31.5985 94.2772ZM46.2705 95.1892V98.7252H38.5425V95.1892H46.2705ZM37.3425 100.741H38.5425V99.8772H46.2705V100.709H47.5185V94.0532H37.3425V100.741ZM43.9986 88.5652C44.7666 89.2532 45.5826 90.0852 46.3186 90.9172L38.1585 91.3172C39.5665 89.9892 40.9906 88.3412 42.2545 86.6132L41.0865 86.0852C39.8386 88.0692 37.9825 90.0852 37.4065 90.5972C36.8785 91.1252 36.4625 91.4772 36.1105 91.5412C36.2385 91.8612 36.4465 92.4532 36.4945 92.7092C37.1185 92.4852 38.0465 92.4532 47.1826 91.9412C47.5826 92.4372 47.9186 92.9012 48.1586 93.3172L49.1666 92.5972C48.3345 91.2692 46.4945 89.3172 44.9425 87.9572L43.9986 88.5652ZM65.2626 89.8452C65.0546 89.1252 64.5106 87.9892 63.9826 87.1412L63.1026 87.4612C63.6306 88.3252 64.1266 89.4932 64.3345 90.2132L65.2626 89.8452ZM61.1665 87.8612H59.4385C59.2786 87.3812 59.0065 86.7412 58.7666 86.2452L57.7905 86.4532C57.9826 86.8852 58.1746 87.4132 58.3345 87.8612H56.3665V88.8052H61.1665V87.8612ZM54.6065 90.1492H52.9265V87.9092H54.6065V90.1492ZM52.9265 94.4372H54.6065V96.6132C54.0305 96.7412 53.4545 96.8692 52.9265 96.9812V94.4372ZM54.6065 93.4452H52.9265V91.1572H54.6065V93.4452ZM56.3186 87.9092V86.8212H51.1665V87.9092H52.0145V97.1732C51.6465 97.2212 51.3105 97.3012 51.0065 97.3492L51.2465 98.3732C52.2225 98.1332 53.4065 97.8772 54.6065 97.5892V100.757H55.5505V87.9092H56.3186ZM57.6625 97.5892V96.0852H59.9346V97.5892H57.6625ZM59.9346 93.7492V95.2212H57.6625V93.7492H59.9346ZM64.5585 92.8532C64.2226 93.9572 63.7586 94.9812 63.2146 95.9092C63.0546 94.8052 62.9265 93.4612 62.8465 91.9732H65.6786V90.9332H62.7825C62.7025 89.4452 62.6706 87.8292 62.6546 86.1492H61.6146C61.6466 87.8292 61.6946 89.4452 61.7585 90.9332H60.1426C60.3186 90.4052 60.5266 89.7332 60.7185 89.1252L59.7266 88.9492C59.6466 89.5092 59.4385 90.3252 59.2626 90.9332H58.1266C58.0465 90.3732 57.8706 89.5732 57.6785 88.9652L56.7986 89.0932C56.9585 89.6692 57.1026 90.3732 57.1825 90.9332H56.0945V91.9732H61.8225C61.9346 93.9892 62.1105 95.7492 62.3666 97.1732C61.9186 97.7812 61.3906 98.3572 60.8625 98.8532V92.8852H56.7185V99.5732H57.6625V98.4532H59.9346V98.8852H60.8306C60.3986 99.2852 59.9506 99.6532 59.4866 99.9572C59.6946 100.117 60.0146 100.405 60.1746 100.597C61.0546 99.9892 61.8865 99.2372 62.6546 98.3412C63.0546 99.8292 63.6146 100.693 64.4145 100.709C64.9586 100.725 65.4866 100.085 65.7906 97.6852C65.6146 97.5892 65.1826 97.3012 65.0226 97.0932C64.9106 98.5492 64.7025 99.4132 64.4466 99.4132C64.0465 99.3972 63.7106 98.6292 63.4385 97.3172C64.2866 96.1492 64.9906 94.8052 65.4866 93.3172L64.5585 92.8532ZM72.2705 98.0212H71.0065V93.1252H73.6305V92.0212H71.0065V89.1252H73.3266V88.0212H69.2465C69.4065 87.4772 69.5505 86.9012 69.6785 86.3412L68.5905 86.1172C68.2385 87.7972 67.6785 89.5412 66.9105 90.6932C67.1825 90.8212 67.6625 91.0772 67.8705 91.2372C68.2225 90.6612 68.5585 89.9252 68.8625 89.1252H69.9345V92.0212H67.1505V93.1252H69.9345V98.0212H68.7025V94.1652H67.7265V99.0772H72.2705V99.6052H73.2625V94.1812H72.2705V98.0212ZM77.8386 89.9572H79.6306V93.5092H77.7906C77.8225 92.9172 77.8386 92.3252 77.8386 91.7332V89.9572ZM81.7586 94.6132V93.5092H80.7186V88.8372H77.8386V86.1332H76.7506V88.8372H74.3025V89.9572H76.7506V91.7172C76.7506 92.3092 76.7346 92.9172 76.6866 93.5092H74.0146V94.6132H76.5585C76.2545 96.5972 75.4385 98.4852 73.3745 99.9892C73.6305 100.165 74.0465 100.533 74.2386 100.789C76.5106 99.0932 77.3745 96.9172 77.6785 94.6132H81.7586ZM78.1905 95.6212C79.1026 97.2212 80.1905 99.4292 80.7186 100.677L81.7906 100.229C81.2306 98.9812 80.0946 96.8532 79.1666 95.2532L78.1905 95.6212ZM87.0385 88.2452L86.4305 88.7092C86.9425 89.2052 87.5985 89.8772 87.9186 90.2932L88.7025 89.6372C88.3986 89.2692 87.8066 88.6772 87.3105 88.2452H90.3345V87.2852H86.2065C86.3825 86.9652 86.5265 86.6452 86.6705 86.3252L85.6145 86.0372C85.0705 87.3652 84.1585 88.6452 83.1665 89.5252C83.4225 89.7172 83.8385 90.1172 83.9985 90.3092C84.5745 89.7652 85.1505 89.0452 85.6625 88.2452H87.0385ZM94.7346 97.7492V99.2852H87.0385V97.7492H94.7346ZM93.9025 93.4452V94.8052H87.0385V93.4452H93.9025ZM87.0385 95.7172H95.0705V92.5332H85.8545V100.757H87.0385V100.213H94.7346V100.725H95.9026V96.8212H87.0385V95.7172ZM89.4865 89.6052C89.6625 89.9092 89.8225 90.2772 89.9665 90.6132H84.0945V93.2212H85.2465V91.5572H95.8225V93.2212H97.0066V90.6132H91.1826C91.0386 90.2132 90.7666 89.7492 90.5426 89.3812L89.4865 89.6052ZM92.7825 87.3012C92.9586 86.9812 93.1026 86.6452 93.2305 86.3092L92.1426 86.0372C91.7425 87.1252 91.0225 88.1652 90.1585 88.8532C90.4305 89.0132 90.8625 89.3812 91.0546 89.5572C91.4705 89.2052 91.8546 88.7412 92.2226 88.2452H94.0465L93.3586 88.8052C93.9506 89.3012 94.6866 89.9892 95.0546 90.4372L95.8546 89.7332C95.4866 89.3172 94.7825 88.7092 94.2066 88.2452H97.6466V87.3012H92.7825ZM104.079 96.3092L102.335 96.8852V92.9172H103.935V91.8132H102.335V88.3412H104.175V87.2212H99.2145V88.3412H101.199V91.8132H99.3905V92.9172H101.199V97.2372C100.383 97.5092 99.6465 97.7332 99.0545 97.9092L99.3265 99.1092C100.751 98.6452 102.575 98.0212 104.287 97.4452L104.079 96.3092ZM106.047 90.9172H108.479V92.9492H106.047V90.9172ZM106.047 87.9092H108.479V89.9252H106.047V87.9092ZM111.951 89.9252H109.503V87.9092H111.951V89.9252ZM111.951 92.9492H109.503V90.9172H111.951V92.9492ZM109.599 99.1412V96.9492H113.327V95.8612H109.599V93.9892H113.087V86.8692H104.959V93.9892H108.399V95.8612H104.767V96.9492H108.399V99.1412H103.535V100.229H113.839V99.1412H109.599ZM121.375 94.9652C120.527 95.1892 119.647 95.4292 118.815 95.6532V89.1572H121.135V88.0212H115.311V89.1572H117.647V95.9732C116.671 96.2132 115.791 96.4372 115.087 96.5972L115.391 97.8132C117.071 97.3492 119.359 96.7092 121.519 96.0692L121.375 94.9652ZM125.103 89.7652C125.135 88.6772 125.151 87.5572 125.151 86.4052H123.967C123.967 87.5732 123.951 88.6932 123.919 89.7652H121.247V90.9172H123.871C123.631 94.7892 122.751 98.0212 119.359 99.8292C119.647 100.037 120.047 100.469 120.207 100.773C123.855 98.7252 124.783 95.1572 125.039 90.9172H128.239C127.999 96.5812 127.743 98.7252 127.295 99.2372C127.119 99.4292 126.927 99.4772 126.623 99.4772C126.271 99.4772 125.359 99.4772 124.383 99.3812C124.591 99.7172 124.735 100.213 124.751 100.549C125.647 100.613 126.591 100.629 127.103 100.581C127.663 100.517 127.983 100.389 128.335 99.9572C128.943 99.2212 129.151 96.9332 129.407 90.3732C129.423 90.2132 129.423 89.7652 129.423 89.7652H125.103ZM144.031 93.0292C144.607 93.0292 145.183 92.9972 145.455 92.9332C145.407 92.6612 145.359 92.2132 145.327 91.8932C145.023 91.9732 144.383 91.9892 143.999 91.9892H141.055C140.543 91.9892 140.415 91.7972 140.415 91.2212V89.4132H144.719V88.3572H140.415V86.1492H139.247V91.1892C139.247 92.5332 139.631 93.0292 141.039 93.0292H144.031ZM133.471 94.3252C134.335 94.8532 135.439 95.5892 135.999 96.0532L136.639 95.3972C136.063 94.9492 134.943 94.2292 134.095 93.7332L133.471 94.3252ZM133.343 92.8212H136.655V96.0532C135.375 96.6932 134.111 97.3332 133.215 97.7332C133.311 97.0292 133.343 96.3252 133.343 95.7172V92.8212ZM137.791 91.7972H132.239V95.7012C132.239 97.0612 132.143 98.7412 131.231 99.9572C131.471 100.117 131.887 100.533 132.047 100.789C132.719 99.9572 133.039 98.8532 133.199 97.7972L133.615 98.7572C134.511 98.2452 135.599 97.6212 136.655 96.9972V99.4612C136.655 99.6692 136.607 99.7332 136.383 99.7332C136.175 99.7332 135.519 99.7492 134.751 99.7172C134.911 100.005 135.071 100.405 135.135 100.709C136.127 100.709 136.831 100.693 137.231 100.517C137.663 100.341 137.791 100.069 137.791 99.4612V91.7972ZM135.807 87.6692C136.143 88.1652 136.479 88.7092 136.799 89.2532L133.519 89.4772C134.303 88.6452 135.071 87.5732 135.743 86.5332L134.559 86.1332C133.887 87.4292 132.831 88.7252 132.527 89.0612C132.207 89.3972 131.935 89.6372 131.679 89.6852C131.823 89.9732 131.999 90.5652 132.063 90.8052C132.431 90.6292 132.991 90.5652 137.327 90.2132C137.535 90.6132 137.711 90.9812 137.839 91.3012L138.863 90.8372C138.463 89.8932 137.551 88.3892 136.767 87.3012L135.807 87.6692ZM141.311 99.5572C140.559 99.5572 140.415 99.4612 140.415 98.9332V96.5332H144.895V95.4612H140.415V93.5572H139.247V98.9332C139.247 100.245 139.647 100.613 141.199 100.613H144.031C145.359 100.613 145.711 100.069 145.855 97.9892C145.535 97.9092 145.071 97.7332 144.799 97.5412C144.719 99.2532 144.607 99.5572 143.935 99.5572H141.311ZM13.6295 126.677L14.5415 126.245C13.1495 123.973 12.4935 121.269 12.4935 118.549C12.4935 115.829 13.1495 113.141 14.5415 110.853L13.6295 110.437C12.1575 112.821 11.2775 115.413 11.2775 118.549C11.2775 121.701 12.1575 124.277 13.6295 126.677ZM24.7798 112.149V112.309C24.7798 113.141 24.3958 114.229 20.2518 114.789C20.4598 114.981 20.7638 115.413 20.8918 115.669C23.7078 115.237 24.9718 114.501 25.4998 113.717C26.4918 114.693 28.0278 115.333 29.8518 115.589C29.9958 115.301 30.2998 114.869 30.5238 114.645C28.4278 114.469 26.6838 113.845 25.8358 112.885C25.8678 112.693 25.8838 112.517 25.8838 112.357V112.149H28.4278C28.2038 112.613 27.9158 113.077 27.6758 113.413L28.6198 113.749C29.0518 113.189 29.5638 112.261 29.9638 111.445L29.1638 111.173L28.9718 111.221H23.6118C23.7238 110.933 23.8518 110.645 23.9478 110.341L22.8758 110.101C22.5238 111.269 21.8678 112.389 21.0358 113.141C21.2918 113.269 21.7398 113.573 21.9318 113.749C22.3638 113.317 22.7798 112.757 23.1318 112.149H24.7798ZM19.2918 120.293H27.3078V121.413H19.2918V120.293ZM19.2918 118.437H27.3078V119.525H19.2918V118.437ZM19.2918 116.581H27.3078V117.669H19.2918V116.581ZM18.1398 122.197H28.4918V115.781H18.1398V122.197ZM20.2198 111.093H16.3958V112.021H20.2198V111.093ZM20.6198 113.573H16.0438V114.533H20.6198V113.573ZM20.8118 122.309C19.6758 122.933 17.7558 123.509 16.1238 123.845C16.3958 124.053 16.7958 124.501 17.0038 124.741C18.5878 124.309 20.6038 123.557 21.8838 122.789L20.8118 122.309ZM24.7158 122.933C26.4438 123.509 28.1718 124.197 29.1958 124.709L30.2358 124.021C29.1158 123.509 27.2438 122.821 25.5318 122.293L24.7158 122.933ZM35.7398 112.133C35.4838 111.573 35.0038 110.725 34.5718 110.069L33.7238 110.549C34.1238 111.205 34.6198 112.101 34.8438 112.677L35.7398 112.133ZM37.7718 112.853H32.0278V113.829H37.7718V112.853ZM37.1638 115.893V114.949H32.6678V115.893H37.1638ZM36.2038 120.149V122.789H33.5958V120.149H36.2038ZM37.1798 119.157H32.6518V124.533H33.5958V123.781H37.1798V119.157ZM32.6678 117.973H37.1958V117.029H32.6678V117.973ZM37.9318 111.045V112.181H39.9158V116.901H37.7558V118.005H39.9158V124.725H41.0358V118.005H43.1478V116.901H41.0358V112.181H43.6918C43.6758 118.741 43.6278 123.973 45.1958 124.453C45.9318 124.757 46.4438 124.245 46.6198 122.005C46.4438 121.845 46.1238 121.445 45.9318 121.141C45.8678 122.293 45.7558 123.317 45.6598 123.285C44.7638 123.061 44.7958 117.509 44.8918 111.045H37.9318ZM55.3078 122.805V116.469H61.2598V115.285H55.3078V110.389H54.0598V122.805H48.0918V123.989H62.3478V122.805H55.3078ZM76.5718 115.797H73.2918V112.485H76.5718V115.797ZM77.7398 111.429H72.1718V116.837H77.7398V111.429ZM69.8358 112.869C69.6758 114.917 69.5158 115.749 69.3078 115.989C69.1798 116.133 69.0518 116.149 68.8438 116.149C68.6038 116.149 68.0598 116.133 67.4358 116.085C67.6118 116.373 67.7238 116.805 67.7558 117.141C68.3958 117.173 69.0038 117.173 69.3398 117.141C69.7238 117.109 69.9958 117.013 70.2518 116.725C70.6358 116.309 70.7958 115.173 70.9718 112.309C70.9878 112.165 71.0038 111.829 71.0038 111.829H67.7238C67.7878 111.301 67.8198 110.741 67.8518 110.165H66.6838C66.6678 110.741 66.6358 111.317 66.5878 111.829H64.1558V112.869H66.4438C66.1398 114.629 65.4678 115.957 63.8518 116.789C64.1078 116.965 64.4438 117.397 64.5878 117.653C66.4758 116.645 67.2598 115.013 67.5958 112.869H69.8358ZM68.1398 120.373C67.2598 121.557 65.7078 122.629 64.2198 123.317C64.5078 123.493 64.9878 123.893 65.2118 124.117C66.6518 123.333 68.2998 122.101 69.3078 120.757L68.1398 120.373ZM77.9798 119.829V118.757H71.7878V117.221H70.5718V118.757H64.2358V119.829H70.5718V124.773H71.7878V119.829H77.9798ZM72.9558 121.061C74.5238 121.925 76.4438 123.285 77.3558 124.181L78.2518 123.365C77.2918 122.469 75.3238 121.173 73.7718 120.341L72.9558 121.061ZM88.4438 119.765L89.5318 118.853C88.5398 117.669 87.0838 116.229 85.9478 115.301L84.9078 116.213C86.0438 117.141 87.4038 118.501 88.4438 119.765ZM110.284 112.501V111.317H96.1558V112.501H102.268V124.725H103.532V116.309C105.356 117.285 107.5 118.597 108.588 119.493L109.42 118.421C108.156 117.461 105.644 116.021 103.74 115.109L103.532 115.349V112.501H110.284ZM124.572 115.797H121.292V112.485H124.572V115.797ZM125.74 111.429H120.172V116.837H125.74V111.429ZM117.836 112.869C117.676 114.917 117.516 115.749 117.308 115.989C117.18 116.133 117.052 116.149 116.844 116.149C116.604 116.149 116.06 116.133 115.436 116.085C115.612 116.373 115.724 116.805 115.756 117.141C116.396 117.173 117.004 117.173 117.34 117.141C117.724 117.109 117.996 117.013 118.252 116.725C118.636 116.309 118.796 115.173 118.972 112.309C118.988 112.165 119.004 111.829 119.004 111.829H115.724C115.788 111.301 115.82 110.741 115.852 110.165H114.684C114.668 110.741 114.636 111.317 114.588 111.829H112.156V112.869H114.444C114.14 114.629 113.468 115.957 111.852 116.789C112.108 116.965 112.444 117.397 112.588 117.653C114.476 116.645 115.26 115.013 115.596 112.869H117.836ZM116.14 120.373C115.26 121.557 113.708 122.629 112.22 123.317C112.508 123.493 112.988 123.893 113.212 124.117C114.652 123.333 116.3 122.101 117.308 120.757L116.14 120.373ZM125.98 119.829V118.757H119.788V117.221H118.572V118.757H112.236V119.829H118.572V124.773H119.788V119.829H125.98ZM120.956 121.061C122.524 121.925 124.444 123.285 125.356 124.181L126.252 123.365C125.292 122.469 123.324 121.173 121.772 120.341L120.956 121.061ZM136.444 119.765L137.532 118.853C136.54 117.669 135.084 116.229 133.948 115.301L132.908 116.213C134.044 117.141 135.404 118.501 136.444 119.765ZM157.004 115.877H153.42V114.357H157.004V115.877ZM157.004 118.325H153.42V116.773H157.004V118.325ZM157.004 120.773H153.42V119.221H157.004V120.773ZM152.46 113.413V121.717H157.996V113.413H155.324C155.436 112.965 155.548 112.421 155.66 111.925H158.3V110.901H152.012V111.925H154.492C154.46 112.405 154.396 112.949 154.316 113.413H152.46ZM144.732 124.741C145.244 124.005 145.628 122.837 145.884 121.941L145.004 121.573C144.78 122.437 144.332 123.605 143.836 124.277L144.732 124.741ZM146.492 121.893C146.652 122.725 146.78 123.797 146.796 124.501L147.74 124.357C147.708 123.653 147.548 122.597 147.372 121.765L146.492 121.893ZM145.692 113.605H150.316V114.757H145.692V113.605ZM145.692 111.685H150.316V112.837H145.692V111.685ZM146.556 119.157C146.668 119.413 146.796 119.701 146.876 120.005L145.468 120.133C146.268 119.285 147.084 118.197 147.788 117.077L146.876 116.709C146.732 117.029 146.54 117.317 146.348 117.621L145.292 117.701C145.676 117.157 146.076 116.469 146.364 115.781L145.596 115.557H149.404C149.116 116.357 148.572 117.157 148.412 117.365C148.268 117.573 148.108 117.717 147.932 117.749C148.044 117.989 148.204 118.453 148.252 118.661C148.396 118.565 148.684 118.517 149.74 118.405C149.308 118.949 148.94 119.397 148.764 119.573C148.428 119.893 148.188 120.133 147.932 120.181C148.028 120.405 148.188 120.885 148.236 121.093V121.109C148.476 120.997 148.892 120.917 151.388 120.645C151.5 120.917 151.58 121.157 151.644 121.381L152.412 121.045C152.22 120.437 151.804 119.525 151.404 118.805L150.684 119.109C150.812 119.349 150.924 119.589 151.052 119.861L149.452 120.021C150.268 119.173 151.084 118.101 151.804 117.029L150.86 116.645C150.716 116.949 150.524 117.253 150.332 117.541L149.244 117.621C149.644 117.109 150.044 116.469 150.364 115.829L149.516 115.557H151.388V110.885H144.668V115.557H145.42C145.18 116.389 144.652 117.221 144.492 117.413C144.332 117.637 144.204 117.781 144.028 117.813C144.14 118.053 144.268 118.501 144.332 118.709C144.492 118.629 144.764 118.565 145.788 118.453C145.356 119.029 144.988 119.493 144.796 119.653C144.492 120.005 144.236 120.229 143.98 120.277C144.092 120.517 144.252 120.981 144.284 121.189C144.508 121.077 144.908 121.013 147.116 120.757C147.18 120.965 147.212 121.157 147.244 121.317L147.98 121.077C147.852 120.485 147.564 119.605 147.228 118.933L146.556 119.157ZM148.14 121.781C148.428 122.533 148.732 123.509 148.844 124.149L149.708 123.893C149.612 123.269 149.276 122.293 148.972 121.557L148.14 121.781ZM149.932 121.445C150.348 122.101 150.796 122.997 150.988 123.573L151.836 123.221C151.628 122.661 151.164 121.797 150.732 121.141L149.932 121.445ZM153.836 122.117C153.292 122.773 152.204 123.589 151.244 124.053C151.484 124.261 151.82 124.581 151.996 124.789C152.94 124.309 154.076 123.477 154.796 122.693L153.836 122.117ZM155.772 122.709C156.492 123.333 157.372 124.213 157.82 124.789L158.668 124.181C158.236 123.589 157.324 122.757 156.604 122.149L155.772 122.709ZM47.4215 135.285H36.2535V136.453H47.4215V135.285ZM37.5015 141.973C36.8295 143.765 35.7095 145.525 34.4455 146.645C34.7495 146.821 35.2775 147.173 35.5335 147.381C36.7655 146.149 37.9815 144.261 38.7336 142.293L37.5015 141.973ZM48.8135 140.245V139.077H34.8295V140.245H41.1175V148.661H42.3496V140.245H48.8135ZM45.0216 142.389C46.1736 143.909 47.3896 145.989 47.8216 147.301L49.0056 146.773C48.5255 145.413 47.2936 143.413 46.0935 141.925L45.0216 142.389ZM53.5655 148.373C54.4776 147.621 55.0535 146.405 55.4376 145.301L54.4776 144.949C54.1416 145.973 53.5335 147.125 52.6535 147.797L53.5655 148.373ZM58.2696 147.653C57.5975 147.653 57.4855 147.589 57.4855 147.237V145.013H56.3976V147.253C56.3976 148.341 56.7495 148.629 58.1735 148.629H60.7336C61.8216 148.629 62.1736 148.245 62.2856 146.661C61.9976 146.597 61.5496 146.453 61.3096 146.277C61.2615 147.493 61.1496 147.653 60.6216 147.653H58.2696ZM61.1175 145.445C60.5415 144.949 59.4056 144.293 58.4615 143.861L57.7895 144.517C58.7176 144.981 59.8376 145.685 60.3815 146.181L61.1175 145.445ZM61.7895 145.221C62.6856 146.165 63.6456 147.461 64.0296 148.325L64.9896 147.829C64.5736 146.949 63.5816 145.701 62.6856 144.789L61.7895 145.221ZM60.6855 139.589H58.2215V138.725H60.6855V139.589ZM60.6855 141.157H58.2215V140.277H60.6855V141.157ZM60.6855 142.789H58.2215V141.861H60.6855V142.789ZM57.1975 144.069H58.2215V143.589H64.7176V142.789H61.6936V141.861H64.0775V141.157H61.6936V140.277H64.0296V139.589H61.6936V138.725H64.4455V137.941H61.5015L61.8856 137.749C61.6776 137.381 61.2615 136.821 60.8616 136.421L60.0296 136.789C60.3336 137.125 60.6536 137.573 60.8616 137.941H58.4776C58.6855 137.557 58.8935 137.157 59.0696 136.757L58.0616 136.485C57.4855 137.845 56.5255 139.237 55.5015 140.165C55.7415 140.325 56.1575 140.661 56.3335 140.821C56.6216 140.549 56.9096 140.213 57.1975 139.861V144.069ZM59.2296 135.397C59.0056 134.917 58.6215 134.309 58.2696 133.845L57.2456 134.197C57.5175 134.549 57.7736 134.997 57.9976 135.397H51.5975V140.165C51.5975 142.485 51.5015 145.749 50.3495 148.053C50.5895 148.181 51.0695 148.549 51.2455 148.757C52.4455 146.421 52.6855 143.013 52.7015 140.565C52.9095 140.741 53.1655 141.013 53.2935 141.157C53.6775 140.789 54.0935 140.373 54.4776 139.909V144.069H55.5015V138.533C55.8856 137.973 56.2215 137.397 56.5255 136.805L55.5175 136.517C54.8615 137.893 53.8055 139.269 52.7015 140.245V140.165V136.389H64.9896V135.397H59.2296ZM75.8535 135.301H74.9576V137.829H73.6775V134.165H72.7175V137.829H71.4056V135.285H70.5415V138.789H75.8535V135.301ZM69.0215 134.149C68.4455 135.189 67.3255 136.501 66.3015 137.317C66.4935 137.525 66.8135 137.973 66.9575 138.213C68.0775 137.269 69.3255 135.829 70.1095 134.549L69.0215 134.149ZM69.3575 137.333C68.5735 139.013 67.3255 140.693 66.1255 141.845C66.3335 142.069 66.7015 142.645 66.8295 142.869C67.2775 142.405 67.7575 141.861 68.2055 141.237V148.725H69.2935V139.669C69.6935 139.029 70.0775 138.341 70.3975 137.685L69.3575 137.333ZM79.4855 138.357C79.2615 140.293 78.9256 141.989 78.3815 143.445C77.9496 142.133 77.6455 140.677 77.4376 139.109C77.5336 138.853 77.6295 138.613 77.7256 138.357H79.4855ZM81.1976 138.357V137.333H78.0296C78.3015 136.373 78.5096 135.365 78.6856 134.325L77.6616 134.133C77.2936 136.485 76.7176 138.725 75.7255 140.277V139.829H70.3975V140.741H75.7255C75.9176 140.981 76.1416 141.285 76.2215 141.461C76.4296 141.157 76.6216 140.853 76.7976 140.517C77.0375 142.037 77.3576 143.445 77.8216 144.661C77.3415 145.541 76.7816 146.293 76.0616 146.933V146.293L73.7575 146.517V144.965H75.8856V144.069H73.7575V142.533C74.6215 142.373 75.3896 142.197 75.9495 142.005L75.4376 141.269C74.2696 141.621 71.8856 142.037 70.1255 142.181C70.3015 142.389 70.5095 142.741 70.6055 142.965C71.2615 142.901 71.9976 142.805 72.7016 142.693V144.069H70.5095V144.965H72.7016V146.629C71.6775 146.725 70.7336 146.821 69.9815 146.885L70.1416 147.877C71.6936 147.701 73.7575 147.429 75.8055 147.157C75.4376 147.461 75.0375 147.733 74.6055 147.989C74.8135 148.181 75.2296 148.597 75.3896 148.805C76.6216 148.005 77.5816 147.029 78.3176 145.861C78.8935 147.029 79.6295 147.989 80.5736 148.693C80.7336 148.421 81.0856 148.005 81.3256 147.797C80.3015 147.125 79.5176 146.101 78.9096 144.789C79.7416 143.045 80.2376 140.933 80.5255 138.357H81.1976ZM89.3735 139.253V137.205H92.9256C92.1735 137.925 91.3575 138.613 90.4936 139.253H89.3735ZM93.7095 144.581H87.2295V142.997H93.7095V144.581ZM87.2295 147.189V145.525H93.7095V147.189H87.2295ZM96.8776 140.325V139.253H92.2696C93.7256 138.053 95.0375 136.709 96.1575 135.237L95.1496 134.693C94.6055 135.429 93.9976 136.133 93.3256 136.805V136.149H89.3735V134.149H88.2055V136.149H84.1255V137.205H88.2055V139.253H82.7335V140.325H88.9576C86.9415 141.621 84.7015 142.677 82.3815 143.493C82.6055 143.733 82.9895 144.213 83.1335 144.469C84.1095 144.101 85.1015 143.669 86.0615 143.205V148.741H87.2295V148.229H93.7095V148.677H94.9256V141.989H88.3175C89.1975 141.477 90.0616 140.917 90.8935 140.325H96.8776ZM107.374 136.149V136.309C107.374 137.141 106.99 138.229 102.846 138.789C103.054 138.981 103.358 139.413 103.486 139.669C106.302 139.237 107.566 138.501 108.094 137.717C109.086 138.693 110.622 139.333 112.446 139.589C112.59 139.301 112.894 138.869 113.118 138.645C111.022 138.469 109.278 137.845 108.43 136.885C108.462 136.693 108.478 136.517 108.478 136.357V136.149H111.022C110.798 136.613 110.51 137.077 110.27 137.413L111.214 137.749C111.646 137.189 112.158 136.261 112.558 135.445L111.758 135.173L111.566 135.221H106.206C106.318 134.933 106.446 134.645 106.542 134.341L105.47 134.101C105.118 135.269 104.462 136.389 103.63 137.141C103.886 137.269 104.334 137.573 104.526 137.749C104.958 137.317 105.374 136.757 105.726 136.149H107.374ZM101.886 144.293H109.902V145.413H101.886V144.293ZM101.886 142.437H109.902V143.525H101.886V142.437ZM101.886 140.581H109.902V141.669H101.886V140.581ZM100.734 146.197H111.086V139.781H100.734V146.197ZM102.814 135.093H98.9895V136.021H102.814V135.093ZM103.214 137.573H98.6375V138.533H103.214V137.573ZM103.406 146.309C102.27 146.933 100.35 147.509 98.7175 147.845C98.9895 148.053 99.3895 148.501 99.5975 148.741C101.182 148.309 103.198 147.557 104.478 146.789L103.406 146.309ZM107.31 146.933C109.038 147.509 110.766 148.197 111.79 148.709L112.83 148.021C111.71 147.509 109.838 146.821 108.126 146.293L107.31 146.933ZM125.182 137.221C124.67 136.629 123.566 135.813 122.67 135.269L122.062 136.069C122.974 136.661 124.062 137.525 124.574 138.133L125.182 137.221ZM124.494 141.045C123.934 140.469 122.75 139.749 121.806 139.253L121.246 140.085C122.206 140.597 123.342 141.413 123.902 142.005L124.494 141.045ZM119.87 135.109C119.63 136.181 119.182 137.749 118.798 138.693L119.582 138.949C120.014 138.053 120.51 136.565 120.894 135.365L119.87 135.109ZM116.542 138.677C116.43 137.717 116.062 136.277 115.598 135.173L114.734 135.381C115.166 136.501 115.518 137.973 115.614 138.917L116.542 138.677ZM115.998 141.525C115.726 142.949 115.07 144.725 114.414 145.653C114.622 146.005 114.894 146.565 115.022 146.965C115.854 145.813 116.526 143.573 116.862 141.797L115.998 141.525ZM120.91 140.597V139.477H118.286V134.149H117.182V139.477H114.622V140.597H117.182V148.757H118.286V140.597H120.91ZM118.366 142.005C118.702 142.693 119.582 144.725 119.87 145.605L120.718 144.725C120.478 144.181 119.326 142.005 119.022 141.541L118.366 142.005ZM129.198 143.877L129.022 142.789L127.134 143.125V134.149H126.014V143.333L120.862 144.245L121.054 145.349L126.014 144.453V148.741H127.134V144.245L129.198 143.877ZM131.39 150.677C132.878 148.277 133.758 145.701 133.758 142.549C133.758 139.413 132.878 136.821 131.39 134.437L130.494 134.853C131.87 137.141 132.542 139.829 132.542 142.549C132.542 145.269 131.87 147.973 130.494 150.245L131.39 150.677Z" fill="black"/>
<path d="M24.308 17.732C25.316 18.668 26.12 19.484 26.72 20.18C27.344 20.876 27.872 21.68 28.304 22.592C28.736 23.48 28.952 24.44 28.952 25.472C28.952 26.96 28.52 28.34 27.656 29.612C26.816 30.86 25.664 31.856 24.2 32.6C22.76 33.344 21.176 33.716 19.448 33.716C17.912 33.716 16.532 33.428 15.308 32.852C14.108 32.252 13.16 31.436 12.464 30.404C11.792 29.348 11.456 28.136 11.456 26.768C11.456 25.088 12.008 23.624 13.112 22.376C14.216 21.104 15.944 19.94 18.296 18.884C17.264 17.804 16.46 16.796 15.884 15.86C15.332 14.9 15.056 13.868 15.056 12.764C15.056 11.564 15.404 10.472 16.1 9.488C16.796 8.48 17.744 7.688 18.944 7.112C20.168 6.536 21.512 6.248 22.976 6.248C24.248 6.248 25.388 6.464 26.396 6.896C27.404 7.328 28.184 7.94 28.736 8.732C29.312 9.5 29.6 10.364 29.6 11.324C29.6 13.676 27.836 15.812 24.308 17.732ZM23.372 7.976C22.46 7.976 21.692 8.312 21.068 8.984C20.468 9.632 20.168 10.472 20.168 11.504C20.168 12.368 20.396 13.184 20.852 13.952C21.308 14.696 21.968 15.488 22.832 16.328C23.72 15.536 24.428 14.636 24.956 13.628C25.484 12.62 25.748 11.648 25.748 10.712C25.748 9.872 25.532 9.212 25.1 8.732C24.692 8.228 24.116 7.976 23.372 7.976ZM19.628 31.232C20.708 31.232 21.632 30.8 22.4 29.936C23.192 29.072 23.588 28.052 23.588 26.876C23.588 25.748 23.264 24.692 22.616 23.708C21.968 22.724 21.02 21.608 19.772 20.36C18.62 21.128 17.732 22.076 17.108 23.204C16.508 24.308 16.208 25.508 16.208 26.804C16.208 28.148 16.52 29.228 17.144 30.044C17.768 30.836 18.596 31.232 19.628 31.232Z" fill="black"/>
<path d="M145.336 214.399C144.328 213.463 143.524 212.647 142.924 211.951C142.3 211.255 141.772 210.451 141.34 209.539C140.908 208.651 140.692 207.691 140.692 206.659C140.692 205.171 141.124 203.791 141.988 202.519C142.828 201.271 143.98 200.275 145.444 199.531C146.884 198.787 148.468 198.415 150.196 198.415C151.732 198.415 153.112 198.703 154.336 199.279C155.536 199.879 156.484 200.695 157.18 201.727C157.852 202.783 158.188 203.995 158.188 205.363C158.188 207.043 157.636 208.507 156.532 209.755C155.428 211.027 153.7 212.191 151.348 213.247C152.38 214.327 153.184 215.335 153.76 216.271C154.312 217.231 154.588 218.263 154.588 219.367C154.588 220.567 154.24 221.659 153.544 222.643C152.848 223.651 151.9 224.443 150.7 225.019C149.476 225.595 148.132 225.883 146.668 225.883C145.396 225.883 144.256 225.667 143.248 225.235C142.24 224.803 141.46 224.191 140.908 223.399C140.332 222.631 140.044 221.767 140.044 220.807C140.044 218.455 141.808 216.319 145.336 214.399ZM146.272 224.155C147.184 224.155 147.952 223.819 148.576 223.147C149.176 222.499 149.476 221.659 149.476 220.627C149.476 219.763 149.248 218.947 148.792 218.179C148.336 217.435 147.676 216.643 146.812 215.803C145.924 216.595 145.216 217.495 144.688 218.503C144.16 219.511 143.896 220.483 143.896 221.419C143.896 222.259 144.112 222.919 144.544 223.399C144.952 223.903 145.528 224.155 146.272 224.155ZM150.016 200.899C148.936 200.899 148.012 201.331 147.244 202.195C146.452 203.059 146.056 204.079 146.056 205.255C146.056 206.383 146.38 207.439 147.028 208.423C147.676 209.407 148.624 210.523 149.872 211.771C151.024 211.003 151.912 210.055 152.536 208.927C153.136 207.823 153.436 206.623 153.436 205.327C153.436 203.983 153.124 202.903 152.5 202.087C151.876 201.295 151.048 200.899 150.016 200.899Z" fill="black"/>
</svg>
