<svg width="169" height="236" viewBox="0 0 169 236" fill="none" xmlns="http://www.w3.org/2000/svg">
<path d="M161.958 235.746H6.11392C2.80475 235.746 0.121094 233.055 0.121094 229.736V6.13088C0.121094 2.81252 2.80475 0.121399 6.11392 0.121399H161.968C165.277 0.121399 167.96 2.81252 167.96 6.13088V229.736C167.95 233.055 165.267 235.746 161.958 235.746Z" fill="white"/>
<path d="M29.703 48.4733C27.2894 45.8268 24.4698 43.2481 23.2968 41.891C22.4171 40.8731 21.7854 40.104 21.5373 39.7873V39.629C21.5373 39.629 21.5148 39.6516 21.4697 39.7194C21.4245 39.6742 21.402 39.629 21.402 39.629V39.7873C21.1539 40.104 20.5222 40.8731 19.6425 41.891C18.4695 43.2481 15.6499 45.8268 13.2363 48.4733C10.8227 51.1199 10.6197 53.7664 11.0708 55.9605C11.5219 58.1546 13.8228 60.2131 17.4094 59.7607C18.5372 59.6249 19.3718 59.0821 19.9583 58.4035C19.5523 61.5024 17.8831 63.131 17.8831 63.131H24.8532C23.59 61.706 23.1389 59.6928 22.9584 58.4261C23.5675 59.1047 24.3795 59.6249 25.5074 59.7607C29.094 60.2131 31.3948 58.1546 31.8459 55.9605C32.3196 53.7664 32.1166 51.1199 29.703 48.4733Z" fill="black"/>
<path d="M139.777 183.658C142.191 186.304 145.011 188.883 146.184 190.24C147.063 191.258 147.695 192.027 147.943 192.344L147.943 192.502C147.943 192.502 147.966 192.479 148.011 192.412C148.056 192.457 148.078 192.502 148.078 192.502L148.078 192.344C148.327 192.027 148.958 191.258 149.838 190.24C151.011 188.883 153.831 186.304 156.244 183.658C158.658 181.011 158.861 178.365 158.41 176.17C157.959 173.976 155.658 171.918 152.071 172.37C150.943 172.506 150.109 173.049 149.522 173.728C149.928 170.629 151.597 169 151.597 169L144.627 169C145.89 170.425 146.342 172.438 146.522 173.705C145.913 173.026 145.101 172.506 143.973 172.37C140.387 171.918 138.086 173.976 137.635 176.17C137.161 178.365 137.364 181.011 139.777 183.658Z" fill="black"/>
<path d="M16.1866 110.445C17.0986 109.693 17.6746 108.477 18.0586 107.373L17.0986 107.021C16.7626 108.045 16.1546 109.197 15.2746 109.869L16.1866 110.445ZM20.8906 109.725C20.2186 109.725 20.1066 109.661 20.1066 109.309V107.085H19.0186V109.325C19.0186 110.413 19.3706 110.701 20.7946 110.701H23.3546C24.4426 110.701 24.7946 110.317 24.9066 108.733C24.6186 108.669 24.1706 108.525 23.9306 108.349C23.8826 109.565 23.7706 109.725 23.2426 109.725H20.8906ZM23.7386 107.517C23.1626 107.021 22.0266 106.365 21.0826 105.933L20.4106 106.589C21.3386 107.053 22.4586 107.757 23.0026 108.253L23.7386 107.517ZM24.4106 107.293C25.3066 108.237 26.2666 109.533 26.6506 110.397L27.6106 109.901C27.1946 109.021 26.2026 107.773 25.3066 106.861L24.4106 107.293ZM23.3066 101.661H20.8426V100.797H23.3066V101.661ZM23.3066 103.229H20.8426V102.349H23.3066V103.229ZM23.3066 104.861H20.8426V103.933H23.3066V104.861ZM19.8186 106.141H20.8426V105.661H27.3386V104.861H24.3146V103.933H26.6986V103.229H24.3146V102.349H26.6506V101.661H24.3146V100.797H27.0666V100.013H24.1226L24.5066 99.8206C24.2986 99.4526 23.8826 98.8926 23.4826 98.4926L22.6506 98.8606C22.9546 99.1966 23.2746 99.6446 23.4826 100.013H21.0986C21.3066 99.6286 21.5146 99.2286 21.6906 98.8286L20.6826 98.5566C20.1066 99.9166 19.1466 101.309 18.1226 102.237C18.3626 102.397 18.7786 102.733 18.9546 102.893C19.2426 102.621 19.5306 102.285 19.8186 101.933V106.141ZM21.8506 97.4686C21.6266 96.9886 21.2426 96.3806 20.8906 95.9166L19.8666 96.2686C20.1386 96.6206 20.3946 97.0686 20.6186 97.4686H14.2186V102.237C14.2186 104.557 14.1226 107.821 12.9706 110.125C13.2106 110.253 13.6906 110.621 13.8666 110.829C15.0666 108.493 15.3066 105.085 15.3226 102.637C15.5306 102.813 15.7866 103.085 15.9146 103.229C16.2986 102.861 16.7146 102.445 17.0986 101.981V106.141H18.1226V100.605C18.5066 100.045 18.8426 99.4686 19.1466 98.8766L18.1386 98.5886C17.4826 99.9646 16.4266 101.341 15.3226 102.317V102.237V98.4606H27.6106V97.4686H21.8506ZM38.4746 97.3726H37.5786V99.9006H36.2986V96.2366H35.3386V99.9006H34.0266V97.3566H33.1626V100.861H38.4746V97.3726ZM31.6426 96.2206C31.0666 97.2606 29.9466 98.5726 28.9226 99.3886C29.1146 99.5966 29.4346 100.045 29.5786 100.285C30.6986 99.3406 31.9466 97.9006 32.7306 96.6206L31.6426 96.2206ZM31.9786 99.4046C31.1946 101.085 29.9466 102.765 28.7466 103.917C28.9546 104.141 29.3226 104.717 29.4506 104.941C29.8986 104.477 30.3786 103.933 30.8266 103.309V110.797H31.9146V101.741C32.3146 101.101 32.6986 100.413 33.0186 99.7566L31.9786 99.4046ZM42.1066 100.429C41.8826 102.365 41.5466 104.061 41.0026 105.517C40.5706 104.205 40.2666 102.749 40.0586 101.181C40.1546 100.925 40.2506 100.685 40.3466 100.429H42.1066ZM43.8186 100.429V99.4046H40.6506C40.9226 98.4446 41.1306 97.4366 41.3066 96.3966L40.2826 96.2046C39.9146 98.5566 39.3386 100.797 38.3466 102.349V101.901H33.0186V102.813H38.3466C38.5386 103.053 38.7626 103.357 38.8426 103.533C39.0506 103.229 39.2426 102.925 39.4186 102.589C39.6586 104.109 39.9786 105.517 40.4426 106.733C39.9626 107.613 39.4026 108.365 38.6826 109.005V108.365L36.3786 108.589V107.037H38.5066V106.141H36.3786V104.605C37.2426 104.445 38.0106 104.269 38.5706 104.077L38.0586 103.341C36.8906 103.693 34.5066 104.109 32.7466 104.253C32.9226 104.461 33.1306 104.813 33.2266 105.037C33.8826 104.973 34.6186 104.877 35.3226 104.765V106.141H33.1306V107.037H35.3226V108.701C34.2986 108.797 33.3546 108.893 32.6026 108.957L32.7626 109.949C34.3146 109.773 36.3786 109.501 38.4266 109.229C38.0586 109.533 37.6586 109.805 37.2266 110.061C37.4346 110.253 37.8506 110.669 38.0106 110.877C39.2426 110.077 40.2026 109.101 40.9386 107.933C41.5146 109.101 42.2506 110.061 43.1946 110.765C43.3546 110.493 43.7066 110.077 43.9466 109.869C42.9226 109.197 42.1386 108.173 41.5306 106.861C42.3626 105.117 42.8586 103.005 43.1466 100.429H43.8186ZM51.9946 101.325V99.2766H55.5466C54.7946 99.9966 53.9786 100.685 53.1146 101.325H51.9946ZM56.3306 106.653H49.8506V105.069H56.3306V106.653ZM49.8506 109.261V107.597H56.3306V109.261H49.8506ZM59.4986 102.397V101.325H54.8906C56.3466 100.125 57.6586 98.7806 58.7786 97.3086L57.7706 96.7646C57.2266 97.5006 56.6186 98.2046 55.9466 98.8766V98.2206H51.9946V96.2206H50.8266V98.2206H46.7466V99.2766H50.8266V101.325H45.3546V102.397H51.5786C49.5626 103.693 47.3226 104.749 45.0026 105.565C45.2266 105.805 45.6106 106.285 45.7546 106.541C46.7306 106.173 47.7226 105.741 48.6826 105.277V110.813H49.8506V110.301H56.3306V110.749H57.5466V104.061H50.9386C51.8186 103.549 52.6826 102.989 53.5146 102.397H59.4986ZM66.3146 103.181H62.9546V99.8366H66.3146V103.181ZM62.9546 108.077V104.237H66.3146V108.077H62.9546ZM64.2986 96.1726C64.1866 96.9246 63.8986 97.9966 63.6586 98.7646H61.8666V110.413H62.9546V109.149H67.4026V98.7646H64.7466C65.0186 98.0766 65.3066 97.1966 65.5786 96.4126L64.2986 96.1726ZM75.2266 98.7166H70.4426C70.7146 97.9646 70.9386 97.1966 71.1306 96.4126L69.9946 96.1406C69.4826 98.3326 68.6186 100.541 67.5466 101.949C67.8026 102.109 68.3146 102.429 68.5226 102.621C69.0826 101.869 69.5786 100.893 70.0266 99.8206H74.0906C73.8826 106.189 73.6426 108.621 73.1146 109.181C72.9546 109.389 72.7786 109.421 72.4586 109.421C72.0906 109.421 71.1306 109.421 70.0906 109.325C70.3146 109.661 70.4586 110.141 70.4906 110.493C71.3866 110.541 72.2986 110.573 72.8586 110.509C73.4026 110.461 73.7706 110.317 74.1226 109.869C74.7626 109.085 74.9706 106.621 75.2266 99.3246V98.7166ZM72.6986 105.917C72.1866 104.973 71.0826 103.437 70.1866 102.301L69.2586 102.845C70.1386 103.997 71.2106 105.581 71.6906 106.541L72.6986 105.917ZM82.6346 105.629C82.5066 104.781 82.0906 103.341 81.7066 102.237L80.7946 102.477C80.9706 102.957 81.1306 103.517 81.2746 104.061L78.9706 104.365C80.2506 102.877 81.5146 101.037 82.5386 99.1966L81.4826 98.5886C81.1306 99.3086 80.7306 100.045 80.2986 100.717L78.6346 100.877C79.4986 99.6926 80.3626 98.1406 81.0506 96.6366L79.9466 96.1886C79.3226 97.9006 78.2506 99.7246 77.8986 100.189C77.5946 100.669 77.3226 101.005 77.0506 101.069C77.1786 101.357 77.3706 101.917 77.4346 102.141C77.6586 102.045 77.9946 101.981 79.6266 101.773C79.0666 102.621 78.5546 103.277 78.3146 103.549C77.8346 104.141 77.4826 104.525 77.1466 104.605C77.2746 104.925 77.4666 105.485 77.5306 105.741C77.8186 105.581 78.3146 105.469 81.4986 105.005C81.5626 105.325 81.6266 105.645 81.6586 105.917L82.6346 105.629ZM77.8186 106.429C77.6746 107.741 77.4346 109.181 77.0506 110.173C77.3066 110.253 77.7546 110.413 77.9626 110.525C78.3146 109.517 78.6026 107.997 78.7786 106.589L77.8186 106.429ZM79.3706 106.557C79.5466 107.629 79.7066 109.053 79.7226 109.965L80.6666 109.805C80.6186 108.877 80.4426 107.485 80.2666 106.397L79.3706 106.557ZM80.8586 106.253C81.1466 107.069 81.4826 108.157 81.6106 108.861L82.4906 108.573C82.3466 107.885 82.0106 106.813 81.6906 106.013L80.8586 106.253ZM85.8186 104.781L85.6266 104.829H83.0986V105.821H85.1626C84.5866 107.373 83.4506 108.621 82.2346 109.229C82.4586 109.421 82.7626 109.821 82.9226 110.077C84.5386 109.165 85.9306 107.453 86.5066 105.037L85.8186 104.781ZM84.7946 101.133H89.7706V102.557H84.7946V101.133ZM84.7946 98.8446H89.7706V100.237H84.7946V98.8446ZM90.5386 104.061C90.1066 104.605 89.3706 105.341 88.7466 105.917C88.4266 105.325 88.1866 104.717 87.9946 104.077V103.501H90.9226V97.9006H87.3226C87.5306 97.4686 87.7706 96.9566 87.9946 96.4766L86.6666 96.2046C86.5546 96.7006 86.3466 97.3566 86.1226 97.9006H83.6746V103.501H86.8586V109.501C86.8586 109.693 86.7946 109.741 86.5866 109.757C86.3946 109.773 85.7226 109.773 84.9706 109.741C85.1306 110.061 85.2586 110.509 85.3226 110.845C86.3466 110.845 87.0186 110.829 87.4346 110.637C87.8666 110.445 87.9946 110.125 87.9946 109.517V106.509C88.7466 108.061 89.7546 109.357 91.0186 110.141C91.2106 109.837 91.5466 109.405 91.8026 109.197C90.7786 108.669 89.8826 107.789 89.1946 106.701C89.8986 106.173 90.7146 105.437 91.4346 104.781L90.5386 104.061ZM100.523 108.877V102.541H106.475V101.357H100.523V96.4606H99.2746V108.877H93.3066V110.061H107.563V108.877H100.523ZM121.467 97.8046V99.1646H111.723V97.8046H121.467ZM111.723 100.125H122.635V96.8446H110.555V101.533C110.555 104.093 110.427 107.677 108.971 110.189C109.275 110.285 109.803 110.573 110.027 110.781C111.515 108.141 111.723 104.221 111.723 101.533V100.125ZM114.219 100.317C113.675 101.101 112.811 101.853 111.931 102.381C112.139 102.557 112.507 102.941 112.651 103.133C113.547 102.525 114.539 101.565 115.163 100.621L114.219 100.317ZM117.707 107.533H121.243C120.779 108.045 120.155 108.493 119.403 108.845C118.683 108.525 118.043 108.141 117.499 107.709L117.707 107.533ZM117.307 104.669H121.483V105.453H117.307V104.669ZM117.307 103.293H121.483V104.045H117.307V103.293ZM122.107 106.749L121.931 106.781H118.459C118.651 106.557 118.827 106.349 118.987 106.109L118.939 106.093H122.523V102.653H116.763C116.939 102.429 117.115 102.205 117.275 101.949H123.099V101.133H117.755C117.883 100.909 117.995 100.701 118.091 100.477L117.147 100.173C116.715 101.181 115.963 102.141 115.179 102.813L114.507 102.573C113.819 103.725 112.683 104.813 111.547 105.549C111.739 105.773 112.027 106.301 112.123 106.493C112.443 106.285 112.763 106.013 113.083 105.757V110.813H114.139V104.685C114.555 104.221 114.955 103.693 115.275 103.181C115.435 103.405 115.595 103.661 115.675 103.789C115.899 103.613 116.107 103.405 116.315 103.165V106.093H117.851C117.563 106.445 117.211 106.781 116.827 107.101C116.651 106.893 116.475 106.685 116.331 106.461L115.467 106.749C115.675 107.069 115.899 107.341 116.139 107.613C115.691 107.933 115.227 108.205 114.731 108.445C114.955 108.605 115.323 108.941 115.483 109.101C115.931 108.861 116.363 108.589 116.811 108.253C117.259 108.653 117.755 108.989 118.315 109.293C117.339 109.629 116.267 109.853 115.211 109.997C115.371 110.205 115.611 110.573 115.691 110.829C116.971 110.621 118.251 110.301 119.387 109.821C120.443 110.269 121.627 110.589 122.891 110.797C123.003 110.525 123.259 110.141 123.483 109.933C122.427 109.789 121.403 109.565 120.491 109.261C121.451 108.701 122.235 107.965 122.763 107.037L122.107 106.749ZM136.651 104.877V102.829C137.419 103.405 138.523 104.317 138.939 104.749L139.515 103.933C139.067 103.597 137.179 102.205 136.651 101.885V101.773H139.275V100.877H136.651V99.5486C137.339 99.4046 137.979 99.2446 138.507 99.0366L137.691 98.4126C136.779 98.7806 135.003 99.0526 133.515 99.1806C133.611 99.3886 133.739 99.7086 133.787 99.9166C134.379 99.8686 135.003 99.8046 135.627 99.7086V100.877H133.467V101.773H134.987C134.395 102.701 133.499 103.613 132.635 104.061C132.843 104.253 133.147 104.573 133.323 104.813C134.155 104.253 135.035 103.261 135.627 102.221V104.877H136.651ZM131.115 104.877V102.813C131.563 103.197 132.059 103.677 132.299 103.917L132.907 103.149C132.635 102.925 131.531 102.141 131.115 101.853V101.773H132.971V100.877H131.115V99.5806C131.723 99.4366 132.283 99.2766 132.747 99.0846L131.947 98.4606C131.115 98.8126 129.483 99.0846 128.075 99.2286C128.203 99.4366 128.331 99.7566 128.379 99.9486C128.923 99.9006 129.531 99.8366 130.107 99.7406V100.877H128.043V101.773H129.675C129.115 102.701 128.283 103.613 127.499 104.077C127.723 104.237 128.027 104.573 128.187 104.813C128.843 104.317 129.563 103.469 130.107 102.557V104.877H131.115ZM127.547 98.0606H139.483V96.9726H126.427V101.677C126.427 104.189 126.299 107.709 125.019 110.205C125.307 110.317 125.803 110.605 126.011 110.781C127.355 108.157 127.547 104.317 127.547 101.677V98.0606ZM134.107 109.357V107.405H137.995V106.445H134.107V104.845H132.955V109.357H130.555V105.997H129.419V109.357H127.371V110.381H139.531V109.357H134.107ZM141.355 102.157C141.579 102.029 141.915 101.949 143.563 101.757C143.003 102.653 142.507 103.341 142.251 103.645C141.787 104.237 141.435 104.653 141.115 104.717C141.227 105.005 141.403 105.517 141.467 105.741C141.755 105.597 142.235 105.469 145.787 104.925C145.851 105.149 145.915 105.389 145.947 105.581L146.843 105.229C146.683 104.445 146.219 103.165 145.755 102.157L144.923 102.461C145.131 102.957 145.355 103.501 145.531 104.061L142.763 104.445C144.027 102.925 145.275 101.021 146.299 99.1166L145.355 98.5726C145.019 99.3246 144.587 100.077 144.187 100.765L142.523 100.925C143.371 99.7086 144.219 98.1566 144.907 96.6526L143.899 96.2206C143.291 97.9486 142.203 99.7726 141.851 100.253C141.531 100.733 141.259 101.069 141.003 101.133C141.131 101.405 141.291 101.933 141.355 102.157ZM141.739 106.429C141.579 107.725 141.339 109.133 140.987 110.125C141.211 110.189 141.675 110.333 141.867 110.445C142.203 109.469 142.491 107.965 142.651 106.589L141.739 106.429ZM143.387 106.541C143.547 107.597 143.723 108.957 143.755 109.869L144.667 109.645C144.603 108.749 144.443 107.405 144.235 106.365L143.387 106.541ZM153.707 100.093V101.677H148.283V101.597V100.093H153.707ZM154.763 102.637V99.1326H148.283V98.1406C150.539 97.9326 153.035 97.5486 154.747 97.0366L153.819 96.2366C152.331 96.7166 149.563 97.1166 147.195 97.3406V101.613C147.195 103.533 147.147 106.157 146.651 108.445C146.507 107.757 146.171 106.749 145.883 105.949L145.083 106.221C145.355 107.021 145.675 108.077 145.787 108.781L146.635 108.461C146.491 109.101 146.315 109.693 146.091 110.253C146.363 110.349 146.859 110.637 147.051 110.813C147.979 108.477 148.235 105.165 148.267 102.637H154.763ZM153.035 106.541V104.733H154.171V106.541H153.035ZM151.163 106.541V104.733H152.283V106.541H151.163ZM149.339 106.541V104.733H150.427V106.541H149.339ZM155.115 103.741H148.411V110.829H149.339V107.501H150.427V110.605H151.163V107.501H152.283V110.525H153.035V107.501H154.171V109.725C154.171 109.837 154.139 109.869 154.027 109.869C153.931 109.885 153.659 109.885 153.323 109.869C153.435 110.109 153.563 110.461 153.595 110.701C154.123 110.701 154.507 110.701 154.779 110.557C155.051 110.381 155.115 110.173 155.115 109.725V103.741ZM81.7386 129.229H77.9626V127.629H81.7386V129.229ZM82.9066 126.733H76.8426V130.125H82.9066V126.733ZM81.7386 133.421H78.0266V132.029H81.7386V133.421ZM78.0266 137.997V136.621H81.7386V137.997H78.0266ZM81.7386 135.725H78.0266V134.317H81.7386V135.725ZM70.6186 133.341H72.1546V134.797H70.6186V133.341ZM70.6186 131.069H72.1546V132.493H70.6186V131.069ZM74.6186 132.493H73.0186V131.069H74.6186V132.493ZM74.6186 134.797H73.0186V133.341H74.6186V134.797ZM83.7706 132.029V131.069H75.9146V132.029H76.9226V137.997H76.0426V136.989H73.1306V135.693H75.5626V130.173H73.1306V129.005H75.8506V127.949H73.1306V126.237H72.0426V127.949H69.2746V129.005H72.0426V130.173H69.7066V135.693H72.0426V136.989H69.1146V138.045H72.0426V140.829H73.1306V138.045H75.6106V139.069H81.7386V140.829H82.8586V139.069H83.7226V137.997H82.8586V132.029H83.7706ZM94.2026 139.309V136.829H97.0506V139.309H94.2026ZM90.5706 139.309H87.8506V136.829H90.5706V139.309ZM90.3786 130.333H87.5306V127.901H90.3786V130.333ZM94.3306 127.901H97.3066V130.333H94.3306V127.901ZM99.6906 136.365C98.7946 135.549 97.3706 134.653 95.8346 133.837H99.5786V132.813H96.7786L97.1466 132.413C96.6666 132.029 95.7866 131.597 95.0346 131.309H98.3946V126.925H93.2906V131.309H94.7786L94.2666 131.853C94.8906 132.093 95.6426 132.461 96.1866 132.813H91.6106C91.9786 132.301 92.2986 131.757 92.5706 131.229L91.4826 131.021V126.925H86.4746V131.309H91.2426C90.9866 131.805 90.6506 132.317 90.2186 132.813H85.2906V133.837H89.2426C88.1546 134.813 86.7146 135.677 84.9386 136.333C85.1786 136.509 85.4826 136.925 85.6106 137.197C86.0106 137.053 86.4106 136.861 86.7946 136.685V140.797H87.8506V140.285H90.5706V140.701H91.6746V135.853H88.2826C89.2426 135.245 90.0746 134.557 90.7466 133.837H93.7866C95.0666 134.445 96.2826 135.149 97.3066 135.853H93.1466V140.797H94.2026V140.285H97.0506V140.701H98.1386V136.461C98.4106 136.669 98.6346 136.861 98.8586 137.069L99.6906 136.365Z" fill="black"/>
<path d="M10.1193 11.036H6.69933L7.13133 9.38C8.45133 9.38 9.81933 9.2 11.2353 8.84C12.6513 8.48 14.3313 7.724 16.2753 6.572L10.5513 33.5H5.36733L10.1193 11.036ZM23.2765 33.68C21.5725 33.68 19.9525 33.26 18.4165 32.42C16.8805 31.58 16.1125 29.96 16.1125 27.56C16.1125 26 16.4845 24.752 17.2285 23.816C17.9965 22.88 19.0765 22.412 20.4685 22.412C22.1005 22.412 23.0365 23.024 23.2765 24.248C22.0525 24.32 21.2125 24.74 20.7565 25.508C20.3245 26.276 20.1085 27.152 20.1085 28.136C20.1085 29.168 20.4085 29.972 21.0085 30.548C21.6085 31.124 22.3405 31.412 23.2045 31.412C23.9725 31.412 24.7045 31.184 25.4005 30.728C26.1205 30.272 26.7085 29.576 27.1645 28.64C27.6205 27.704 27.8485 26.576 27.8485 25.256C27.8485 23.792 27.4405 22.436 26.6245 21.188C25.8325 19.916 24.6445 19.004 23.0605 18.452C24.3325 18.092 25.4365 17.528 26.3725 16.76C27.3085 15.968 28.0165 15.104 28.4965 14.168C28.9765 13.208 29.2165 12.296 29.2165 11.432C29.2165 10.544 28.9765 9.836 28.4965 9.308C28.0405 8.756 27.3685 8.48 26.4805 8.48C25.6165 8.48 24.9205 8.744 24.3925 9.272C23.8885 9.776 23.6365 10.448 23.6365 11.288C23.6365 11.864 23.7445 12.404 23.9605 12.908C24.2005 13.412 24.5485 13.724 25.0045 13.844C24.1165 14.66 23.2045 15.068 22.2685 15.068C21.5245 15.068 20.9005 14.804 20.3965 14.276C19.9165 13.724 19.6765 12.968 19.6765 12.008C19.6765 10.928 20.0005 9.98 20.6485 9.164C21.3205 8.324 22.2205 7.676 23.3485 7.22C24.4765 6.764 25.7365 6.536 27.1285 6.536C28.5445 6.536 29.7565 6.776 30.7645 7.256C31.7725 7.736 32.5285 8.372 33.0325 9.164C33.5605 9.956 33.8245 10.832 33.8245 11.792C33.8245 13.04 33.4045 14.264 32.5645 15.464C31.7245 16.664 30.5005 17.672 28.8925 18.488C30.4045 18.992 31.5325 19.772 32.2765 20.828C33.0445 21.86 33.4285 23.06 33.4285 24.428C33.4285 25.916 32.9965 27.38 32.1325 28.82C31.2925 30.236 30.0925 31.4 28.5325 32.312C26.9965 33.224 25.2445 33.68 23.2765 33.68Z" fill="black"/>
<path d="M159.36 221.095L162.78 221.095L162.348 222.751C161.028 222.751 159.66 222.931 158.244 223.291C156.828 223.651 155.148 224.407 153.204 225.559L158.928 198.631L164.112 198.631L159.36 221.095ZM146.203 198.451C147.907 198.451 149.527 198.871 151.063 199.711C152.599 200.551 153.367 202.171 153.367 204.571C153.367 206.131 152.995 207.379 152.251 208.315C151.483 209.251 150.403 209.719 149.011 209.719C147.379 209.719 146.443 209.107 146.203 207.883C147.427 207.811 148.267 207.391 148.723 206.623C149.155 205.855 149.371 204.979 149.371 203.995C149.371 202.963 149.071 202.159 148.471 201.583C147.871 201.007 147.139 200.719 146.275 200.719C145.507 200.719 144.775 200.947 144.079 201.403C143.359 201.859 142.771 202.555 142.315 203.491C141.859 204.427 141.631 205.555 141.631 206.875C141.631 208.339 142.039 209.695 142.855 210.943C143.647 212.215 144.835 213.127 146.419 213.679C145.147 214.039 144.043 214.603 143.107 215.371C142.171 216.163 141.463 217.027 140.983 217.963C140.503 218.923 140.263 219.835 140.263 220.699C140.263 221.587 140.503 222.295 140.983 222.823C141.439 223.375 142.111 223.651 142.999 223.651C143.863 223.651 144.559 223.387 145.087 222.859C145.591 222.355 145.843 221.683 145.843 220.843C145.843 220.267 145.735 219.727 145.519 219.223C145.279 218.719 144.931 218.407 144.475 218.287C145.363 217.471 146.275 217.063 147.211 217.063C147.955 217.063 148.579 217.327 149.083 217.855C149.563 218.407 149.803 219.163 149.803 220.123C149.803 221.203 149.479 222.151 148.831 222.967C148.159 223.807 147.259 224.455 146.131 224.911C145.003 225.367 143.743 225.595 142.351 225.595C140.935 225.595 139.723 225.355 138.715 224.875C137.707 224.395 136.951 223.759 136.447 222.967C135.919 222.175 135.655 221.299 135.655 220.339C135.655 219.091 136.075 217.867 136.915 216.667C137.755 215.467 138.979 214.459 140.587 213.643C139.075 213.139 137.947 212.359 137.203 211.303C136.435 210.271 136.051 209.071 136.051 207.703C136.051 206.215 136.483 204.751 137.347 203.311C138.187 201.895 139.387 200.731 140.947 199.819C142.483 198.907 144.235 198.451 146.203 198.451Z" fill="black"/>
</svg>
