<svg width="169" height="236" viewBox="0 0 169 236" fill="none" xmlns="http://www.w3.org/2000/svg">
<path d="M161.958 235.746H6.11392C2.80475 235.746 0.121094 233.055 0.121094 229.736V6.13088C0.121094 2.81252 2.80475 0.121399 6.11392 0.121399H161.968C165.277 0.121399 167.96 2.81252 167.96 6.13088V229.736C167.95 233.055 165.267 235.746 161.958 235.746Z" fill="white"/>
<path d="M29.703 48.4733C27.2894 45.8268 24.4698 43.2481 23.2968 41.891C22.4171 40.8731 21.7854 40.104 21.5373 39.7873V39.629C21.5373 39.629 21.5148 39.6516 21.4697 39.7194C21.4245 39.6742 21.402 39.629 21.402 39.629V39.7873C21.1539 40.104 20.5222 40.8731 19.6425 41.891C18.4695 43.2481 15.6499 45.8268 13.2363 48.4733C10.8227 51.1199 10.6197 53.7664 11.0708 55.9605C11.5219 58.1546 13.8228 60.2131 17.4094 59.7607C18.5372 59.6249 19.3718 59.0821 19.9583 58.4035C19.5523 61.5024 17.8831 63.131 17.8831 63.131H24.8532C23.59 61.706 23.1389 59.6928 22.9584 58.4261C23.5675 59.1047 24.3795 59.6249 25.5074 59.7607C29.094 60.2131 31.3948 58.1546 31.8459 55.9605C32.3196 53.7664 32.1166 51.1199 29.703 48.4733Z" fill="black"/>
<path d="M139.777 183.658C142.191 186.304 145.011 188.883 146.184 190.24C147.063 191.258 147.695 192.027 147.943 192.344L147.943 192.502C147.943 192.502 147.966 192.479 148.011 192.412C148.056 192.457 148.078 192.502 148.078 192.502L148.078 192.344C148.327 192.027 148.958 191.258 149.838 190.24C151.011 188.883 153.831 186.304 156.244 183.658C158.658 181.011 158.861 178.365 158.41 176.17C157.959 173.976 155.658 171.918 152.071 172.37C150.943 172.506 150.109 173.049 149.522 173.728C149.928 170.629 151.597 169 151.597 169L144.627 169C145.89 170.425 146.342 172.438 146.522 173.705C145.913 173.026 145.101 172.506 143.973 172.37C140.387 171.918 138.086 173.976 137.635 176.17C137.161 178.365 137.364 181.011 139.777 183.658Z" fill="black"/>
<path d="M61.7245 96.3966V97.4846H55.1005V96.3966H61.7245ZM55.1005 99.4206V98.3326H61.7245V99.4206H55.1005ZM53.9325 100.797H55.1005V100.269H61.7245V100.749H62.9245V95.5486H53.9325V100.797ZM60.6365 93.9166C60.9725 93.4366 61.3725 92.7166 61.7245 92.0286L60.7165 91.7086C60.5405 92.2526 60.1245 93.1006 59.8365 93.6286L60.6365 93.9166ZM54.9885 92.0446C55.3885 92.6366 55.7565 93.4046 55.8845 93.9166L56.7965 93.5806C56.6525 93.0686 56.2525 92.3326 55.8365 91.7726L54.9885 92.0446ZM54.0285 91.5966H57.8045V93.9806H54.0285V91.5966ZM62.6205 93.9806H58.8125V91.5966H62.6205V93.9806ZM53.0045 94.7966H63.6925V90.7646H53.0045V94.7966ZM56.3485 89.1166C57.1165 88.6526 57.8205 88.1086 58.4285 87.5166C59.0365 88.0926 59.7565 88.6366 60.5245 89.1166H56.3485ZM58.2525 86.1566C56.7485 88.0926 53.9165 89.5006 51.0205 90.2686C51.2285 90.4926 51.5645 90.9566 51.6925 91.1806C53.0365 90.7646 54.3965 90.2206 55.6125 89.5326V89.9806H61.1645V89.4846C62.4125 90.1886 63.7885 90.7326 65.0845 91.1006C65.2605 90.8126 65.5805 90.3966 65.8365 90.1726C63.3405 89.5966 60.5725 88.3006 59.0685 86.8446C59.1485 86.7486 59.2125 86.6366 59.2925 86.5406L58.2525 86.1566ZM78.1725 89.4526H70.6045V87.7886H78.1725V89.4526ZM79.4045 86.8286H69.4205V90.4126H79.4045V86.8286ZM69.9325 96.1406H78.8125V97.2926H69.9325V96.1406ZM69.9325 94.1726H78.8125V95.2926H69.9325V94.1726ZM69.9325 92.2046H78.8125V93.3246H69.9325V92.2046ZM80.0285 98.1726V91.3246H68.7485V98.1726H71.7405C70.7485 98.8286 68.6845 99.5646 67.0205 99.9486C67.3085 100.189 67.6925 100.589 67.9005 100.829C69.5325 100.413 71.5965 99.6446 72.8765 98.8606L71.8045 98.1726H80.0285ZM75.6445 98.9726C77.3245 99.4686 79.4685 100.285 80.6685 100.845L81.6925 99.9806C80.4445 99.4686 78.3165 98.6846 76.6685 98.2046L75.6445 98.9726ZM86.9725 96.3646C86.1565 97.4846 84.8125 98.6366 83.5645 99.4046C83.8685 99.5806 84.3645 99.9646 84.5885 100.173C85.7885 99.3406 87.1965 98.0446 88.1565 96.7806L86.9725 96.3646ZM95.3245 95.1646C95.6445 95.5806 95.9485 95.9646 96.1725 96.2846L97.1805 95.6606C96.5085 94.7166 95.1325 93.2446 93.9165 92.1566L92.9565 92.6526C93.4365 93.1166 93.9645 93.6606 94.4765 94.2206L87.6605 94.6686C89.8845 93.6606 92.1405 92.4126 94.3165 90.8766L93.3885 90.0926C92.8125 90.5246 92.2045 90.9566 91.5645 91.3406L87.6445 91.5486C88.7805 90.9406 89.9485 90.1726 91.0205 89.3406L90.0125 88.7006C91.7405 88.2366 93.3405 87.7406 94.6205 87.1646L93.7405 86.2366C91.4685 87.3086 87.3725 88.3006 83.7885 88.9566C83.9325 89.2286 84.0765 89.6446 84.1405 89.9486C86.0445 89.6126 88.0605 89.1966 89.9645 88.7006C88.6205 89.8846 86.8445 90.9406 86.2685 91.2126C85.7405 91.5006 85.3405 91.6766 84.9725 91.7086C85.1165 92.0126 85.2765 92.6046 85.3405 92.8286C85.6765 92.7166 86.2205 92.6366 89.8205 92.4286C88.2685 93.3246 86.9085 94.0126 86.3005 94.2686C85.3405 94.7166 84.6365 94.9726 84.1085 95.0366C84.2365 95.3566 84.4125 95.9166 84.4605 96.1726C84.9085 95.9966 85.5485 95.9006 89.9005 95.5806V99.3566C89.9005 99.5486 89.8525 99.5966 89.5805 99.6126C89.3245 99.6446 88.4605 99.6446 87.5005 99.5966C87.6925 99.9166 87.9005 100.429 87.9485 100.765C89.1165 100.765 89.9325 100.749 90.4285 100.557C90.9565 100.381 91.1005 100.045 91.1005 99.3726V95.4846L95.3245 95.1646ZM92.5405 96.8286C93.8205 97.8046 95.3725 99.1966 96.1405 100.045L97.1325 99.3406C96.3165 98.4926 94.7325 97.1486 93.4685 96.2206L92.5405 96.8286ZM104.829 95.3246C104.653 94.5086 104.189 93.1806 103.693 92.1566L102.829 92.4766C103.053 92.9406 103.245 93.4686 103.437 93.9966L100.829 94.3646C102.157 92.8766 103.421 90.9886 104.461 89.1166L103.469 88.5086C103.085 89.2926 102.637 90.0766 102.189 90.7966L100.509 90.9566C101.421 89.7246 102.333 88.1566 103.069 86.6206L101.981 86.1566C101.309 87.8846 100.173 89.7246 99.8045 90.1886C99.4845 90.6686 99.1965 90.9886 98.9405 91.0526C99.0525 91.3566 99.2445 91.9166 99.3085 92.1566C99.5165 92.0446 99.8525 91.9806 101.533 91.7726C100.973 92.6206 100.477 93.2766 100.221 93.5646C99.7405 94.1566 99.3725 94.5566 99.0365 94.6366C99.1645 94.9406 99.3565 95.5006 99.4045 95.7406C99.7085 95.5646 100.189 95.4366 103.709 94.8606C103.789 95.1646 103.853 95.4366 103.901 95.6766L104.829 95.3246ZM99.6925 96.4286C99.5325 97.7086 99.2925 99.1166 98.9245 100.109C99.1645 100.189 99.6445 100.349 99.8365 100.461C100.173 99.4686 100.477 97.9646 100.637 96.6046L99.6925 96.4286ZM101.389 96.5406C101.581 97.6126 101.741 99.0206 101.773 99.9326L102.717 99.7086C102.669 98.7966 102.477 97.4206 102.285 96.3486L101.389 96.5406ZM104.893 98.8286C104.733 98.0446 104.349 96.8766 103.981 95.9486L103.149 96.2206C103.485 97.1326 103.853 98.3486 103.997 99.1166L104.893 98.8286ZM111.085 99.4846C110.733 99.4846 110.685 99.4046 110.685 98.9886V93.2606L111.901 93.1326C112.141 93.5806 112.333 93.9966 112.477 94.3486L113.533 93.8366C113.101 92.8286 112.109 91.1966 111.293 89.9966L110.317 90.4126C110.669 90.9566 111.037 91.5806 111.389 92.1886L106.685 92.6366C107.389 91.6926 108.077 90.5566 108.733 89.3566H113.437V88.2366H109.309C109.581 87.7086 109.853 87.1486 110.093 86.6046L108.813 86.2206C108.557 86.8926 108.253 87.5806 107.933 88.2366H105.021V89.3566H107.389C106.797 90.4606 106.269 91.3406 106.013 91.6926C105.581 92.3486 105.229 92.7806 104.909 92.8606C105.069 93.1966 105.245 93.7886 105.325 94.0446C105.549 93.9486 105.853 93.8686 106.893 93.7246C106.797 97.0206 106.413 98.8926 103.901 99.9646C104.173 100.173 104.493 100.589 104.621 100.893C107.437 99.5806 107.917 97.3566 108.045 93.5806L109.549 93.4046V99.0046C109.549 100.189 109.821 100.541 110.941 100.541H112.301C113.277 100.541 113.565 99.9806 113.677 97.8366C113.341 97.7406 112.893 97.5806 112.621 97.3726C112.589 99.1806 112.525 99.4846 112.189 99.4846H111.085ZM21.5475 126.749L22.4595 126.317C21.0675 124.045 20.4115 121.341 20.4115 118.621C20.4115 115.901 21.0675 113.213 22.4595 110.925L21.5475 110.509C20.0755 112.893 19.1955 115.485 19.1955 118.621C19.1955 121.773 20.0755 124.349 21.5475 126.749ZM33.5458 121.053C33.2898 121.757 32.7938 122.733 32.3778 123.405H28.6818L29.6738 123.069C29.5138 122.509 29.0978 121.693 28.6978 121.085L27.6258 121.421C28.0098 122.029 28.3778 122.861 28.5218 123.405H24.1378V124.445H38.1378V123.405H33.5938C33.9298 122.797 34.3298 122.045 34.6658 121.357L33.5458 121.053ZM34.3138 119.965H27.6738V117.965H34.3138V119.965ZM35.5618 116.973H26.5058V120.957H35.5618V116.973ZM37.1458 112.237C36.6018 112.813 35.7058 113.581 34.9218 114.173C34.5378 113.789 34.1698 113.373 33.8498 112.957C34.6338 112.413 35.5458 111.677 36.2818 110.989L35.3698 110.349C34.8578 110.909 34.0258 111.661 33.3058 112.237C32.8738 111.597 32.4898 110.925 32.2018 110.253L31.1618 110.573C31.8178 112.077 32.7138 113.453 33.8178 114.653H28.5378C29.4498 113.645 30.2178 112.477 30.7138 111.165L29.9298 110.765L29.7058 110.813H24.7938V111.821H29.1458C28.7458 112.605 28.1698 113.357 27.5458 114.061C27.0338 113.517 26.1858 112.893 25.4498 112.461L24.8098 113.133C25.5298 113.581 26.3458 114.205 26.8418 114.749C25.8498 115.661 24.6978 116.413 23.6098 116.861C23.8498 117.085 24.1858 117.485 24.3458 117.757C25.7058 117.117 27.0978 116.141 28.2818 114.925V115.677H34.0098V114.861C35.1298 116.029 36.4098 116.989 37.8018 117.613C38.0098 117.309 38.3458 116.845 38.6178 116.621C37.5458 116.205 36.5218 115.565 35.6098 114.781C36.3938 114.237 37.3218 113.517 38.0418 112.845L37.1458 112.237ZM42.8098 111.181V112.365H46.7458C46.7778 112.973 46.8418 113.677 46.9538 114.413L46.2498 114.301C45.2738 118.781 43.3058 121.997 39.7698 123.837C40.0898 124.045 40.6178 124.541 40.8418 124.781C44.0258 122.909 46.0418 119.997 47.2258 115.853C47.9458 118.877 49.6418 122.381 53.5778 124.765C53.7858 124.477 54.2658 123.965 54.5378 123.773C48.2658 120.045 47.8978 114.013 47.8978 111.181H42.8098ZM64.3618 119.837L65.4498 118.925C64.4578 117.741 63.0018 116.301 61.8658 115.373L60.8258 116.285C61.9618 117.213 63.3218 118.573 64.3618 119.837ZM82.9218 112.685C82.6018 112.013 81.8818 110.973 81.2418 110.221L80.3138 110.717C80.9698 111.501 81.6578 112.573 81.9298 113.261L82.9218 112.685ZM75.8658 112.205C75.6898 111.677 75.2258 110.861 74.7618 110.269L73.8658 110.701C74.2978 111.325 74.7618 112.141 74.9058 112.701L75.8658 112.205ZM76.2978 120.333V122.877H73.8818V120.333H76.2978ZM77.4018 119.389H72.7938V124.589H73.8818V123.805H77.4018V119.389ZM72.4898 118.205H77.4498V117.245H72.4898V118.205ZM72.7298 115.037V115.997H77.4338V115.037H72.7298ZM71.9138 113.741H77.7858L77.8018 112.749H71.9138V113.741ZM82.6178 123.021V118.877H85.7378V117.773H82.6178V114.429H86.1058V113.293H78.2178V114.429H81.4498V117.773H78.4898V118.877H81.4498V123.021H77.9298V124.141H86.4098V123.021H82.6178ZM97.4498 116.941V112.365H99.8818V116.941H97.4498ZM93.9458 116.941V112.365H96.3298V116.941H93.9458ZM90.5538 116.941V112.365H92.8418V116.941H90.5538ZM102.474 116.941H101.034V111.213H89.3858V116.941H87.8338V118.093H89.3858V124.861H90.5538V118.093H92.8418V124.637H93.9458V118.093H96.3298V124.637H97.4498V118.093H99.8818V123.389C99.8818 123.597 99.8178 123.677 99.6258 123.677C99.4338 123.677 98.8258 123.693 98.1858 123.661C98.3618 123.965 98.5378 124.509 98.5698 124.813C99.4978 124.813 100.138 124.797 100.522 124.605C100.922 124.381 101.034 124.029 101.034 123.405V118.093H102.474V116.941ZM112.362 119.837L113.45 118.925C112.458 117.741 111.002 116.301 109.866 115.373L108.826 116.285C109.962 117.213 111.322 118.573 112.362 119.837ZM132.794 115.805H130.938V114.333H132.794V115.805ZM133.738 113.517H130.026V116.621H133.738V113.517ZM127.706 113.213H128.746V110.221H127.706V111.485H124.922V112.413H127.706V113.213ZM125.146 117.789C124.89 117.389 123.77 115.741 123.37 115.229V114.397H125.098V113.277H123.37V110.221H122.314V113.277H120.09V114.397H122.138C121.658 116.509 120.666 119.037 119.706 120.349C119.898 120.637 120.186 121.149 120.314 121.501C121.066 120.381 121.786 118.541 122.314 116.717V124.797H123.37V116.589C123.786 117.309 124.266 118.189 124.474 118.637L125.146 117.789ZM127.018 122.381H129.37V123.341H127.018V122.381ZM129.37 119.741H127.018V118.797H129.37V119.741ZM129.37 121.533H127.018V120.589H129.37V121.533ZM126.426 114.333H128.218V115.805H126.426V114.333ZM130.426 122.381H133.37V121.533H130.426V120.589H133.37V119.741H130.426V118.797H134.058V117.981H130.538C130.394 117.597 130.218 117.133 130.042 116.765L129.018 117.037C129.13 117.325 129.258 117.661 129.386 117.981H127.29C127.514 117.613 127.722 117.213 127.914 116.829L127.306 116.621H129.162V113.517H125.514V116.621H126.858C126.282 117.869 125.306 119.085 124.314 119.901C124.506 120.109 124.826 120.605 124.938 120.829C125.274 120.541 125.61 120.189 125.946 119.821V124.813H127.018V124.237H134.33V123.341H130.426V122.381ZM131.482 111.485V110.221H130.426V113.181H131.482V112.413H134.442V111.485H131.482ZM140.65 110.813L140.474 110.861H136.65V124.797H137.706V111.949H140.026C139.706 113.005 139.226 114.381 138.762 115.533C139.914 116.813 140.202 117.917 140.202 118.781C140.202 119.261 140.106 119.709 139.866 119.885C139.738 119.981 139.562 120.013 139.37 120.029C139.114 120.061 138.81 120.045 138.442 120.013C138.618 120.317 138.73 120.765 138.746 121.069C139.082 121.085 139.498 121.085 139.802 121.037C140.122 121.005 140.426 120.909 140.65 120.733C141.082 120.429 141.274 119.725 141.274 118.893C141.274 117.901 140.986 116.733 139.834 115.405C140.378 114.141 140.954 112.573 141.434 111.277L140.65 110.813ZM143.37 114.877H148.058V116.861H143.37V114.877ZM148.058 111.965V113.885H143.37V111.965H148.058ZM149.386 118.413C148.73 118.989 147.722 119.741 146.89 120.301C146.49 119.581 146.186 118.765 145.946 117.901H149.21V110.909H142.218V122.733C142.218 123.389 141.882 123.725 141.626 123.853C141.818 124.077 142.074 124.573 142.154 124.829C142.474 124.621 142.954 124.461 146.25 123.565C146.202 123.309 146.186 122.829 146.186 122.477L143.37 123.165V117.901H144.906C145.706 121.069 147.194 123.517 149.69 124.701C149.882 124.397 150.25 123.917 150.506 123.693C149.226 123.165 148.202 122.285 147.418 121.149C148.298 120.621 149.354 119.917 150.17 119.245L149.386 118.413ZM70.3315 136.317L69.7235 136.781C70.2355 137.277 70.8915 137.949 71.2115 138.365L71.9955 137.709C71.6915 137.341 71.0995 136.749 70.6035 136.317H73.6275V135.357H69.4995C69.6755 135.037 69.8195 134.717 69.9635 134.397L68.9075 134.109C68.3635 135.437 67.4515 136.717 66.4595 137.597C66.7155 137.789 67.1315 138.189 67.2915 138.381C67.8675 137.837 68.4435 137.117 68.9555 136.317H70.3315ZM78.0275 145.821V147.357H70.3315V145.821H78.0275ZM77.1955 141.517V142.877H70.3315V141.517H77.1955ZM70.3315 143.789H78.3635V140.605H69.1475V148.829H70.3315V148.285H78.0275V148.797H79.1955V144.893H70.3315V143.789ZM72.7795 137.677C72.9555 137.981 73.1155 138.349 73.2595 138.685H67.3875V141.293H68.5395V139.629H79.1155V141.293H80.2995V138.685H74.4755C74.3315 138.285 74.0595 137.821 73.8355 137.453L72.7795 137.677ZM76.0755 135.373C76.2515 135.053 76.3955 134.717 76.5235 134.381L75.4355 134.109C75.0355 135.197 74.3155 136.237 73.4515 136.925C73.7235 137.085 74.1555 137.453 74.3475 137.629C74.7635 137.277 75.1475 136.813 75.5155 136.317H77.3395L76.6515 136.877C77.2435 137.373 77.9795 138.061 78.3475 138.509L79.1475 137.805C78.7795 137.389 78.0755 136.781 77.4995 136.317H80.9395V135.373H76.0755ZM87.3715 144.381L85.6275 144.957V140.989H87.2275V139.885H85.6275V136.413H87.4675V135.293H82.5075V136.413H84.4915V139.885H82.6835V140.989H84.4915V145.309C83.6755 145.581 82.9395 145.805 82.3475 145.981L82.6195 147.181C84.0435 146.717 85.8675 146.093 87.5795 145.517L87.3715 144.381ZM89.3395 138.989H91.7715V141.021H89.3395V138.989ZM89.3395 135.981H91.7715V137.997H89.3395V135.981ZM95.2435 137.997H92.7955V135.981H95.2435V137.997ZM95.2435 141.021H92.7955V138.989H95.2435V141.021ZM92.8915 147.213V145.021H96.6195V143.933H92.8915V142.061H96.3795V134.941H88.2515V142.061H91.6915V143.933H88.0595V145.021H91.6915V147.213H86.8275V148.301H97.1315V147.213H92.8915ZM99.3075 150.749C100.796 148.349 101.676 145.773 101.676 142.621C101.676 139.485 100.796 136.893 99.3075 134.509L98.4115 134.925C99.7875 137.213 100.46 139.901 100.46 142.621C100.46 145.341 99.7875 148.045 98.4115 150.317L99.3075 150.749Z" fill="black"/>
<path d="M24.226 17.732C25.234 18.668 26.038 19.484 26.638 20.18C27.262 20.876 27.79 21.68 28.222 22.592C28.654 23.48 28.87 24.44 28.87 25.472C28.87 26.96 28.438 28.34 27.574 29.612C26.734 30.86 25.582 31.856 24.118 32.6C22.678 33.344 21.094 33.716 19.366 33.716C17.83 33.716 16.45 33.428 15.226 32.852C14.026 32.252 13.078 31.436 12.382 30.404C11.71 29.348 11.374 28.136 11.374 26.768C11.374 25.088 11.926 23.624 13.03 22.376C14.134 21.104 15.862 19.94 18.214 18.884C17.182 17.804 16.378 16.796 15.802 15.86C15.25 14.9 14.974 13.868 14.974 12.764C14.974 11.564 15.322 10.472 16.018 9.488C16.714 8.48 17.662 7.688 18.862 7.112C20.086 6.536 21.43 6.248 22.894 6.248C24.166 6.248 25.306 6.464 26.314 6.896C27.322 7.328 28.102 7.94 28.654 8.732C29.23 9.5 29.518 10.364 29.518 11.324C29.518 13.676 27.754 15.812 24.226 17.732ZM23.29 7.976C22.378 7.976 21.61 8.312 20.986 8.984C20.386 9.632 20.086 10.472 20.086 11.504C20.086 12.368 20.314 13.184 20.77 13.952C21.226 14.696 21.886 15.488 22.75 16.328C23.638 15.536 24.346 14.636 24.874 13.628C25.402 12.62 25.666 11.648 25.666 10.712C25.666 9.872 25.45 9.212 25.018 8.732C24.61 8.228 24.034 7.976 23.29 7.976ZM19.546 31.232C20.626 31.232 21.55 30.8 22.318 29.936C23.11 29.072 23.506 28.052 23.506 26.876C23.506 25.748 23.182 24.692 22.534 23.708C21.886 22.724 20.938 21.608 19.69 20.36C18.538 21.128 17.65 22.076 17.026 23.204C16.426 24.308 16.126 25.508 16.126 26.804C16.126 28.148 16.438 29.228 17.062 30.044C17.686 30.836 18.514 31.232 19.546 31.232Z" fill="black"/>
<path d="M145.253 214.399C144.245 213.463 143.441 212.647 142.841 211.951C142.217 211.255 141.689 210.451 141.257 209.539C140.825 208.651 140.609 207.691 140.609 206.659C140.609 205.171 141.041 203.791 141.905 202.519C142.745 201.271 143.897 200.275 145.361 199.531C146.801 198.787 148.385 198.415 150.113 198.415C151.649 198.415 153.029 198.703 154.253 199.279C155.453 199.879 156.401 200.695 157.097 201.727C157.769 202.783 158.105 203.995 158.105 205.363C158.105 207.043 157.553 208.507 156.449 209.755C155.345 211.027 153.617 212.191 151.265 213.247C152.297 214.327 153.101 215.335 153.677 216.271C154.229 217.231 154.505 218.263 154.505 219.367C154.505 220.567 154.157 221.659 153.461 222.643C152.765 223.651 151.817 224.443 150.617 225.019C149.393 225.595 148.049 225.883 146.585 225.883C145.313 225.883 144.173 225.667 143.165 225.235C142.157 224.803 141.377 224.191 140.825 223.399C140.249 222.631 139.961 221.767 139.961 220.807C139.961 218.455 141.725 216.319 145.253 214.399ZM146.189 224.155C147.101 224.155 147.869 223.819 148.493 223.147C149.093 222.499 149.393 221.659 149.393 220.627C149.393 219.763 149.165 218.947 148.709 218.179C148.253 217.435 147.593 216.643 146.729 215.803C145.841 216.595 145.133 217.495 144.605 218.503C144.077 219.511 143.813 220.483 143.813 221.419C143.813 222.259 144.029 222.919 144.461 223.399C144.869 223.903 145.445 224.155 146.189 224.155ZM149.933 200.899C148.853 200.899 147.929 201.331 147.161 202.195C146.369 203.059 145.973 204.079 145.973 205.255C145.973 206.383 146.297 207.439 146.945 208.423C147.593 209.407 148.541 210.523 149.789 211.771C150.941 211.003 151.829 210.055 152.453 208.927C153.053 207.823 153.353 206.623 153.353 205.327C153.353 203.983 153.041 202.903 152.417 202.087C151.793 201.295 150.965 200.899 149.933 200.899Z" fill="black"/>
</svg>
